<svg width="58" height="77" viewBox="0 0 58 77" fill="none" xmlns="http://www.w3.org/2000/svg">
<g clip-path="url(#clip0_342_42965)">
<path d="M3.625 77H54.375C56.3736 77 58 75.3806 58 73.3906V22.8594C58 22.8185 57.9807 22.7848 57.9783 22.7463C57.9734 22.6909 57.9589 22.6428 57.9468 22.5899C57.9089 22.4227 57.8347 22.2658 57.7293 22.1303C57.7124 22.1086 57.7148 22.0822 57.6979 22.0605L38.3646 0.40425C38.3573 0.397031 38.3477 0.397031 38.3404 0.389813C38.1929 0.236319 38.0068 0.124978 37.8015 0.067375C37.7556 0.0529375 37.7145 0.048125 37.6662 0.0409063C37.5961 0.028875 37.5308 0 37.4583 0H3.625C1.62642 0 0 1.61941 0 3.60938V73.3906C0 75.3806 1.62642 77 3.625 77ZM38.6667 4.36734L54.1019 21.6562H39.875C39.3433 21.6562 38.6667 20.6456 38.6667 19.8516V4.36734ZM2.41667 3.60938C2.41667 3.29029 2.54397 2.98427 2.77058 2.75864C2.99719 2.53301 3.30453 2.40625 3.625 2.40625H36.25V19.8516C36.25 21.7982 37.8329 24.0625 39.875 24.0625H55.5833V73.3906C55.5833 73.7097 55.456 74.0157 55.2294 74.2414C55.0028 74.467 54.6955 74.5938 54.375 74.5938H3.625C2.94833 74.5938 2.41667 74.0644 2.41667 73.3906V3.60938Z" fill="#D0A966"/>
<path d="M13.2904 33.6875H44.707C45.0275 33.6875 45.3348 33.5607 45.5615 33.3351C45.7881 33.1095 45.9154 32.8035 45.9154 32.4844C45.9154 32.1653 45.7881 31.8593 45.5615 31.6336C45.3348 31.408 45.0275 31.2812 44.707 31.2812H13.2904C12.9699 31.2812 12.6626 31.408 12.4359 31.6336C12.2093 31.8593 12.082 32.1653 12.082 32.4844C12.082 32.8035 12.2093 33.1095 12.4359 33.3351C12.6626 33.5607 12.9699 33.6875 13.2904 33.6875V33.6875Z" fill="#D0A966"/>
<path d="M13.2904 43.3125H44.707C45.0275 43.3125 45.3348 43.1857 45.5615 42.9601C45.7881 42.7345 45.9154 42.4285 45.9154 42.1094C45.9154 41.7903 45.7881 41.4843 45.5615 41.2586C45.3348 41.033 45.0275 40.9062 44.707 40.9062H13.2904C12.9699 40.9062 12.6626 41.033 12.4359 41.2586C12.2093 41.4843 12.082 41.7903 12.082 42.1094C12.082 42.4285 12.2093 42.7345 12.4359 42.9601C12.6626 43.1857 12.9699 43.3125 13.2904 43.3125V43.3125Z" fill="#D0A966"/>
<path d="M13.2904 24.0625H27.7904C28.1108 24.0625 28.4182 23.9357 28.6448 23.7101C28.8714 23.4845 28.9987 23.1785 28.9987 22.8594C28.9987 22.5403 28.8714 22.2343 28.6448 22.0086C28.4182 21.783 28.1108 21.6562 27.7904 21.6562H13.2904C12.9699 21.6562 12.6626 21.783 12.4359 22.0086C12.2093 22.2343 12.082 22.5403 12.082 22.8594C12.082 23.1785 12.2093 23.4845 12.4359 23.7101C12.6626 23.9357 12.9699 24.0625 13.2904 24.0625V24.0625Z" fill="#D0A966"/>
<path d="M13.2904 52.9375H44.707C45.0275 52.9375 45.3348 52.8107 45.5615 52.5851C45.7881 52.3595 45.9154 52.0535 45.9154 51.7344C45.9154 51.4153 45.7881 51.1093 45.5615 50.8836C45.3348 50.658 45.0275 50.5312 44.707 50.5312H13.2904C12.9699 50.5312 12.6626 50.658 12.4359 50.8836C12.2093 51.1093 12.082 51.4153 12.082 51.7344C12.082 52.0535 12.2093 52.3595 12.4359 52.5851C12.6626 52.8107 12.9699 52.9375 13.2904 52.9375V52.9375Z" fill="#D0A966"/>
<path d="M13.2904 62.5625H44.707C45.0275 62.5625 45.3348 62.4357 45.5615 62.2101C45.7881 61.9845 45.9154 61.6785 45.9154 61.3594C45.9154 61.0403 45.7881 60.7343 45.5615 60.5086C45.3348 60.283 45.0275 60.1562 44.707 60.1562H13.2904C12.9699 60.1562 12.6626 60.283 12.4359 60.5086C12.2093 60.7343 12.082 61.0403 12.082 61.3594C12.082 61.6785 12.2093 61.9845 12.4359 62.2101C12.6626 62.4357 12.9699 62.5625 13.2904 62.5625V62.5625Z" fill="#D0A966"/>
</g>
<defs>
<clipPath id="clip0_342_42965">
<rect width="58" height="77" fill="white"/>
</clipPath>
</defs>
</svg>
