<svg width="343" height="253" viewBox="0 0 343 253" fill="none" xmlns="http://www.w3.org/2000/svg">
<path d="M272.387 126.211L268.981 151.787L287.169 138.509L342.891 110.13L299.809 114.054C299.809 114.054 277.864 119.379 276.67 120.465C275.477 121.551 272.387 126.211 272.387 126.211Z" fill="#D0A966"/>
<path d="M272.512 125.67L338.301 110.664L254.689 111.285L272.512 125.67Z" fill="#F9F9F9" stroke="#D0A966"/>
<path d="M340.985 111.333L278.703 133.32L301.141 151.292L340.985 111.333Z" fill="#F9F9F9" stroke="#D0A966"/>
<path d="M15.9499 98.6062L19.1067 99.2309C18.4365 102.502 18.2546 105.889 18.5244 109.279L15.322 109.52C15.0169 105.866 15.2396 102.14 15.9499 98.6062Z" fill="#D0A966"/>
<path d="M21.3836 129.821L24.2207 128.373C27.0311 133.889 30.857 139.526 35.587 145.094L33.1208 147.147C28.2422 141.352 24.3052 135.526 21.3836 129.821ZM47.8555 161.972L49.9114 159.502C50.5841 160.034 51.2942 160.604 51.967 161.135C54.3217 162.997 56.8284 164.709 59.4491 166.309C61.8453 167.756 64.3548 169.167 66.9037 170.39L65.484 173.279C62.8225 172.018 60.2004 170.568 57.7296 169.045C55.0343 167.369 52.453 165.581 49.9857 163.682C49.3129 163.15 48.5655 162.542 47.8555 161.972ZM85.9659 177.302C92.314 178.89 99.0815 179.917 106.08 180.418L105.862 183.617C98.7131 183.114 91.7577 182.049 85.2217 180.421L85.9659 177.302ZM162.617 112.485C163.802 110.574 167.679 106.61 171.717 105.622C174.736 104.891 178.084 105.103 181.312 106.255L180.23 109.259C177.49 108.299 174.856 108.129 172.441 108.715C169.536 109.409 166.268 112.624 165.313 114.161C165.198 114.348 165.159 114.461 165.159 114.461C165.12 114.649 165.081 114.837 165.041 115.025L161.922 114.363C161.962 114.175 162.002 113.912 162.041 113.724C162.158 113.31 162.312 112.935 162.617 112.485ZM126.487 180.337C133.155 179.819 139.978 178.926 146.768 177.544L147.379 180.673C140.476 182.092 133.54 183.022 126.721 183.539L126.487 180.337ZM166.285 135.214L168.975 133.463C170.051 135.165 171.316 136.755 172.696 138.158C174.673 140.167 176.953 141.953 179.499 143.552C180.884 144.428 182.382 145.192 183.919 145.918L182.575 148.807C180.925 148.043 179.315 147.165 177.817 146.251C175.046 144.575 172.543 142.562 170.416 140.401C168.887 138.846 167.473 137.105 166.285 135.214ZM193.247 122.491L196.269 121.458C198.469 127.799 198.285 135.44 195.812 142.35L195.657 142.801L192.655 141.725L192.81 141.275C195.051 135.041 195.19 128.19 193.247 122.491ZM165.437 169.995C170.809 167.172 174.86 164.754 176.493 163.222C178.391 161.503 180.101 159.896 181.622 158.251L183.936 160.451C182.301 162.133 180.591 163.815 178.58 165.571C176.036 167.849 170.133 171.045 166.842 172.791L165.437 169.995ZM203.339 150.837C210.035 151.411 216.779 150.97 223.418 149.586L224.104 152.716C217.163 154.172 210.119 154.612 203.084 153.998L203.339 150.837Z" fill="#D0A966"/>
<path d="M242.231 142.566C245.259 140.856 248.138 138.918 250.793 136.829L252.803 139.328C250.034 141.529 247.041 143.579 243.787 145.363L242.231 142.566Z" fill="#D0A966"/>
</svg>
