<?xml version="1.0" encoding="utf-8"?>
<!-- Generator: Adobe Illustrator 26.3.1, SVG Export Plug-In . SVG Version: 6.00 Build 0)  -->
<svg version="1.1" id="Слой_1" xmlns="http://www.w3.org/2000/svg" xmlns:xlink="http://www.w3.org/1999/xlink" x="0px" y="0px"
	 viewBox="0 0 29 11" style="enable-background:new 0 0 29 11;" xml:space="preserve">
<path d="M23.7,7.9c-0.2,0-0.4,0.1-0.5,0.3c-0.1,0.2,0,0.4,0.1,0.5c0.1,0.1,0.4,0.2,0.5,0.1c0.2-0.1,0.3-0.3,0.3-0.5
	c0-0.1,0-0.3-0.1-0.4C24,7.9,23.9,7.9,23.7,7.9L23.7,7.9z"/>
<path d="M23.7,5.8c-0.7,0-1.4,0.3-1.8,0.8c-0.5,0.5-0.8,1.1-0.8,1.8c0,0.7,0.3,1.4,0.8,1.8c0.5,0.5,1.1,0.8,1.8,0.8
	c0.7,0,1.4-0.3,1.8-0.8c0.5-0.5,0.8-1.1,0.8-1.8c0-0.7-0.3-1.4-0.8-1.9C25.1,6.1,24.4,5.8,23.7,5.8z M23.7,9.5
	c-0.3,0-0.6-0.1-0.8-0.3c-0.2-0.2-0.3-0.5-0.3-0.8c0-0.3,0.1-0.6,0.3-0.8c0.2-0.2,0.5-0.3,0.8-0.3c0.3,0,0.6,0.1,0.8,0.3
	c0.2,0.2,0.3,0.5,0.3,0.8c0,0.3-0.1,0.6-0.3,0.8C24.3,9.4,24,9.5,23.7,9.5L23.7,9.5z"/>
<path d="M5.4,5.8c-0.7,0-1.4,0.3-1.8,0.8C3.1,7,2.8,7.7,2.8,8.4c0,0.7,0.3,1.4,0.8,1.8C4.1,10.7,4.7,11,5.4,11
	c0.7,0,1.4-0.3,1.8-0.8C7.7,9.8,8,9.1,8,8.4c0-0.7-0.3-1.4-0.8-1.9C6.8,6.1,6.1,5.8,5.4,5.8L5.4,5.8z M5.4,9.5
	c-0.3,0-0.6-0.1-0.8-0.3C4.4,9,4.3,8.7,4.3,8.4c0-0.3,0.1-0.6,0.3-0.8c0.2-0.2,0.5-0.3,0.8-0.3c0.3,0,0.6,0.1,0.8,0.3
	c0.2,0.2,0.3,0.5,0.3,0.8c0,0.3-0.1,0.6-0.3,0.8C6,9.4,5.7,9.5,5.4,9.5L5.4,9.5z"/>
<path d="M5.4,7.9C5.2,7.9,5,8,4.9,8.2C4.9,8.4,4.9,8.6,5,8.7c0.1,0.1,0.4,0.2,0.5,0.1c0.2-0.1,0.3-0.3,0.3-0.5c0-0.1,0-0.3-0.1-0.4
	C5.7,7.9,5.5,7.9,5.4,7.9L5.4,7.9z"/>
<path d="M28.3,5.7c-1.9-1.3-4.3-2-7.3-2.1l-4.1-2.9c-0.3-0.2-0.7-0.4-1.1-0.5C14.9,0.1,14,0,13.1,0c0,0,0,0-0.1,0h0
	c-1.4,0-2.8,0-4.2,0.2C8.5,0.3,8.1,0.4,7.8,0.6L4.2,3H2.1C1.8,3,1.5,3.1,1.3,3.3C1.1,3.5,1,3.8,1,4.1v0.5c0,0.1,0,0.2-0.1,0.3
	L0.3,5.5C0.1,5.7,0,6.1,0,6.4l0.3,2c0,0.3,0.2,0.5,0.4,0.7c0.2,0.2,0.5,0.3,0.7,0.3h1c-0.1-0.3-0.2-0.6-0.2-1c0-1.1,0.6-2.2,1.6-2.8
	c1-0.6,2.2-0.6,3.2,0c1,0.6,1.6,1.6,1.6,2.8c0,0.3-0.1,0.7-0.2,1h12.2c-0.1-0.3-0.2-0.7-0.2-1c0-1.1,0.6-2.2,1.6-2.8
	c1-0.6,2.2-0.6,3.2,0c1,0.6,1.6,1.6,1.6,2.8c0,0.3-0.1,0.7-0.2,1h0.9c0.3,0,0.6-0.1,0.8-0.3c0.2-0.2,0.3-0.5,0.3-0.8V6.6
	C28.8,6.2,28.6,5.9,28.3,5.7L28.3,5.7z M12.8,3.5H7.9L7,1.9l1.1-0.7C8.4,1,8.6,0.9,8.9,0.8c1.3-0.2,2.6-0.2,3.8-0.2L12.8,3.5z
	 M13.4,3.5V0.6c0.8,0,1.6,0.1,2.3,0.2c0.3,0,0.6,0.2,0.9,0.4L20,3.5H13.4z"/>
</svg>
