<?xml version="1.0" encoding="utf-8"?>
<!-- Generator: Adobe Illustrator 26.3.1, SVG Export Plug-In . SVG Version: 6.00 Build 0)  -->
<svg version="1.1" id="Слой_1" xmlns="http://www.w3.org/2000/svg" xmlns:xlink="http://www.w3.org/1999/xlink" x="0px" y="0px"
	 viewBox="0 0 12 22" style="enable-background:new 0 0 12 22;" xml:space="preserve">
<style type="text/css">
	.st0{fill-rule:evenodd;clip-rule:evenodd;}
</style>
<path class="st0" d="M6.3,5.1C10.2,4.3,11.7,2.4,12,0c0,7.3,0,14.7,0,22H6.3L6.3,5.1L6.3,5.1z M2.7,3.2c0-0.1,0.1-0.2,0.1-0.2
	C2.9,3.1,3,3.2,3,3.2V6l2.7,4.5V22H0V10.6L2.7,6L2.7,3.2L2.7,3.2z M3.3,19H2.4V20h0.9V19z M3.3,17.1H2.4V18h0.9V17.1z M3.3,15.2H2.4
	V16h0.9V15.2z M3.3,13.2H2.4v0.9h0.9V13.2z M3.3,11.3H2.4v0.9h0.9V11.3z M5,19H4.1V20H5V19z M5,17.1H4.1V18H5V17.1z M5,15.2H4.1V16
	H5V15.2z M5,13.2H4.1v0.9H5V13.2z M5,11.3H4.1v0.9H5V11.3z M0.7,19h0.9V20H0.7V19z M0.7,17.1h0.9V18H0.7V17.1z M0.7,15.2h0.9V16H0.7
	V15.2z M0.7,13.2h0.9v0.9H0.7V13.2z M0.7,11.3h0.9v0.9H0.7V11.3z M8.7,19h0.9V20H8.7V19z M8.7,17.2h0.9V18H8.7V17.2z M8.7,15.2h0.9
	v0.9H8.7V15.2z M8.7,13.4h0.9v0.9H8.7V13.4z M8.7,11.5h0.9v0.9H8.7V11.5z M8.7,9.6h0.9v0.9H8.7V9.6z M8.7,7.7h0.9v0.9H8.7V7.7z
	 M8.7,5.8h0.9v0.9H8.7V5.8z M7,19h0.9V20H7V19z M7,17.2h0.9V18H7V17.2z M7,15.2h0.9v0.9H7V15.2z M7,13.4h0.9v0.9H7V13.4z M7,11.5
	h0.9v0.9H7V11.5z M7,9.6h0.9v0.9H7V9.6z M7,7.7h0.9v0.9H7V7.7z M7,5.8h0.9v0.9H7V5.8z M11.3,19h-0.8V20h0.8V19z M11.3,17.2h-0.8V18
	h0.8V17.2z M11.3,15.2h-0.8v0.9h0.8V15.2z M11.3,13.4h-0.8v0.9h0.8V13.4z M11.3,11.5h-0.8v0.9h0.8V11.5z M11.3,9.6h-0.8v0.9h0.8V9.6
	z M11.3,7.7h-0.8v0.9h0.8V7.7z M11.3,5.8h-0.8v0.9h0.8V5.8z"/>
</svg>
