<?xml version="1.0" encoding="utf-8"?>
<!-- Generator: Adobe Illustrator 26.3.1, SVG Export Plug-In . SVG Version: 6.00 Build 0)  -->
<svg version="1.1" id="Слой_1" xmlns="http://www.w3.org/2000/svg" xmlns:xlink="http://www.w3.org/1999/xlink" x="0px" y="0px"
	 viewBox="0 0 25 22" style="enable-background:new 0 0 25 22;" xml:space="preserve">
<style type="text/css">
	.st0{fill:none;}
</style>
<rect x="0" y="0" class="st0" width="25" height="22"/>
<g>
	<path d="M6.9,21.3c-0.5,0-1-0.2-1.3-0.6C5.2,20.4,5,19.9,5,19.4v-0.9H1.2c-0.3,0-0.5-0.2-0.5-0.5s0.2-0.5,0.5-0.5H5v-0.9
		c0-0.5,0.2-1,0.6-1.3c0.7-0.7,2-0.7,2.7,0c0.4,0.4,0.6,0.8,0.6,1.3v0.9h15c0.3,0,0.5,0.2,0.5,0.5s-0.2,0.5-0.5,0.5h-15v0.9
		c0,0.5-0.2,1-0.6,1.3C7.9,21.1,7.4,21.3,6.9,21.3z M6,18v1.4c0,0.2,0.1,0.5,0.3,0.6c0.3,0.3,0.9,0.3,1.3,0c0.2-0.2,0.3-0.4,0.3-0.6
		v-2.8c0-0.2-0.1-0.5-0.3-0.6c-0.3-0.3-0.9-0.3-1.3,0C6.1,16.1,6,16.4,6,16.6V18z M18.1,14.3c-0.5,0-1-0.2-1.3-0.6
		c-0.4-0.4-0.6-0.8-0.6-1.3v-0.9h-15c-0.3,0-0.5-0.2-0.5-0.5s0.2-0.5,0.5-0.5h15V9.6c0-0.5,0.2-1,0.6-1.3c0.7-0.7,2-0.7,2.7,0
		C19.8,8.6,20,9.1,20,9.6v0.9h3.7c0.3,0,0.5,0.2,0.5,0.5s-0.2,0.5-0.5,0.5H20v0.9c0,0.5-0.2,1-0.6,1.3
		C19.1,14.1,18.6,14.3,18.1,14.3z M17.2,11v1.4c0,0.2,0.1,0.5,0.3,0.6c0.3,0.3,0.9,0.3,1.3,0c0.2-0.2,0.3-0.4,0.3-0.6V9.6
		c0-0.2-0.1-0.5-0.3-0.6c-0.3-0.3-0.9-0.3-1.3,0c-0.2,0.2-0.3,0.4-0.3,0.6V11z M6.9,7.3c-0.5,0-1-0.2-1.3-0.6C5.2,6.3,5,5.9,5,5.4
		V4.4H1.2C1,4.4,0.7,4.2,0.7,3.9S1,3.4,1.2,3.4H5V2.5c0-0.5,0.2-1,0.6-1.3c0.7-0.7,2-0.7,2.7,0C8.6,1.6,8.8,2,8.8,2.5v0.9h15
		c0.3,0,0.5,0.2,0.5,0.5S24,4.4,23.8,4.4h-15v0.9c0,0.5-0.2,1-0.6,1.3S7.4,7.3,6.9,7.3z M6,3.9v1.4C6,5.6,6.1,5.8,6.2,6
		c0.3,0.3,0.9,0.3,1.3,0c0.2-0.2,0.3-0.4,0.3-0.6V2.5c0-0.2-0.1-0.5-0.3-0.6c-0.3-0.3-0.9-0.3-1.3,0C6.1,2.1,6,2.3,6,2.5V3.9z"/>
</g>
</svg>
