<?xml version="1.0" encoding="utf-8"?>
<!-- Generator: Adobe Illustrator 26.3.1, SVG Export Plug-In . SVG Version: 6.00 Build 0)  -->
<svg version="1.1" id="Слой_1" xmlns="http://www.w3.org/2000/svg" xmlns:xlink="http://www.w3.org/1999/xlink" x="0px" y="0px"
	 viewBox="0 0 68 53" style="enable-background:new 0 0 68 53;" xml:space="preserve">
<path d="M67.1,24.5L35.3,0.4C34.9,0.2,34.5,0,34,0s-0.9,0.2-1.3,0.4L0.9,24.5c-0.5,0.4-0.9,1-0.9,1.7c-0.1,0.7,0.1,1.4,0.6,1.9
	c0.4,0.5,1,0.8,1.7,0.8h6.8v21.7c0,0.6,0.2,1.3,0.7,1.7c0.4,0.5,1,0.7,1.6,0.7h15.9c0.6,0,1.2-0.3,1.6-0.7s0.7-1.1,0.7-1.7V36.1h9.1
	v14.5c0,0.6,0.2,1.3,0.7,1.7c0.4,0.5,1,0.7,1.6,0.7h15.9c0.6,0,1.2-0.3,1.6-0.7c0.4-0.5,0.7-1.1,0.7-1.7V28.9h6.8
	c0.6,0,1.3-0.3,1.7-0.8c0.4-0.5,0.6-1.2,0.6-1.9C67.9,25.6,67.6,24.9,67.1,24.5L67.1,24.5z"/>
</svg>
