<?xml version="1.0" encoding="utf-8"?>
<!-- Generator: Adobe Illustrator 26.3.1, SVG Export Plug-In . SVG Version: 6.00 Build 0)  -->
<svg version="1.1" id="Слой_1" xmlns="http://www.w3.org/2000/svg" xmlns:xlink="http://www.w3.org/1999/xlink" x="0px" y="0px"
	 viewBox="0 0 46 67" style="enable-background:new 0 0 46 67;" xml:space="preserve">
<path d="M9.3,30.5c0.5,5.2,3.9,9.5,8.6,11.3c-1.6-2.9-2.5-7.1-2.6-11.3H9.3z"/>
<path d="M45.6,8.1H0V67h45.6V8.1z M37,60.6H8.6c-0.8,0-1.4-0.6-1.4-1.4c0-0.8,0.6-1.4,1.4-1.4H37c0.8,0,1.4,0.6,1.4,1.4
	C38.4,60,37.8,60.6,37,60.6L37,60.6z M11.8,53c0-0.8,0.6-1.4,1.4-1.4h19.1c0.8,0,1.4,0.6,1.4,1.4c0,0.8-0.6,1.4-1.4,1.4H13.2
	C12.4,54.4,11.8,53.8,11.8,53z M22.8,45.6c-9.1,0-16.5-7.4-16.5-16.5c0-9.1,7.4-16.5,16.5-16.5s16.5,7.4,16.5,16.5
	C39.2,38.2,31.9,45.6,22.8,45.6z"/>
<path d="M27.7,41.8c4.7-1.8,8.1-6.1,8.6-11.3h-6C30.2,34.8,29.3,38.9,27.7,41.8z"/>
<path d="M27.7,16.4c1.6,2.9,2.5,7.1,2.6,11.3h6C35.8,22.6,32.4,18.3,27.7,16.4z"/>
<path d="M22.8,42.8c1.8,0,4.4-4.7,4.7-12.3h-9.4C18.4,38,21,42.8,22.8,42.8L22.8,42.8z"/>
<path d="M9.3,27.7h6c0.2-4.2,1.1-8.4,2.6-11.3C13.2,18.3,9.8,22.6,9.3,27.7z"/>
<path d="M22.8,15.5c-1.8,0-4.4,4.7-4.7,12.3h9.4C27.2,20.2,24.6,15.5,22.8,15.5L22.8,15.5z"/>
<path d="M42.6,0L13.9,5.3h28.7V0z"/>
</svg>
