<?xml version="1.0" encoding="utf-8"?>
<!-- Generator: Adobe Illustrator 26.3.1, SVG Export Plug-In . SVG Version: 6.00 Build 0)  -->
<svg version="1.1" id="Слой_1" xmlns="http://www.w3.org/2000/svg" xmlns:xlink="http://www.w3.org/1999/xlink" x="0px" y="0px"
	 viewBox="0 0 14 22" style="enable-background:new 0 0 14 22;" xml:space="preserve">
<style type="text/css">
	.st0{fill-rule:evenodd;clip-rule:evenodd;}
</style>
<path class="st0" d="M6.5,0.4C4.6,1.8,2.9,3.6,1.7,5.2C0,7.7-0.4,9.8,0.3,12.1c0.6,1.8,1.8,3.2,3.6,4.1c0.7,0.3,1.6,0.6,2.2,0.7
	l0.1,0l0,2.6l0,2.6H7h0.7l0-1l0-1L9,19.1c0.7-0.5,1.3-0.9,1.3-0.9c0-0.1-0.7-1.1-0.8-1.1c0,0-0.4,0.3-0.9,0.6l-0.8,0.6l0-0.8l0-0.8
	l0.2,0c0.3,0,1.1-0.2,1.5-0.3c0.3-0.1,1.1-0.5,1.4-0.7c2.4-1.5,3.7-4.5,3.1-7.1c-0.5-2.3-2.6-5.2-5.7-7.8C7.7,0.5,7,0,7,0
	C7,0,6.8,0.2,6.5,0.4z"/>
</svg>
