<?xml version="1.0" encoding="utf-8"?>
<!-- Generator: Adobe Illustrator 26.3.1, SVG Export Plug-In . SVG Version: 6.00 Build 0)  -->
<svg version="1.1" id="Слой_1" xmlns="http://www.w3.org/2000/svg" xmlns:xlink="http://www.w3.org/1999/xlink" x="0px" y="0px"
	 viewBox="0 0 15 20" style="enable-background:new 0 0 15 20;" xml:space="preserve">
<path d="M7.5,9.5c0.4,0,0.7-0.1,1-0.2C8.9,9.2,9.1,9,9.4,8.8C9.6,8.5,9.8,8.3,10,8c0.1-0.3,0.2-0.6,0.2-1S10.1,6.3,10,6
	C9.8,5.7,9.6,5.5,9.4,5.2C9.1,5,8.9,4.8,8.5,4.7c-0.3-0.1-0.7-0.2-1-0.2c-0.7,0-1.4,0.3-1.9,0.7C5.1,5.7,4.8,6.3,4.8,7
	c0,0.3,0.1,0.7,0.2,1c0.1,0.3,0.3,0.6,0.6,0.8C6.1,9.2,6.8,9.5,7.5,9.5z M7.5,0C11.6,0,15,3.1,15,7c0,5.2-7.5,13-7.5,13S0,12.2,0,7
	c0-1.9,0.8-3.6,2.2-4.9C3.6,0.7,5.5,0,7.5,0z"/>
</svg>
