<svg width="407" height="322" viewBox="0 0 407 322" fill="none" xmlns="http://www.w3.org/2000/svg">
<path d="M9.2019 134.386L4.22052 133.955L3.69638 140.012L9.74042 139.357L9.2019 134.386ZM36.246 120.043L32.8427 116.38L36.246 120.043ZM62.0858 88.2908L57.8735 85.5969L57.868 85.6056L57.8624 85.6143L62.0858 88.2908ZM81.6846 50.4071L77.0422 48.5501L77.0394 48.557L77.0367 48.5639L81.6846 50.4071ZM83.7649 4.96853L86.3 0.658863L85.2413 0.0361084L84.0146 -0.0252281L83.7649 4.96853ZM81.5751 4.85904L81.8248 -0.134719L81.7 -0.140957H81.5751V4.85904ZM61.9763 11.8664L59.3 7.64295L59.2889 7.65003L61.9763 11.8664ZM28.9102 50.9545L24.4343 48.7259L24.4052 48.7843L24.3777 48.8435L28.9102 50.9545ZM16.3188 89.2762L11.4464 88.1536L16.3188 89.2762ZM9.42088 193.73L5.43434 196.748L5.52807 196.872L5.6293 196.989L9.42088 193.73ZM6.35515 97.1595L1.45295 96.1754L1.45154 96.1824L1.45015 96.1895L6.35515 97.1595ZM21.5743 47.4508L17.0697 45.2809L17.0499 45.3219L17.0309 45.3633L21.5743 47.4508ZM65.699 2.23127L67.2938 6.97011L67.334 6.95657L67.374 6.94235L65.699 2.23127ZM89.7869 10.2241L94.4293 8.36712L94.3904 8.2699L94.3474 8.17438L89.7869 10.2241ZM83.8744 55.8816L79.2356 54.0157L83.8744 55.8816ZM63.3997 93.9843L59.266 91.1714L59.2602 91.1798L59.2546 91.1882L63.3997 93.9843ZM36.5745 124.97L39.8404 128.756L39.8486 128.749L39.8568 128.742L36.5745 124.97ZM8.87343 138.437L8.46496 133.454L4.27461 133.798L3.89396 137.985L8.87343 138.437ZM17.8516 197.781L14.739 201.694L15.7524 202.5L17.0297 202.713L17.8516 197.781ZM31.7569 193.949L28.8208 189.902L28.8017 189.916L28.7827 189.93L31.7569 193.949ZM53.2171 168.547L57.4211 171.254L57.4294 171.241L57.4377 171.228L53.2171 168.547ZM63.1807 152.233L58.8696 149.7L58.8681 149.703L63.1807 152.233ZM73.0348 136.138L68.837 133.422L68.8319 133.43L68.8269 133.437L73.0348 136.138ZM82.232 124.094L78.6542 120.601L78.6326 120.624L78.6113 120.646L82.232 124.094ZM93.838 120.809L89.9969 124.01L90.1421 124.185L90.3025 124.345L93.838 120.809ZM91.5387 134.934L96.1509 136.864L96.1704 136.818L96.189 136.771L91.5387 134.934ZM87.9255 144.569L92.6581 146.182L92.6636 146.166L92.6689 146.15L87.9255 144.569ZM87.7066 156.503L84.4768 160.32L84.6516 160.468L84.8392 160.599L87.7066 156.503ZM96.1373 153.766L92.4931 150.343L92.4896 150.346L96.1373 153.766ZM102.816 145.116L107.004 147.848L107.018 147.827L107.031 147.806L102.816 145.116ZM109.057 134.934L104.749 132.395L104.745 132.403L109.057 134.934ZM115.079 125.518L111.424 122.106L111.222 122.322L111.047 122.561L115.079 125.518ZM119.678 124.532L116.142 128.068L116.278 128.203L116.424 128.328L119.678 124.532ZM120.444 126.065L125.347 127.046L125.444 126.56V126.065H120.444ZM120.335 126.612L125.163 127.91L125.206 127.753L125.238 127.593L120.335 126.612ZM125.919 153.876V158.876H126.212L126.503 158.841L125.919 153.876ZM127.78 153.657L128.364 158.622L128.665 158.587L128.96 158.515L127.78 153.657ZM152.853 129.459L148.907 126.389L148.718 126.632L148.56 126.897L152.853 129.459ZM155.7 128.693L159.022 124.956L158.369 124.375L157.557 124.05L155.7 128.693ZM156.357 131.649L160.601 134.293L160.623 134.258L160.645 134.221L156.357 131.649ZM144.313 145.883L140.947 142.186L140.933 142.198L140.919 142.211L144.313 145.883ZM128.546 155.189L129.92 159.997L129.969 159.983L130.017 159.968L128.546 155.189ZM114.422 152.233L118.381 149.179L114.422 152.233ZM111.466 142.051L106.473 141.788L106.466 141.919V142.051H111.466ZM111.575 139.97L116.569 140.233L117.527 122.03L107.415 137.197L111.575 139.97ZM105.882 147.306L102.072 144.068L102.048 144.096L102.025 144.124L105.882 147.306ZM97.7797 155.189L94.7033 151.248L97.7797 155.189ZM86.8306 158.365L85.2495 163.108L85.3213 163.132L85.3939 163.154L86.8306 158.365ZM89.2394 123.766L93.7373 125.949L93.7422 125.939L89.2394 123.766ZM90.7723 120.152H95.7723V111.378L88.2233 115.851L90.7723 120.152ZM82.889 128.802L78.8203 125.896L78.8049 125.918L78.7898 125.939L82.889 128.802ZM71.9399 145.554L76.1711 148.218L76.1782 148.207L76.1852 148.196L71.9399 145.554ZM60.0055 163.949L64.1508 166.744L64.1583 166.733L64.1657 166.722L60.0055 163.949ZM33.6183 194.825L30.6078 190.833L30.5711 190.86L30.535 190.889L33.6183 194.825ZM9.74042 139.357C19.9477 138.251 29.9226 132.743 39.6494 123.706L32.8427 116.38C24.0291 124.569 15.9746 128.623 8.66339 129.415L9.74042 139.357ZM39.6494 123.706C49.2832 114.755 58.1619 103.823 66.3091 90.9672L57.8624 85.6143C50.0971 97.8679 41.7492 108.105 32.8427 116.38L39.6494 123.706ZM66.298 90.9846C74.484 78.1847 81.1681 65.2733 86.3325 52.2502L77.0367 48.5639C72.1279 60.9426 65.7462 73.287 57.8735 85.5969L66.298 90.9846ZM86.327 52.264C91.5435 39.2226 94.3489 27.9226 94.3489 18.5453H84.3489C84.3489 26.1026 82.0447 36.0438 77.0422 48.5501L86.327 52.264ZM94.3489 18.5453C94.3489 11.0148 92.307 4.19238 86.3 0.658863L81.2298 9.2782C82.6682 10.1243 84.3489 12.3531 84.3489 18.5453H94.3489ZM84.0146 -0.0252281L81.8248 -0.134719L81.3254 9.8528L83.5152 9.9623L84.0146 -0.0252281ZM81.5751 -0.140957C74.5554 -0.140957 67.078 2.71436 59.3 7.64297L64.6526 16.0899C71.6193 11.6753 77.2078 9.85904 81.5751 9.85904V-0.140957ZM59.2889 7.65003C45.0702 16.7125 33.4989 30.5213 24.4343 48.7259L33.386 53.1832C41.84 36.2048 52.3127 23.9549 64.6637 16.0828L59.2889 7.65003ZM24.3777 48.8435C19.2304 59.8951 14.9336 73.0178 11.4464 88.1536L21.1911 90.3987C24.5654 75.7532 28.6629 63.3281 33.4427 53.0655L24.3777 48.8435ZM11.4464 88.1536C7.96341 103.271 5.5546 118.539 4.22052 133.955L14.1833 134.817C15.477 119.868 17.8127 105.062 21.1911 90.3987L11.4464 88.1536ZM20.8079 194.971C18.7305 194.971 16.2048 193.951 13.2125 190.471L5.6293 196.989C9.79036 201.83 14.856 204.971 20.8079 204.971V194.971ZM13.4074 190.712C8.55474 184.302 5.55216 171.866 5.55216 152.014H-4.44784C-4.44784 172.163 -1.53794 187.538 5.43434 196.748L13.4074 190.712ZM5.55216 152.014C5.55216 135.382 7.44417 117.425 11.2602 98.1295L1.45015 96.1895C-2.47119 116.018 -4.44784 134.631 -4.44784 152.014H5.55216ZM11.2574 98.1436C15.1472 78.7665 20.1201 62.5918 26.1177 49.5383L17.0309 45.3633C10.6196 59.3175 5.44645 76.2819 1.45295 96.1754L11.2574 98.1436ZM26.0789 49.6207C31.6376 38.0813 38.2147 28.697 45.7543 21.363L38.7817 14.1948C30.2628 22.4814 23.0441 32.8785 17.0697 45.2809L26.0789 49.6207ZM45.7543 21.363C53.4477 13.8794 60.6356 9.21086 67.2938 6.97011L64.1042 -2.50757C55.5797 0.361242 47.1469 6.05776 38.7817 14.1948L45.7543 21.363ZM67.374 6.94235C70.2225 5.92956 72.7553 5.47943 75.0057 5.47943V-4.52057C71.4166 -4.52057 67.7449 -3.80282 64.0239 -2.4798L67.374 6.94235ZM75.0057 5.47943C77.6692 5.47943 79.6376 6.09318 81.1497 7.09006C82.6706 8.0927 84.0743 9.71057 85.2263 12.2738L94.3474 8.17438C92.5797 4.24115 90.06 0.986697 86.6538 -1.25888C83.2389 -3.51022 79.2765 -4.52057 75.0057 -4.52057V5.47943ZM85.1445 12.081C86.1697 14.6441 86.7577 17.8553 86.7577 21.8301H96.7577C96.7577 16.8996 96.0318 12.3734 94.4293 8.36712L85.1445 12.081ZM86.7577 21.8301C86.7577 30.6026 84.3531 41.293 79.2356 54.0157L88.5132 57.7475C93.9068 44.3385 96.7577 32.3278 96.7577 21.8301H86.7577ZM79.2356 54.0157C74.1216 66.7296 67.4703 79.1145 59.266 91.1714L67.5334 96.7972C76.1176 84.1821 83.1161 71.1653 88.5132 57.7475L79.2356 54.0157ZM59.2546 91.1882C51.136 103.224 42.4743 113.208 33.2922 121.198L39.8568 128.742C49.7991 120.09 59.0208 109.417 67.5448 96.7804L59.2546 91.1882ZM33.3087 121.184C24.2271 129.018 15.9589 132.84 8.46496 133.454L9.2819 143.421C19.5984 142.575 29.7976 137.419 39.8404 128.756L33.3087 121.184ZM3.89396 137.985C3.43754 143.005 3.21649 149.153 3.21649 156.394H13.2165C13.2165 149.327 13.4334 143.505 13.8529 138.89L3.89396 137.985ZM3.21649 156.394C3.21649 167.822 4.02796 177.315 5.7555 184.736C7.44961 192.013 10.2028 198.086 14.739 201.694L20.9643 193.868C19.0771 192.367 17.0127 188.987 15.4951 182.468C14.0109 176.093 13.2165 167.448 13.2165 156.394H3.21649ZM17.0297 202.713C18.1735 202.904 19.3243 203 20.4794 203V193C19.8827 193 19.2817 192.951 18.6736 192.849L17.0297 202.713ZM20.4794 203C25.5964 203 30.3752 201.192 34.7311 197.968L28.7827 189.93C25.8393 192.108 23.0998 193 20.4794 193V203ZM34.6931 197.996C38.8501 194.98 42.8131 191.07 46.6041 186.35L38.8079 180.088C35.4455 184.274 32.1091 187.516 28.8208 189.902L34.6931 197.996ZM46.6041 186.35C50.3012 181.748 53.906 176.714 57.4211 171.254L49.013 165.841C45.6667 171.038 42.2642 175.785 38.8079 180.088L46.6041 186.35ZM57.4377 171.228C60.8997 165.777 64.2516 160.289 67.4933 154.763L58.8681 149.703C55.6864 155.126 52.3958 160.514 48.9964 165.867L57.4377 171.228ZM67.4917 154.766C70.8945 148.974 74.1447 143.666 77.2428 138.839L68.8269 133.437C65.6475 138.391 62.3283 143.813 58.8696 149.7L67.4917 154.766ZM77.2327 138.854C80.3362 134.058 83.2133 130.314 85.8527 127.542L78.6113 120.646C75.4112 124.006 72.1569 128.291 68.837 133.422L77.2327 138.854ZM85.8099 127.587C88.43 124.903 90.0218 124.496 90.6628 124.496V114.496C86.0482 114.496 82.0195 117.154 78.6542 120.601L85.8099 127.587ZM90.6628 124.496H91.1008V114.496H90.6628V124.496ZM91.1008 124.496C90.9616 124.496 90.7157 124.463 90.4426 124.332C90.1751 124.203 90.0327 124.053 89.9969 124.01L97.6791 117.609C96.0444 115.647 93.7487 114.496 91.1008 114.496V124.496ZM90.3025 124.345C90.2741 124.317 90.234 124.271 90.1919 124.207C90.1495 124.143 90.1141 124.074 90.0876 124.006C90.0317 123.864 90.0424 123.799 90.0424 123.875H100.042C100.042 121.444 99.2058 119.106 97.3736 117.274L90.3025 124.345ZM90.0424 123.875C90.0424 123.729 90.0033 124.321 89.4 126.225C88.866 127.91 88.0371 130.189 86.8885 133.097L96.189 136.771C97.3761 133.766 98.2991 131.245 98.933 129.245C99.4976 127.463 100.042 125.482 100.042 123.875H90.0424ZM86.9265 133.003C85.5637 136.259 84.3157 139.587 83.1821 142.988L92.6689 146.15C93.7252 142.981 94.8859 139.886 96.1509 136.864L86.9265 133.003ZM83.193 142.955C82.0072 146.434 81.2832 149.717 81.2832 152.671H91.2832C91.2832 151.245 91.654 149.127 92.6581 146.182L83.193 142.955ZM81.2832 152.671C81.2832 155.268 82.0019 158.226 84.4768 160.32L90.9363 152.686C91.0459 152.779 91.1388 152.884 91.2104 152.989C91.2806 153.091 91.3142 153.17 91.3261 153.202C91.3372 153.232 91.3258 153.211 91.3119 153.122C91.2979 153.033 91.2832 152.886 91.2832 152.671H81.2832ZM84.8392 160.599C86.3133 161.631 88.0655 162.27 90.0059 162.27V152.27C90.1452 152.27 90.2866 152.294 90.41 152.335C90.5288 152.374 90.5838 152.414 90.5739 152.407L84.8392 160.599ZM90.0059 162.27C93.9837 162.27 97.2668 159.872 99.785 157.186L92.4896 150.346C91.6218 151.272 90.9465 151.787 90.4814 152.053C90.0353 152.308 89.8987 152.27 90.0059 152.27V162.27ZM99.7816 157.189C102.283 154.527 104.686 151.402 107.004 147.848L98.6282 142.385C96.5664 145.546 94.5175 148.188 92.4931 150.343L99.7816 157.189ZM107.031 147.806C109.253 144.326 111.366 140.878 113.369 137.465L104.745 132.403C102.807 135.704 100.759 139.046 98.6016 142.426L107.031 147.806ZM113.365 137.472C115.741 133.439 117.651 130.466 119.111 128.474L111.047 122.561C109.296 124.949 107.191 128.253 104.749 132.395L113.365 137.472ZM118.734 128.929C118.999 128.646 119.099 128.609 119.013 128.657C118.903 128.718 118.557 128.875 118.035 128.875V118.875C115.074 118.875 112.856 120.571 111.424 122.106L118.734 128.929ZM118.035 128.875C117.8 128.875 117.462 128.834 117.082 128.682C116.695 128.527 116.377 128.303 116.142 128.068L123.213 120.997C121.776 119.56 119.929 118.875 118.035 118.875V128.875ZM116.424 128.328C116.262 128.19 115.999 127.917 115.78 127.48C115.553 127.025 115.444 126.531 115.444 126.065H125.444C125.444 123.791 124.363 121.963 122.932 120.736L116.424 128.328ZM115.541 125.084L115.432 125.632L125.238 127.593L125.347 127.046L115.541 125.084ZM115.506 125.315C114.082 130.614 113.364 135.94 113.364 141.284H123.364C123.364 136.847 123.959 132.392 125.163 127.91L115.506 125.315ZM113.364 141.284C113.364 145.818 114.015 150.05 115.965 153.3C118.16 156.958 121.707 158.876 125.919 158.876V148.876C125.368 148.876 125.129 148.766 125.042 148.718C124.961 148.673 124.779 148.554 124.54 148.155C123.972 147.209 123.364 145.144 123.364 141.284H113.364ZM126.503 158.841L128.364 158.622L127.196 148.691L125.335 148.91L126.503 158.841ZM128.96 158.515C135.353 156.963 140.985 153.019 145.916 147.28L138.331 140.763C134.357 145.389 130.426 147.869 126.6 148.798L128.96 158.515ZM145.916 147.28C150.503 141.94 154.264 136.853 157.147 132.021L148.56 126.897C146.041 131.117 142.648 135.738 138.331 140.763L145.916 147.28ZM156.8 132.529C156.701 132.657 156.461 132.917 156.041 133.139C155.602 133.372 155.132 133.474 154.715 133.474V123.474C152.212 123.474 150.214 124.708 148.907 126.389L156.8 132.529ZM154.715 133.474C154.192 133.474 153.876 133.348 153.843 133.335L157.557 124.05C156.794 123.745 155.821 123.474 154.715 123.474V133.474ZM152.378 132.43C152.369 132.421 152.196 132.267 152.02 131.935C151.83 131.576 151.686 131.097 151.686 130.554H161.686C161.686 128.03 160.367 126.151 159.022 124.956L152.378 132.43ZM151.686 130.554C151.686 129.871 151.901 129.358 152.07 129.077L160.645 134.221C161.251 133.21 161.686 131.967 161.686 130.554H151.686ZM152.114 129.005C149.244 133.61 145.536 138.007 140.947 142.186L147.679 149.58C152.871 144.853 157.193 139.761 160.601 134.293L152.114 129.005ZM140.919 142.211C136.596 146.207 131.984 148.9 127.076 150.411L130.017 159.968C136.496 157.975 142.396 154.464 147.707 149.555L140.919 142.211ZM127.173 150.382C125.441 150.877 124.091 151.065 123.072 151.065V161.065C125.265 161.065 127.565 160.67 129.92 159.997L127.173 150.382ZM123.072 151.065C120.519 151.065 119.232 150.282 118.381 149.179L110.463 155.287C113.554 159.294 118.034 161.065 123.072 161.065V151.065ZM118.381 149.179C117.27 147.738 116.466 145.525 116.466 142.051H106.466C106.466 147.044 107.633 151.618 110.463 155.287L118.381 149.179ZM116.459 142.313L116.569 140.233L106.582 139.707L106.473 141.788L116.459 142.313ZM107.415 137.197C106.254 138.939 104.495 141.218 102.072 144.068L109.692 150.544C112.233 147.555 114.269 144.944 115.736 142.744L107.415 137.197ZM102.025 144.124C99.8487 146.762 97.4099 149.135 94.7033 151.248L100.856 159.131C104.135 156.572 107.098 153.69 109.739 150.488L102.025 144.124ZM94.7033 151.248C92.2969 153.126 90.4308 153.693 89.0204 153.693V163.693C93.3035 163.693 97.277 161.924 100.856 159.131L94.7033 151.248ZM89.0204 153.693C88.7982 153.693 88.5518 153.661 88.2674 153.576L85.3939 163.154C86.5693 163.506 87.7828 163.693 89.0204 163.693V153.693ZM88.4118 153.621C87.9458 153.466 87.7242 153.268 87.5187 152.893C87.2394 152.385 86.9036 151.332 86.9036 149.386H76.9036C76.9036 152.331 77.3889 155.22 78.752 157.704C80.1888 160.323 82.4308 162.168 85.2495 163.108L88.4118 153.621ZM86.9036 149.386C86.9036 143.456 89.0011 135.705 93.7373 125.949L84.7415 121.582C79.6966 131.973 76.9036 141.303 76.9036 149.386H86.9036ZM93.7422 125.939C94.2654 124.856 94.6895 123.941 94.992 123.228C95.1406 122.877 95.2887 122.508 95.4082 122.158C95.4449 122.051 95.7723 121.172 95.7723 120.152H85.7723C85.7723 119.83 85.8055 119.578 85.827 119.441C85.8504 119.292 85.8764 119.178 85.8927 119.112C85.9098 119.042 85.9244 118.992 85.9321 118.967C85.9363 118.953 85.9396 118.943 85.9416 118.936C85.9436 118.93 85.9447 118.927 85.9447 118.927C85.9447 118.927 85.9439 118.929 85.942 118.935C85.9402 118.94 85.9375 118.947 85.9338 118.957C85.9265 118.977 85.9162 119.004 85.9024 119.039C85.8745 119.11 85.8364 119.203 85.7862 119.322C85.5777 119.813 85.2353 120.559 84.7367 121.592L93.7422 125.939ZM88.2233 115.851C85.2436 117.617 82.0829 121.328 78.8203 125.896L86.9576 131.708C90.2645 127.079 92.3594 125.024 93.3213 124.454L88.2233 115.851ZM78.7898 125.939C75.5125 130.632 71.8129 136.294 67.6946 142.913L76.1852 148.196C80.2422 141.676 83.842 136.17 86.9882 131.665L78.7898 125.939ZM67.7088 142.89C64.0112 148.763 60.0569 154.858 55.8452 161.175L64.1657 166.722C68.4213 160.339 72.4233 154.171 76.1711 148.218L67.7088 142.89ZM55.8601 161.153C51.7039 167.316 47.4491 173.071 43.0971 178.422L50.8551 184.732C55.4083 179.133 59.8398 173.137 64.1508 166.744L55.8601 161.153ZM43.0971 178.422C38.8353 183.662 34.6663 187.772 30.6078 190.833L36.6287 198.817C41.4754 195.162 46.2117 190.441 50.8551 184.732L43.0971 178.422ZM30.535 190.889C26.7394 193.862 23.5254 194.971 20.8079 194.971V204.971C26.4116 204.971 31.7379 202.649 36.7016 198.761L30.535 190.889ZM141.247 175.883L140.123 180.755L140.678 180.883H141.247V175.883ZM139.824 175.555L140.948 170.683L140.393 170.555H139.824V175.555ZM138.948 175.226L141.948 171.226L140.615 170.226H138.948V175.226ZM138.839 175.226H133.839V180.226H138.839V175.226ZM138.839 175.117H143.839V170.117H138.839V175.117ZM138.729 175.117H133.729V180.117H138.729V175.117ZM138.729 175.007H143.729V170.007H138.729V175.007ZM138.62 175.007L133.876 176.588L135.016 180.007H138.62V175.007ZM138.51 174.679L143.254 173.098L142.114 169.679H138.51V174.679ZM138.401 174.679H133.401V179.679H138.401V174.679ZM138.401 174.569H143.401V169.569H138.401V174.569ZM138.291 174.569H133.291V179.569H138.291V174.569ZM138.291 174.241H143.291V171.151L140.527 169.769L138.291 174.241ZM138.072 174.131H133.072V177.221L135.836 178.603L138.072 174.131ZM138.072 172.927V167.927H133.072V172.927H138.072ZM138.291 172.927V177.927H143.291V172.927H138.291ZM138.291 172.598V167.598H133.291V172.598H138.291ZM138.401 172.598V177.598H142.004L143.144 174.18L138.401 172.598ZM138.51 172.27L134.414 169.403L133.997 169.999L133.767 170.689L138.51 172.27ZM152.306 152.562L156.402 155.429L157.735 153.525L157.139 151.279L152.306 152.562ZM150.773 140.956H145.773V141L145.774 141.043L150.773 140.956ZM151.868 125.518L156.798 126.353L156.805 126.312L156.811 126.272L151.868 125.518ZM154.058 116.32L149.898 113.547L149.656 113.909L149.481 114.307L154.058 116.32ZM161.065 115.773L158.53 120.083L158.627 120.139L158.726 120.192L161.065 115.773ZM162.926 118.182L167.734 119.555L167.926 118.882V118.182H162.926ZM162.708 118.948L167.247 121.043L167.409 120.693L167.515 120.322L162.708 118.948ZM159.97 128.474L155.08 127.432L155.072 127.47L155.064 127.509L159.97 128.474ZM158.437 142.817L153.439 142.674L153.437 142.746V142.817H158.437ZM158.437 143.474H153.437V160.908L162.677 146.124L158.437 143.474ZM159.532 141.722L155.416 138.883L155.352 138.976L155.292 139.072L159.532 141.722ZM171.029 124.861L175.179 127.648L175.189 127.634L175.198 127.62L171.029 124.861ZM177.051 115.663L181.291 118.313L181.359 118.204L181.422 118.092L177.051 115.663ZM179.788 115.006L177.216 119.294L178.403 120.006H179.788V115.006ZM179.898 115.006L183.05 111.126L181.673 110.006H179.898V115.006ZM179.022 121.795L175.022 118.795L174.991 118.835L174.962 118.877L179.022 121.795ZM173.109 130.007L169.053 127.083L169.046 127.092L173.109 130.007ZM166.43 139.204L162.405 136.238L162.398 136.247L162.391 136.256L166.43 139.204ZM162.926 144.131L167.04 146.973L167.106 146.878L167.166 146.781L162.926 144.131ZM158.766 150.153L154.652 147.311L153.586 148.854L153.798 150.717L158.766 150.153ZM160.408 158.255L155.665 159.836L155.688 159.907L155.714 159.976L160.408 158.255ZM163.693 161.978L162.663 166.871L162.9 166.92L163.141 166.947L163.693 161.978ZM164.678 162.087L164.126 167.057L164.401 167.087H164.678V162.087ZM173.438 158.146L176.561 162.05L176.587 162.029L176.613 162.008L173.438 158.146ZM182.963 148.948L179.235 145.617L182.963 148.948ZM190.737 139.861L186.913 136.64L186.877 136.682L186.843 136.724L190.737 139.861ZM193.584 136.576L197.284 139.939L197.34 139.878L197.394 139.814L193.584 136.576ZM199.058 130.883L202.058 134.883L202.343 134.669L202.594 134.418L199.058 130.883ZM201.905 131.102L205.746 127.901L205.601 127.726L205.441 127.566L201.905 131.102ZM201.577 134.058L198.577 130.058L198.552 130.076L198.528 130.095L201.577 134.058ZM196.65 139.313L192.825 136.093L192.784 136.141L192.745 136.19L196.65 139.313ZM195.445 140.737L191.682 137.444L191.648 137.484L191.614 137.524L195.445 140.737ZM187.233 149.715L183.628 146.251L183.61 146.269L183.592 146.288L187.233 149.715ZM175.627 159.898L172.695 155.848L172.678 155.86L172.661 155.872L175.627 159.898ZM153.839 157.27L158.36 155.135L154.584 147.138L149.679 154.496L153.839 157.27ZM150.226 162.416L146.254 159.379L146.248 159.386L150.226 162.416ZM147.269 167.014L151.557 169.587L151.631 169.463L151.699 169.334L147.269 167.014ZM144.423 174.022L148.895 176.258L149.069 175.909L149.187 175.538L144.423 174.022ZM142.671 175.774L143.378 180.723L143.971 180.639L144.528 180.416L142.671 175.774ZM142.372 171.011L140.948 170.683L138.7 180.427L140.123 180.755L142.372 171.011ZM139.824 170.555C140.86 170.555 141.594 170.961 141.948 171.226L135.948 179.226C136.886 179.93 138.205 180.555 139.824 180.555V170.555ZM138.948 170.226H138.839V180.226H138.948V170.226ZM143.839 175.226V175.117H133.839V175.226H143.839ZM138.839 170.117H138.729V180.117H138.839V170.117ZM143.729 175.117V175.007H133.729V175.117H143.729ZM138.729 170.007H138.62V180.007H138.729V170.007ZM143.363 173.426L143.254 173.098L133.767 176.26L133.876 176.588L143.363 173.426ZM138.51 169.679H138.401V179.679H138.51V169.679ZM143.401 174.679V174.569H133.401V174.679H143.401ZM138.401 169.569H138.291V179.569H138.401V169.569ZM143.291 174.569V174.241H133.291V174.569H143.291ZM140.527 169.769L140.308 169.659L135.836 178.603L136.055 178.713L140.527 169.769ZM143.072 174.131V172.927H133.072V174.131H143.072ZM138.072 177.927H138.291V167.927H138.072V177.927ZM143.291 172.927V172.598H133.291V172.927H143.291ZM138.291 177.598H138.401V167.598H138.291V177.598ZM143.144 174.18L143.254 173.851L133.767 170.689L133.657 171.017L143.144 174.18ZM142.606 175.137L156.402 155.429L148.21 149.694L134.414 169.403L142.606 175.137ZM157.139 151.279C156.305 148.138 155.839 144.674 155.772 140.868L145.774 141.043C145.853 145.558 146.409 149.832 147.473 153.844L157.139 151.279ZM155.773 140.956V139.313H145.773V140.956H155.773ZM155.773 139.313C155.773 134.67 156.12 130.353 156.798 126.353L146.938 124.682C146.156 129.295 145.773 134.175 145.773 139.313H155.773ZM156.811 126.272C157.461 122.011 158.117 119.51 158.634 118.334L149.481 114.307C148.393 116.78 147.589 120.41 146.925 124.764L156.811 126.272ZM158.218 119.094C158.163 119.176 157.996 119.375 157.696 119.53C157.407 119.679 157.208 119.678 157.233 119.678V109.678C154.282 109.678 151.613 110.974 149.898 113.547L158.218 119.094ZM157.233 119.678C157.571 119.678 157.982 119.76 158.53 120.083L163.6 111.463C161.667 110.326 159.522 109.678 157.233 109.678V119.678ZM158.726 120.192C158.943 120.307 158.764 120.26 158.505 119.925C158.365 119.745 158.212 119.491 158.097 119.167C157.981 118.838 157.926 118.501 157.926 118.182H167.926C167.926 114.567 165.41 112.416 163.405 111.354L158.726 120.192ZM158.119 116.808L157.9 117.574L167.515 120.322L167.734 119.555L158.119 116.808ZM158.168 116.853C157.042 119.293 156.038 122.938 155.08 127.432L164.86 129.516C165.801 125.105 166.622 122.399 167.247 121.043L158.168 116.853ZM155.064 127.509C154.129 132.264 153.592 137.322 153.439 142.674L163.435 142.96C163.574 138.092 164.06 133.589 164.876 129.439L155.064 127.509ZM153.437 142.817V143.474H163.437V142.817H153.437ZM162.677 146.124L163.772 144.372L155.292 139.072L154.197 140.824L162.677 146.124ZM163.648 144.561C168.036 138.198 171.88 132.56 175.179 127.648L166.878 122.073C163.608 126.942 159.788 132.545 155.416 138.883L163.648 144.561ZM175.198 127.62C178.468 122.679 180.518 119.55 181.291 118.313L172.811 113.013C172.124 114.113 170.159 117.115 166.859 122.101L175.198 127.62ZM181.422 118.092C181.254 118.393 180.91 118.851 180.308 119.212C179.698 119.577 179.102 119.678 178.693 119.678V109.678C177.554 109.678 176.32 109.943 175.163 110.637C174.013 111.327 173.212 112.277 172.68 113.235L181.422 118.092ZM178.693 119.678C178.011 119.678 177.497 119.463 177.216 119.294L182.36 110.719C181.349 110.112 180.106 109.678 178.693 109.678V119.678ZM179.788 120.006H179.898V110.006H179.788V120.006ZM176.745 118.887C177.035 119.123 177.039 119.19 176.953 119.05C176.846 118.876 176.649 118.455 176.649 117.853H186.649C186.649 114.696 184.703 112.469 183.05 111.126L176.745 118.887ZM176.649 117.853V118.182H186.649V117.853H176.649ZM176.649 118.182C176.649 117.613 176.748 117.172 176.801 116.961C176.862 116.72 176.93 116.529 176.974 116.412C177.062 116.182 177.148 116.01 177.186 115.935C177.268 115.775 177.337 115.663 177.35 115.642C177.388 115.58 177.402 115.562 177.361 115.621C177.292 115.722 177.16 115.908 176.949 116.199C176.533 116.77 175.894 117.632 175.022 118.795L183.022 124.795C183.901 123.622 184.576 122.713 185.036 122.081C185.262 121.769 185.459 121.494 185.609 121.276C185.678 121.175 185.774 121.033 185.867 120.883C185.907 120.816 185.997 120.669 186.092 120.482C186.137 120.394 186.228 120.211 186.319 119.972C186.352 119.887 186.649 119.157 186.649 118.182H176.649ZM174.962 118.877C173.284 121.21 171.315 123.945 169.053 127.083L177.165 132.931C179.429 129.791 181.401 127.051 183.082 124.713L174.962 118.877ZM169.046 127.092C166.648 130.436 164.434 133.484 162.405 136.238L170.455 142.17C172.514 139.376 174.753 136.293 177.172 132.921L169.046 127.092ZM162.391 136.256C160.473 138.885 159.171 140.706 158.686 141.481L167.166 146.781C167.412 146.388 168.445 144.925 170.469 142.151L162.391 136.256ZM158.813 141.289L154.652 147.311L162.88 152.995L167.04 146.973L158.813 141.289ZM153.798 150.717C154.188 154.149 154.791 157.215 155.665 159.836L165.152 156.674C164.566 154.916 164.074 152.58 163.734 149.588L153.798 150.717ZM155.714 159.976C156.716 162.709 158.712 166.039 162.663 166.871L164.723 157.085C164.958 157.135 165.168 157.224 165.335 157.327C165.495 157.426 165.572 157.51 165.581 157.52C165.587 157.527 165.533 157.467 165.44 157.299C165.348 157.132 165.231 156.884 165.103 156.534L155.714 159.976ZM163.141 166.947L164.126 167.057L165.23 157.118L164.245 157.008L163.141 166.947ZM164.678 167.087C168.898 167.087 172.918 164.964 176.561 162.05L170.314 154.241C167.388 156.583 165.568 157.087 164.678 157.087V167.087ZM176.613 162.008C180.111 159.132 183.469 155.886 186.692 152.28L179.235 145.617C176.326 148.872 173.334 151.758 170.262 154.284L176.613 162.008ZM186.692 152.28C189.795 148.807 192.445 145.71 194.631 142.997L186.843 136.724C184.795 139.267 182.263 142.229 179.235 145.617L186.692 152.28ZM194.562 143.081C195.712 141.716 196.615 140.675 197.284 139.939L189.884 133.213C189.093 134.083 188.098 135.232 186.913 136.64L194.562 143.081ZM197.394 139.814C199.901 136.864 201.396 135.379 202.058 134.883L196.058 126.883C194.384 128.138 192.23 130.448 189.774 133.338L197.394 139.814ZM202.594 134.418C202.423 134.589 202.132 134.829 201.702 135.024C201.258 135.226 200.763 135.335 200.263 135.335V125.335C198.264 125.335 196.645 126.225 195.523 127.347L202.594 134.418ZM200.263 135.335C199.799 135.335 199.362 135.228 198.997 135.058C198.65 134.896 198.447 134.715 198.37 134.637L205.441 127.566C204.228 126.353 202.473 125.335 200.263 125.335V135.335ZM198.064 134.302C197.909 134.117 197.453 133.461 197.453 132.415H207.453C207.453 130.494 206.631 128.962 205.746 127.901L198.064 134.302ZM197.453 132.415C197.453 131.973 197.559 131.459 197.822 130.966C198.076 130.49 198.386 130.201 198.577 130.058L204.577 138.058C206.259 136.796 207.453 134.837 207.453 132.415H197.453ZM198.528 130.095C197.079 131.21 195.098 133.393 192.825 136.093L200.474 142.534C202.872 139.686 204.177 138.366 204.625 138.021L198.528 130.095ZM192.745 136.19C192.519 136.472 192.172 136.885 191.682 137.444L199.208 144.029C199.74 143.421 200.196 142.884 200.554 142.437L192.745 136.19ZM191.614 137.524C189.823 139.66 187.175 142.559 183.628 146.251L190.839 153.179C194.445 149.425 197.272 146.339 199.276 143.95L191.614 137.524ZM183.592 146.288C180.309 149.776 176.679 152.963 172.695 155.848L178.56 163.947C183.043 160.701 187.15 157.099 190.874 153.142L183.592 146.288ZM172.661 155.872C169.054 158.53 166.096 159.496 163.693 159.496V169.496C168.882 169.496 173.879 167.396 178.593 163.923L172.661 155.872ZM163.693 159.496C162.709 159.496 161.831 159.24 160.95 158.666L155.487 167.042C157.964 168.657 160.735 169.496 163.693 169.496V159.496ZM160.95 158.666C160.32 158.255 159.373 157.281 158.36 155.135L149.318 159.405C150.786 162.514 152.759 165.263 155.487 167.042L160.95 158.666ZM149.679 154.496C148.244 156.648 147.108 158.262 146.254 159.379L154.197 165.453C155.241 164.088 156.514 162.271 157.999 160.043L149.679 154.496ZM146.248 159.386C144.929 161.117 143.787 162.886 142.84 164.694L151.699 169.334C152.357 168.077 153.186 166.78 154.203 165.446L146.248 159.386ZM142.982 164.442C141.796 166.419 140.707 169.21 139.658 172.506L149.187 175.538C150.182 172.41 150.991 170.53 151.557 169.587L142.982 164.442ZM139.95 171.786C139.928 171.83 139.97 171.732 140.121 171.581C140.283 171.419 140.519 171.249 140.814 171.131L144.528 180.416C146.655 179.565 148.049 177.949 148.895 176.258L139.95 171.786ZM141.964 170.824C141.647 170.869 141.411 170.883 141.247 170.883V180.883C141.959 180.883 142.673 180.824 143.378 180.723L141.964 170.824ZM277.891 159.131L280.759 155.035L280.741 155.023L280.724 155.011L277.891 159.131ZM277.125 146.321L272.23 145.301L272.222 145.341L272.214 145.38L277.125 146.321ZM279.534 135.481L274.683 134.268L274.675 134.302L274.667 134.336L279.534 135.481ZM281.943 124.751L277.036 123.791L281.943 124.751ZM282.162 113.583L285.697 110.048L283.943 108.294L281.486 108.629L282.162 113.583ZM276.687 117.744L272.783 114.62L272.755 114.655L272.728 114.69L276.687 117.744ZM270.008 127.16L265.848 124.386L265.822 124.425L265.797 124.465L270.008 127.16ZM257.964 143.474L254.132 140.263L254.119 140.278L254.106 140.294L257.964 143.474ZM242.855 155.08L244.583 159.772L244.679 159.736L244.773 159.697L242.855 155.08ZM226.54 152.89L222.736 156.135L222.763 156.167L222.791 156.198L226.54 152.89ZM223.365 142.379L218.374 142.085L218.365 142.232V142.379H223.365ZM223.475 140.518L228.466 140.811L229.55 122.391L219.314 137.744L223.475 140.518ZM217.781 147.854L213.972 144.615L213.948 144.643L213.924 144.672L217.781 147.854ZM209.679 155.737L206.603 151.795L206.579 151.814L206.555 151.833L209.679 155.737ZM198.949 158.912L197.306 163.635L197.408 163.67L197.512 163.701L198.949 158.912ZM200.153 126.612L195.681 124.376L195.648 124.443L195.617 124.51L200.153 126.612ZM205.299 125.955L202.727 130.243L202.891 130.342L203.063 130.428L205.299 125.955ZM206.175 128.583L210.706 130.698L210.765 130.571L210.818 130.44L206.175 128.583ZM203.438 135.043L198.81 133.15L198.799 133.177L198.788 133.205L203.438 135.043ZM199.715 145.445L194.963 143.891L194.954 143.92L194.945 143.948L199.715 145.445ZM216.029 144.021L220.093 146.935L220.106 146.917L220.118 146.899L216.029 144.021ZM223.146 132.963L218.851 130.404L218.83 130.438L218.811 130.472L223.146 132.963ZM226.978 125.627L222.66 123.108L222.418 123.522L222.259 123.975L226.978 125.627ZM231.358 124.97L228.585 129.13L228.684 129.196L228.786 129.258L231.358 124.97ZM232.453 126.612L237.304 127.825L237.453 127.228V126.612H232.453ZM232.343 127.05L237.165 128.373L237.18 128.318L237.194 128.263L232.343 127.05ZM238.475 154.204V159.204H238.715L238.955 159.181L238.475 154.204ZM254.898 144.788L258.691 148.046L258.699 148.037L258.707 148.028L254.898 144.788ZM266.285 129.131L270.538 131.761L270.549 131.742L270.561 131.724L266.285 129.131ZM274.059 117.853L270.181 114.697L270.173 114.707L274.059 117.853ZM281.724 113.145V118.145H281.95L282.176 118.125L281.724 113.145ZM282.928 113.036V108.036H282.701L282.475 108.056L282.928 113.036ZM287.089 134.167L291.874 135.617L291.877 135.607L291.88 135.597L287.089 134.167ZM282.709 147.416L287.398 149.152L287.403 149.138L287.408 149.124L282.709 147.416ZM279.972 155.956L275.077 154.936L284.325 158.416L279.972 155.956ZM282.819 150.919L287.171 153.38L287.179 153.366L287.187 153.352L282.819 150.919ZM293.001 133.62L288.776 130.946L288.764 130.965L288.752 130.984L293.001 133.62ZM304.826 118.072L301.291 114.537L301.218 114.61L301.148 114.686L304.826 118.072ZM313.147 120.481L309.201 123.551L309.264 123.632L309.33 123.711L313.147 120.481ZM314.352 121.904L318.544 119.179L318.372 118.915L318.169 118.675L314.352 121.904ZM317.527 126.065L313.79 129.387L313.888 129.497L313.991 129.601L317.527 126.065ZM324.534 126.612L327.658 130.517L324.534 126.612ZM327.272 126.941L323.475 130.195L323.6 130.341L323.736 130.476L327.272 126.941ZM327.053 129.897L330.156 133.817L330.253 133.741L330.345 133.66L327.053 129.897ZM317.418 130.226L320.541 126.321L317.418 130.226ZM310.41 121.466L314.684 118.871L314.674 118.855L314.664 118.839L310.41 121.466ZM307.344 117.744V112.744H305.009L303.51 114.535L307.344 117.744ZM289.826 146.54L294.265 148.841L294.269 148.833L294.273 148.825L289.826 146.54ZM284.132 157.16L288.42 159.733L288.46 159.666L288.498 159.597L284.132 157.16ZM280.191 154.898C280.33 154.898 280.471 154.921 280.595 154.962C280.714 155.002 280.769 155.042 280.759 155.035L275.024 163.227C276.498 164.259 278.25 164.898 280.191 164.898V154.898ZM280.724 155.011C280.862 155.106 280.984 155.223 281.079 155.345C281.171 155.464 281.21 155.553 281.22 155.577C281.228 155.597 281.207 155.551 281.184 155.41C281.161 155.269 281.14 155.055 281.14 154.751H271.14C271.14 157.658 271.955 161.117 275.059 163.251L280.724 155.011ZM281.14 154.751C281.14 153.006 281.408 150.541 282.036 147.261L272.214 145.38C271.528 148.961 271.14 152.117 271.14 154.751H281.14ZM282.02 147.34C282.741 143.881 283.534 140.31 284.401 136.626L274.667 134.336C273.782 138.098 272.969 141.753 272.23 145.301L282.02 147.34ZM284.385 136.694C285.351 132.826 286.174 129.164 286.85 125.711L277.036 123.791C276.397 127.053 275.614 130.545 274.683 134.268L284.385 136.694ZM286.85 125.711C287.533 122.218 287.928 119.158 287.928 116.649H277.928C277.928 118.227 277.666 120.569 277.036 123.791L286.85 125.711ZM287.928 116.649C287.928 115.641 287.848 114.563 287.587 113.52C287.334 112.508 286.822 111.172 285.697 110.048L278.626 117.119C278.311 116.803 278.126 116.5 278.025 116.298C277.925 116.099 277.891 115.967 277.886 115.945C277.88 115.922 277.892 115.964 277.905 116.092C277.918 116.218 277.928 116.401 277.928 116.649H287.928ZM281.486 108.629C277.818 109.129 274.928 111.939 272.783 114.62L280.591 120.867C281.456 119.786 282.135 119.132 282.614 118.768C283.109 118.392 283.17 118.492 282.837 118.537L281.486 108.629ZM272.728 114.69C270.666 117.363 268.371 120.601 265.848 124.386L274.168 129.933C276.609 126.273 278.766 123.234 280.646 120.798L272.728 114.69ZM265.797 124.465C262.417 129.745 258.531 135.011 254.132 140.263L261.797 146.685C266.448 141.133 270.592 135.524 274.22 129.855L265.797 124.465ZM254.106 140.294C250.094 145.16 245.696 148.485 240.936 150.463L244.773 159.697C251.254 157.004 256.929 152.591 261.822 146.654L254.106 140.294ZM241.126 150.388C238.745 151.265 236.823 151.613 235.3 151.613V161.613C238.302 161.613 241.416 160.938 244.583 159.772L241.126 150.388ZM235.3 151.613C232.919 151.613 231.426 150.87 230.29 149.582L222.791 156.198C226.034 159.874 230.381 161.613 235.3 161.613V151.613ZM230.345 149.645C229.253 148.365 228.365 146.174 228.365 142.379H218.365C218.365 147.636 219.595 152.452 222.736 156.135L230.345 149.645ZM228.357 142.673L228.466 140.811L218.483 140.224L218.374 142.085L228.357 142.673ZM219.314 137.744C218.153 139.486 216.394 141.765 213.972 144.615L221.591 151.092C224.132 148.102 226.168 145.491 227.635 143.291L219.314 137.744ZM213.924 144.672C211.748 147.31 209.309 149.683 206.603 151.795L212.755 159.678C216.034 157.119 218.997 154.237 221.638 151.035L213.924 144.672ZM206.555 151.833C204.215 153.705 202.437 154.241 201.139 154.241V164.241C205.387 164.241 209.304 162.44 212.802 159.641L206.555 151.833ZM201.139 154.241C200.916 154.241 200.67 154.208 200.386 154.123L197.512 163.701C198.688 164.054 199.901 164.241 201.139 164.241V154.241ZM200.591 154.19C200.041 153.998 199.771 153.748 199.545 153.341C199.251 152.811 198.912 151.752 198.912 149.824H188.912C188.912 152.788 189.413 155.689 190.798 158.188C192.251 160.81 194.499 162.658 197.306 163.635L200.591 154.19ZM198.912 149.824C198.912 144.333 200.69 137.346 204.69 128.715L195.617 124.51C191.295 133.835 188.912 142.322 188.912 149.824H198.912ZM204.625 128.848C204.494 129.111 204.306 129.379 204.057 129.621C203.81 129.862 203.553 130.027 203.33 130.135C202.909 130.337 202.684 130.299 202.89 130.299V120.299C200.511 120.299 197.305 121.128 195.681 124.376L204.625 128.848ZM202.89 130.299C202.907 130.299 202.883 130.3 202.834 130.287C202.784 130.273 202.745 130.254 202.727 130.243L207.872 121.668C206.341 120.75 204.645 120.299 202.89 120.299V130.299ZM203.063 130.428C202.835 130.314 202.364 130.018 201.96 129.413C201.536 128.777 201.394 128.108 201.394 127.598H211.394C211.394 126.358 211.07 125.05 210.281 123.866C209.512 122.714 208.493 121.962 207.535 121.483L203.063 130.428ZM201.394 127.598C201.394 127.075 201.52 126.76 201.533 126.726L210.818 130.44C211.123 129.677 211.394 128.705 211.394 127.598H201.394ZM201.644 126.469C201.074 127.69 200.118 129.953 198.81 133.15L208.066 136.936C209.386 133.71 210.254 131.666 210.706 130.698L201.644 126.469ZM198.788 133.205C197.504 136.453 196.23 140.016 194.963 143.891L204.468 146.998C205.683 143.282 206.89 139.911 208.088 136.881L198.788 133.205ZM194.945 143.948C193.706 147.895 192.963 151.51 192.963 154.642H202.963C202.963 152.956 203.388 150.44 204.486 146.941L194.945 143.948ZM192.963 154.642C192.963 156.319 193.232 158.47 194.536 160.317C196.064 162.483 198.377 163.365 200.591 163.365V153.365C200.742 153.365 201.114 153.392 201.577 153.611C202.064 153.841 202.45 154.189 202.705 154.551C202.938 154.881 202.994 155.122 202.995 155.125C202.995 155.127 202.963 154.984 202.963 154.642H192.963ZM200.591 163.365C204.758 163.365 208.404 160.545 211.289 157.584L204.127 150.605C202.922 151.842 201.971 152.593 201.276 153.01C200.568 153.434 200.376 153.365 200.591 153.365V163.365ZM211.289 157.584C214.268 154.527 217.201 150.969 220.093 146.935L211.966 141.108C209.311 144.811 206.696 147.969 204.127 150.605L211.289 157.584ZM220.118 146.899C222.962 142.858 225.42 139.042 227.482 135.453L218.811 130.472C216.93 133.745 214.644 137.302 211.94 141.144L220.118 146.899ZM227.442 135.522C229.471 132.116 231 129.273 231.698 127.279L222.259 123.975C221.935 124.9 220.909 126.949 218.851 130.404L227.442 135.522ZM231.297 128.146C231.21 128.296 230.965 128.639 230.482 128.929C229.983 129.228 229.493 129.313 229.168 129.313V119.313C226.297 119.313 223.991 120.824 222.66 123.108L231.297 128.146ZM229.168 129.313C229.109 129.313 229.007 129.304 228.881 129.266C228.755 129.229 228.653 129.176 228.585 129.13L234.132 120.81C232.639 119.815 230.94 119.313 229.168 119.313V129.313ZM228.786 129.258C228.695 129.203 228.349 128.978 228.019 128.483C227.655 127.936 227.453 127.273 227.453 126.612H237.453C237.453 123.678 235.658 121.719 233.93 120.683L228.786 129.258ZM227.602 125.4L227.493 125.838L237.194 128.263L237.304 127.825L227.602 125.4ZM227.521 125.728C226.161 130.689 225.482 135.769 225.482 140.956H235.482C235.482 136.653 236.044 132.463 237.165 128.373L227.521 125.728ZM225.482 140.956C225.482 145.711 226.17 150.112 228.199 153.475C230.472 157.243 234.13 159.204 238.475 159.204V149.204C237.846 149.204 237.54 149.079 237.396 149C237.26 148.924 237.034 148.761 236.762 148.309C236.126 147.256 235.482 145.032 235.482 140.956H225.482ZM238.955 159.181C246.582 158.446 253.166 154.478 258.691 148.046L251.106 141.53C246.849 146.485 242.484 148.794 237.995 149.227L238.955 159.181ZM258.707 148.028C263.033 142.942 266.977 137.519 270.538 131.761L262.033 126.501C258.733 131.838 255.085 136.852 251.09 141.548L258.707 148.028ZM270.561 131.724C273.179 127.407 275.642 123.844 277.946 120.999L270.173 114.707C267.513 117.993 264.794 121.949 262.01 126.538L270.561 131.724ZM277.937 121.01C280.096 118.357 281.373 118.145 281.724 118.145V108.145C276.965 108.145 273.132 111.072 270.181 114.697L277.937 121.01ZM282.176 118.125L283.381 118.015L282.475 108.056L281.271 108.166L282.176 118.125ZM282.928 118.036C283.455 118.036 283.682 118.121 283.727 118.14C283.742 118.147 283.724 118.133 283.736 118.147C283.823 118.26 284.278 119.016 284.278 121.247H294.278C294.278 118.005 293.675 114.654 291.646 112.03C289.428 109.162 286.208 108.036 282.928 108.036V118.036ZM284.278 121.247C284.278 124.344 283.666 128.152 282.298 132.737L291.88 135.597C293.431 130.402 294.278 125.596 294.278 121.247H284.278ZM282.304 132.717C280.866 137.463 279.434 141.791 278.01 145.707L287.408 149.124C288.904 145.011 290.392 140.507 291.874 135.617L282.304 132.717ZM278.02 145.679C276.558 149.627 275.525 152.783 275.077 154.936L284.867 156.976C285.148 155.625 285.94 153.087 287.398 149.152L278.02 145.679ZM284.325 158.416L287.171 153.38L278.466 148.459L275.619 153.496L284.325 158.416ZM287.187 153.352C290.359 147.656 293.714 141.957 297.25 136.255L288.752 130.984C285.135 136.816 281.701 142.65 278.45 148.486L287.187 153.352ZM297.226 136.294C300.73 130.758 304.492 125.818 308.505 121.459L301.148 114.686C296.693 119.524 292.572 124.949 288.776 130.946L297.226 136.294ZM308.362 121.608C308.613 121.356 308.709 121.322 308.633 121.361C308.535 121.412 308.235 121.539 307.782 121.539V111.539C304.954 111.539 302.768 113.059 301.291 114.537L308.362 121.608ZM307.782 121.539C307.102 121.539 306.908 121.256 307.313 121.554C307.7 121.839 308.335 122.438 309.201 123.551L317.094 117.411C315.916 115.896 314.635 114.525 313.234 113.495C311.851 112.479 309.995 111.539 307.782 111.539V121.539ZM309.33 123.711L310.535 125.134L318.169 118.675L316.964 117.251L309.33 123.711ZM310.16 124.629C311.246 126.301 312.457 127.887 313.79 129.387L321.264 122.743C320.261 121.615 319.355 120.427 318.544 119.179L310.16 124.629ZM313.991 129.601C315.908 131.517 318.426 132.926 321.469 132.926V122.926C321.498 122.926 321.532 122.93 321.562 122.937C321.591 122.944 321.597 122.949 321.578 122.94C321.537 122.92 321.358 122.825 321.063 122.529L313.991 129.601ZM321.469 132.926C323.984 132.926 326.084 131.775 327.658 130.517L321.411 122.708C321.273 122.818 321.166 122.892 321.09 122.939C321.014 122.986 320.976 123.003 320.977 123.002C320.983 123 321.16 122.926 321.469 122.926V132.926ZM327.658 130.517C327.455 130.679 327.175 130.853 326.818 130.983C326.457 131.114 326.088 131.174 325.739 131.174V121.174C324.086 121.174 322.599 121.758 321.411 122.708L327.658 130.517ZM325.739 131.174C325.272 131.174 324.778 131.065 324.324 130.838C323.887 130.62 323.614 130.357 323.475 130.195L331.068 123.687C329.841 122.256 328.013 121.174 325.739 121.174V131.174ZM323.736 130.476C323.629 130.369 322.929 129.611 322.929 128.255H332.929C332.929 126.023 331.79 124.388 330.807 123.405L323.736 130.476ZM322.929 128.255C322.929 127.675 323.082 127.154 323.298 126.75C323.498 126.375 323.707 126.181 323.76 126.134L330.345 133.66C331.637 132.53 332.929 130.716 332.929 128.255H322.929ZM323.949 125.977C322.74 126.934 322.127 126.977 322.016 126.977V136.977C325.117 136.977 327.861 135.634 330.156 133.817L323.949 125.977ZM322.016 126.977C321.726 126.977 321.267 126.902 320.541 126.321L314.294 134.13C316.488 135.885 319.094 136.977 322.016 136.977V126.977ZM320.541 126.321C319.02 125.105 317.045 122.76 314.684 118.871L306.136 124.061C308.739 128.348 311.435 131.843 314.294 134.13L320.541 126.321ZM314.664 118.839C313.858 117.534 313.08 116.378 312.354 115.496C312 115.066 311.533 114.546 310.969 114.09C310.598 113.79 309.282 112.744 307.344 112.744V122.744C306.416 122.744 305.727 122.47 305.375 122.299C305.009 122.121 304.773 121.94 304.677 121.863C304.497 121.717 304.477 121.662 304.634 121.853C304.93 122.212 305.43 122.917 306.156 124.094L314.664 118.839ZM303.51 114.535C300.288 118.385 297.135 123.016 294.036 128.382L302.696 133.383C305.583 128.384 308.415 124.256 311.179 120.952L303.51 114.535ZM294.036 128.382C291.003 133.635 288.117 138.925 285.379 144.254L294.273 148.825C296.936 143.643 299.744 138.496 302.696 133.383L294.036 128.382ZM285.387 144.238C283.362 148.144 281.488 151.638 279.766 154.723L288.498 159.597C290.28 156.405 292.203 152.818 294.265 148.841L285.387 144.238ZM279.845 154.588C279.614 154.973 279.45 155.19 279.365 155.291C279.325 155.338 279.32 155.338 279.353 155.308C279.384 155.279 279.473 155.203 279.621 155.11L284.921 163.59C286.53 162.585 287.647 161.02 288.42 159.733L279.845 154.588ZM279.621 155.11C279.773 155.015 279.921 154.957 280.041 154.925C280.155 154.895 280.213 154.898 280.191 154.898V164.898C281.773 164.898 283.418 164.529 284.921 163.59L279.621 155.11ZM282.928 281.541L287.857 282.383L287.871 282.297L287.883 282.211L282.928 281.541ZM287.855 310.447L291.972 307.61L291.959 307.591L291.946 307.572L287.855 310.447ZM303.184 319.644L302.625 324.613L302.697 324.621L302.769 324.627L303.184 319.644ZM335.483 312.089L332.728 307.917L332.714 307.926L332.701 307.935L335.483 312.089ZM355.082 291.396L350.836 288.755L350.828 288.768L350.82 288.781L355.082 291.396ZM368.112 262.052L363.337 260.568L363.331 260.587L363.325 260.607L368.112 262.052ZM375.338 228.329L370.38 227.678L370.378 227.694L370.377 227.709L375.338 228.329ZM374.791 159.131L379.709 158.231L378.116 149.534L371.484 155.38L374.791 159.131ZM307.125 230.519L303.029 227.652L303.024 227.658L307.125 230.519ZM372.82 121.357L377.605 119.907L377.558 119.752L377.501 119.601L372.82 121.357ZM380.156 149.058L375.276 150.147L377.064 158.164L383.364 152.893L380.156 149.058ZM402.82 130.773L405.895 134.716L406.138 134.526L406.356 134.309L402.82 130.773ZM405.557 131.102L401.557 134.102L401.771 134.386L402.022 134.637L405.557 131.102ZM405.229 133.839L402.229 129.839L402.173 129.881L402.118 129.925L405.229 133.839ZM381.141 153.657L377.893 149.855L375.647 151.774L376.244 154.667L381.141 153.657ZM382.236 227.672L377.28 227.011L377.278 227.026L377.276 227.041L382.236 227.672ZM374.791 262.381L370.014 260.904L370.011 260.912L374.791 262.381ZM361.214 292.49L356.985 289.822L356.978 289.834L356.97 289.847L361.214 292.49ZM340.848 313.732L338.11 309.548L338.088 309.563L338.066 309.577L340.848 313.732ZM302.965 320.958L303.701 316.013L303.699 316.012L302.965 320.958ZM285.008 311.432L288.771 308.14L288.76 308.127L288.748 308.114L285.008 311.432ZM278.877 280.994L283.812 281.797L283.823 281.73L283.832 281.661L278.877 280.994ZM303.95 228.001L308.051 230.861L308.053 230.858L303.95 228.001ZM373.915 154.423L377.205 158.187L379.37 156.295L378.823 153.473L373.915 154.423ZM372.491 146.868L367.564 147.72L367.569 147.747L367.574 147.774L372.491 146.868ZM366.469 119.167L371.3 117.879L367.42 103.327L361.827 117.31L366.469 119.167ZM365.703 120.919L361.151 118.85L361.103 118.955L361.06 119.062L365.703 120.919ZM361.542 130.226L357.022 128.089L357.013 128.107L357.005 128.125L361.542 130.226ZM355.192 142.489L359.519 144.994L359.528 144.977L359.538 144.961L355.192 142.489ZM347.527 153.328L351.239 156.678L351.259 156.656L351.279 156.633L347.527 153.328ZM337.454 157.379L335.409 161.942L335.502 161.984L335.597 162.022L337.454 157.379ZM333.075 151.357L328.211 152.515L328.224 152.57L328.238 152.624L333.075 151.357ZM334.17 134.167L339.034 135.325L339.042 135.289L339.051 135.252L334.17 134.167ZM339.206 118.948L334.734 116.712L334.661 116.858L334.598 117.008L339.206 118.948ZM341.396 116.977L343.366 121.573L343.501 121.515L343.632 121.449L341.396 116.977ZM347.199 120.152L351.73 122.267L351.851 122.006L351.942 121.734L347.199 120.152ZM344.133 127.817L339.462 126.033L339.448 126.071L339.434 126.108L344.133 127.817ZM339.754 141.065L334.968 139.615L334.961 139.639L334.954 139.662L339.754 141.065ZM339.316 156.832L336.963 161.244L337.021 161.275L337.08 161.304L339.316 156.832ZM346.104 150.481L341.88 147.806L341.874 147.815L341.868 147.825L346.104 150.481ZM354.754 135.81L350.398 133.355L350.389 133.37L350.38 133.386L354.754 135.81ZM361.104 124.861L356.859 122.219L356.838 122.253L356.817 122.288L361.104 124.861ZM366.25 117.963L362.905 114.246L362.858 114.289L362.812 114.333L366.25 117.963ZM277.999 280.7C277.445 283.945 277.162 287.11 277.162 290.191H287.162C287.162 287.724 287.389 285.123 287.857 282.383L277.999 280.7ZM277.162 290.191C277.162 299.085 279.254 306.903 283.764 313.322L291.946 307.572C288.865 303.188 287.162 297.502 287.162 290.191H277.162ZM283.738 313.284C288.279 319.873 294.684 323.721 302.625 324.613L303.742 314.675C298.69 314.108 294.876 311.824 291.972 307.61L283.738 313.284ZM302.769 324.627C304.652 324.784 306.506 324.863 308.33 324.863V314.863C306.796 314.863 305.219 314.796 303.599 314.661L302.769 324.627ZM308.33 324.863C319.569 324.863 329.614 322.039 338.266 316.243L332.701 307.935C325.878 312.505 317.82 314.863 308.33 314.863V324.863ZM338.239 316.262C346.644 310.711 353.672 303.257 359.344 294.01L350.82 288.781C345.836 296.907 339.797 303.249 332.728 307.917L338.239 316.262ZM359.328 294.036C364.986 284.938 369.5 274.748 372.898 263.498L363.325 260.607C360.154 271.108 355.982 280.48 350.836 288.755L359.328 294.036ZM372.886 263.536C376.335 252.44 378.804 240.909 380.299 228.949L370.377 227.709C368.952 239.107 366.604 250.058 363.337 260.568L372.886 263.536ZM380.295 228.98C381.854 217.103 382.637 205.607 382.637 194.496H372.637C372.637 205.138 371.887 216.198 370.38 227.678L380.295 228.98ZM382.637 194.496C382.637 181.055 381.673 168.956 379.709 158.231L369.872 160.032C371.704 170.036 372.637 181.514 372.637 194.496H382.637ZM371.484 155.38C340.548 182.651 317.662 206.748 303.029 227.652L311.222 233.386C325.203 213.413 347.426 189.918 378.097 162.882L371.484 155.38ZM303.024 227.658C288.583 248.363 279.96 266.168 277.973 280.872L287.883 282.211C289.546 269.907 297.054 253.697 311.226 233.379L303.024 227.658ZM368.035 122.807C370.922 132.336 373.335 141.449 375.276 150.147L385.036 147.969C383.035 139.003 380.557 129.648 377.605 119.907L368.035 122.807ZM383.364 152.893C390.47 146.947 397.98 140.888 405.895 134.716L399.745 126.83C391.747 133.067 384.148 139.198 376.947 145.223L383.364 152.893ZM406.356 134.309C406.185 134.479 405.893 134.719 405.464 134.914C405.02 135.116 404.524 135.226 404.024 135.226V125.226C402.026 125.226 400.407 126.115 399.285 127.238L406.356 134.309ZM404.024 135.226C403.439 135.226 402.859 135.068 402.365 134.786C401.904 134.522 401.652 134.228 401.557 134.102L409.557 128.102C408.437 126.608 406.573 125.226 404.024 125.226V135.226ZM402.022 134.637C401.851 134.466 401.611 134.175 401.416 133.745C401.214 133.301 401.105 132.806 401.105 132.306H411.105C411.105 130.307 410.215 128.688 409.093 127.566L402.022 134.637ZM401.105 132.306C401.105 131.721 401.262 131.14 401.545 130.646C401.808 130.185 402.102 129.934 402.229 129.839L408.229 137.839C409.723 136.718 411.105 134.854 411.105 132.306H401.105ZM402.118 129.925C393.536 136.746 385.461 143.39 377.893 149.855L384.389 157.458C391.858 151.077 399.841 144.508 408.34 137.753L402.118 129.925ZM376.244 154.667C378.495 165.571 379.645 178.286 379.645 192.854H389.645C389.645 177.787 388.458 164.37 386.038 152.646L376.244 154.667ZM379.645 192.854C379.645 203.783 378.859 215.167 377.28 227.011L387.192 228.333C388.825 216.089 389.645 204.261 389.645 192.854H379.645ZM377.276 227.041C375.778 238.811 373.355 250.097 370.014 260.904L379.567 263.858C383.087 252.474 385.628 240.621 387.196 228.303L377.276 227.041ZM370.011 260.912C366.696 271.703 362.346 281.329 356.985 289.822L365.442 295.159C371.323 285.842 376.024 275.394 379.57 263.849L370.011 260.912ZM356.97 289.847C351.77 298.194 345.477 304.726 338.11 309.548L343.587 317.915C352.279 312.226 359.562 304.598 365.458 295.134L356.97 289.847ZM338.066 309.577C331.03 314.289 322.682 316.724 312.819 316.724V326.724C324.416 326.724 334.754 323.831 343.631 317.886L338.066 309.577ZM312.819 316.724C309.951 316.724 306.913 316.491 303.701 316.013L302.228 325.903C305.878 326.447 309.41 326.724 312.819 326.724V316.724ZM303.699 316.012C297.415 315.079 292.533 312.439 288.771 308.14L281.245 314.725C286.68 320.936 293.77 324.647 302.23 325.904L303.699 316.012ZM288.748 308.114C285.19 304.104 283.11 298.268 283.11 289.972H273.11C273.11 299.924 275.629 308.396 281.268 314.751L288.748 308.114ZM283.11 289.972C283.11 287.424 283.339 284.701 283.812 281.797L273.942 280.191C273.393 283.565 273.11 286.827 273.11 289.972H283.11ZM283.832 281.661C285.569 268.771 293.372 251.903 308.051 230.861L299.849 225.14C284.893 246.58 275.981 265.041 273.922 280.326L283.832 281.661ZM308.053 230.858C322.464 210.169 345.445 185.951 377.205 158.187L370.624 150.659C338.588 178.662 314.925 203.496 299.847 225.143L308.053 230.858ZM378.823 153.473C378.389 151.228 377.917 148.724 377.408 145.962L367.574 147.774C368.087 150.559 368.564 153.093 369.006 155.373L378.823 153.473ZM377.418 146.016C375.716 136.174 373.678 126.794 371.3 117.879L361.638 120.455C363.932 129.059 365.909 138.146 367.564 147.72L377.418 146.016ZM361.827 117.31C361.727 117.559 361.513 118.053 361.151 118.85L370.255 122.988C370.622 122.179 370.919 121.505 371.112 121.024L361.827 117.31ZM361.06 119.062C360.242 121.108 358.907 124.101 357.022 128.089L366.063 132.363C367.973 128.321 369.412 125.109 370.345 122.776L361.06 119.062ZM357.005 128.125C355.245 131.926 353.194 135.889 350.846 140.016L359.538 144.961C362.007 140.621 364.19 136.409 366.08 132.326L357.005 128.125ZM350.865 139.983C348.593 143.908 346.225 147.243 343.776 150.023L351.279 156.633C354.232 153.282 356.973 149.391 359.519 144.994L350.865 139.983ZM343.815 149.978C341.559 152.479 340.138 152.817 339.535 152.817V162.817C344.186 162.817 348.094 160.163 351.239 156.678L343.815 149.978ZM339.535 152.817C339.626 152.817 339.564 152.838 339.311 152.737L335.597 162.022C336.804 162.504 338.13 162.817 339.535 162.817V152.817ZM339.5 152.817C339.224 152.693 338.48 152.261 337.912 150.09L328.238 152.624C329.275 156.585 331.451 160.167 335.409 161.942L339.5 152.817ZM337.939 150.199C337.683 149.126 337.527 147.775 337.527 146.102H327.527C327.527 148.37 327.736 150.522 328.211 152.515L337.939 150.199ZM337.527 146.102C337.527 143.256 337.995 139.685 339.034 135.325L329.306 133.009C328.154 137.846 327.527 142.232 327.527 146.102H337.527ZM339.051 135.252C339.992 131.014 341.565 126.231 343.814 120.888L334.598 117.008C332.176 122.76 330.391 128.124 329.289 133.083L339.051 135.252ZM343.678 121.184C343.617 121.307 343.526 121.426 343.427 121.515C343.335 121.598 343.292 121.604 343.366 121.573L339.426 112.382C337.474 113.218 335.772 114.636 334.734 116.712L343.678 121.184ZM343.632 121.449C344.042 121.244 344.304 121.211 344.462 121.211V111.211C342.576 111.211 340.793 111.688 339.16 112.505L343.632 121.449ZM344.462 121.211C344.653 121.211 344.402 121.249 344.001 120.998L349.301 112.518C347.733 111.538 346.022 111.211 344.462 111.211V121.211ZM344.001 120.998C343.558 120.721 343.125 120.283 342.836 119.706C342.564 119.162 342.527 118.71 342.527 118.51H352.527C352.527 116.319 351.611 113.962 349.301 112.518L344.001 120.998ZM342.527 118.51C342.527 118.413 342.533 118.344 342.537 118.307C342.542 118.27 342.545 118.256 342.542 118.269C342.54 118.281 342.533 118.312 342.519 118.365C342.505 118.417 342.484 118.486 342.456 118.571L351.942 121.734C352.245 120.827 352.527 119.704 352.527 118.51H342.527ZM342.668 118.038C342.065 119.329 340.976 122.068 339.462 126.033L348.804 129.6C350.356 125.537 351.311 123.165 351.73 122.267L342.668 118.038ZM339.434 126.108C337.938 130.222 336.45 134.725 334.968 139.615L344.539 142.515C345.977 137.77 347.408 133.441 348.832 129.526L339.434 126.108ZM334.954 139.662C333.505 144.62 332.673 149.041 332.673 152.781H342.673C342.673 150.389 343.228 146.999 344.553 142.468L334.954 139.662ZM332.673 152.781C332.673 155.386 333.315 159.298 336.963 161.244L341.669 152.42C341.963 152.577 342.215 152.787 342.409 153.014C342.595 153.233 342.684 153.419 342.718 153.503C342.75 153.581 342.735 153.575 342.715 153.445C342.694 153.315 342.673 153.1 342.673 152.781H332.673ZM337.08 161.304C337.837 161.683 338.744 161.941 339.754 161.941V151.941C340.471 151.941 341.086 152.127 341.552 152.36L337.08 161.304ZM339.754 161.941C342.682 161.941 344.857 160.051 346.056 158.831C347.482 157.381 348.909 155.42 350.34 153.138L341.868 147.825C340.599 149.849 339.617 151.118 338.925 151.821C338.583 152.169 338.432 152.255 338.472 152.231C338.504 152.212 338.965 151.941 339.754 151.941V161.941ZM350.328 153.157C353.163 148.681 356.096 143.704 359.127 138.233L350.38 133.386C347.426 138.718 344.593 143.523 341.88 147.806L350.328 153.157ZM359.11 138.265C361.354 134.282 363.448 130.672 365.392 127.433L356.817 122.288C354.819 125.618 352.679 129.308 350.398 133.355L359.11 138.265ZM365.349 127.502C367.349 124.289 368.789 122.446 369.689 121.592L362.812 114.333C360.938 116.108 358.948 118.862 356.859 122.219L365.349 127.502ZM369.595 121.679C369.623 121.654 369.543 121.733 369.342 121.819C369.127 121.911 368.851 121.977 368.55 121.977V111.977C366.25 111.977 364.339 112.956 362.905 114.246L369.595 121.679ZM368.55 121.977C368.268 121.977 367.973 121.913 367.713 121.794C367.468 121.681 367.353 121.565 367.351 121.563C367.351 121.562 367.375 121.588 367.421 121.649C367.466 121.711 367.528 121.803 367.602 121.933C367.755 122.198 367.939 122.581 368.138 123.112L377.501 119.601C376.294 116.381 373.719 111.977 368.55 111.977V121.977Z" fill="black"/>
</svg>
