<svg width="103" height="126" viewBox="0 0 103 126" fill="none" xmlns="http://www.w3.org/2000/svg">
<path d="M51.5 0C23.0573 0 0 23.0573 0 51.5V53.5C0 70.5299 15.5092 89.0092 21.0046 95.0046C26.5 101 51.5 125.5 51.5 125.5C51.5 125.5 72.5 106 81.9954 95.0046C91.4908 84.0092 103 70.5299 103 53.5V51.5C103 23.0573 79.9427 0 51.5 0Z" fill="#D0A966"/>
<path d="M50.9481 69.8553C47.6696 60.7706 45.1717 50.9931 46.0861 41.2043C46.453 37.1381 47.4701 33.1603 49.097 29.4282C49.32 28.9399 49.5431 28.4629 49.7772 27.986C49.8999 27.7589 50.0225 27.5317 50.1341 27.3046C50.2456 27.0775 50.1341 27.2251 50.1341 27.3046L50.4686 26.7709C51.0313 25.8672 51.6418 24.9953 52.2974 24.159C53.5198 22.6 54.9114 21.1867 56.4457 19.946C58.0877 18.5466 59.9815 17.4859 62.0213 16.8231C63.8055 16.3007 66.0581 16.085 67.597 17.3682C69.1358 18.6514 69.2474 21.1724 68.779 23.0462C68.6602 23.5114 68.5073 23.9669 68.3218 24.4089C68.2103 24.6928 68.043 24.954 67.9427 25.2379C67.8423 25.5218 68.0988 24.9313 68.1322 24.9199C68.1657 24.9086 67.82 25.3855 67.7419 25.5104C67.1266 26.3821 66.4482 27.2058 65.7124 27.9747C62.6461 31.159 59.0764 33.7962 55.1521 35.7762C50.8812 37.9452 46.2311 39.1035 41.6926 40.3867C37.3717 41.5246 33.1981 43.1789 29.2589 45.3152C25.5228 47.4085 22.0735 49.9933 18.9997 53.0031C18.2191 53.764 17.4608 54.5476 16.7694 55.3652C16.4349 55.7513 16.3345 56.3645 16 56.7392C22.2989 49.808 30.3571 44.7853 39.2839 42.2263C44.1347 40.8069 49.1081 39.7167 53.6913 37.5023C57.9258 35.4725 61.7672 32.6838 65.0322 29.2692C66.4147 27.7649 67.5959 26.081 68.5448 24.2612C69.5958 22.499 70.0136 20.4199 69.7269 18.3789C69.5213 17.3423 68.9404 16.4225 68.0996 15.8019C67.2588 15.1813 66.2196 14.9053 65.1883 15.0289C62.9492 15.1918 60.7969 15.9774 58.9659 17.3001C55.541 19.6367 52.6906 22.7453 50.6359 26.3848C48.4988 29.9521 46.9435 33.8485 46.0304 37.9224C43.8894 47.8362 45.8185 58.102 48.9074 67.5728C49.3089 68.8106 49.7326 70.0257 50.1675 71.2408C50.2748 70.9985 50.4095 70.7698 50.569 70.5594C50.569 70.4572 50.9927 69.9803 50.9481 69.8667" fill="white"/>
<path d="M78.4698 52.1391C78.4739 54.8669 78.0639 57.5789 77.2543 60.1791C76.8392 61.515 76.3171 62.814 75.6931 64.0628C75.6374 64.1764 75.2248 64.9599 75.5036 64.483C75.314 64.8123 75.1021 65.1303 74.9014 65.4369C74.5223 66.016 74.1319 66.5725 73.7193 67.1062C70.0608 71.8756 64.9096 75.2263 59.122 76.6014C53.3344 77.9765 47.2589 77.2931 41.9056 74.6648C36.5522 72.0365 32.2433 67.6216 29.6952 62.154C27.147 56.6864 26.5131 50.4954 27.8987 44.6101C28.2012 43.2831 28.6115 41.984 29.1254 40.7263C29.3558 40.1358 29.6123 39.5567 29.8948 38.9889C29.9617 38.8413 30.0398 38.6823 30.129 38.5233C30.2182 38.3643 30.4524 37.9215 30.129 38.4098C30.3186 38.0804 30.5304 37.7624 30.7312 37.4558C33.8162 32.6981 38.3267 29.0813 43.592 27.1433C48.8573 25.2052 54.5961 25.0494 59.9554 26.6989C65.3146 28.3484 70.008 31.7152 73.3377 36.2987C76.6673 40.8822 78.4555 46.4377 78.4364 52.1391C78.4364 51.9687 78.7598 51.594 78.8378 51.4464C78.9159 51.2987 79.217 50.9581 79.217 50.7537C79.2186 45.1479 77.4748 39.6859 74.2362 35.1529C70.9977 30.6199 66.4313 27.2492 61.1932 25.5254C55.9552 23.8017 50.3154 23.8135 45.0844 25.5593C39.8534 27.305 35.3006 30.6949 32.0805 35.2414C28.9064 39.5729 26.9691 44.7132 26.4825 50.095C26.0619 55.6802 27.3888 61.2575 30.2732 66.0272C33.1576 70.7969 37.4512 74.5139 42.5381 76.645C47.6251 78.7762 53.2441 79.212 58.5894 77.8901C63.9347 76.5681 68.7315 73.5563 72.292 69.2865C75.7188 65.2058 77.9996 60.2583 78.8936 54.9667C79.1133 53.5736 79.2215 52.1646 79.217 50.7537C79.217 50.924 78.9047 51.2987 78.8267 51.4464C78.7486 51.594 78.4475 51.9347 78.4364 52.1391" fill="white"/>
<path d="M64.7071 68.7995C63.2376 65.9205 61.9199 62.9638 60.7596 59.9419C59.5375 56.9893 58.7847 53.8575 58.5293 50.664C58.4509 49.3005 58.5295 47.9322 58.7635 46.5873C59.0634 45.2167 59.5006 43.881 60.0682 42.6013C60.2355 42.1584 59.5776 43.3508 59.979 42.7717L60.3135 42.2947C60.5134 42.0133 60.7294 41.7441 60.9603 41.4885C61.4157 40.9685 61.9283 40.5036 62.488 40.103C63.0101 39.7085 63.6057 39.4265 64.2384 39.2742C64.8711 39.1219 65.5277 39.1025 66.1679 39.2173C66.7492 39.3252 67.2899 39.5944 67.7306 39.9951C68.1713 40.3958 68.4949 40.9125 68.6658 41.4885C68.9557 42.9385 68.9557 44.4331 68.6658 45.8832C68.4902 47.2584 68.1955 48.615 67.7849 49.9373C67.5671 50.6353 67.314 51.3213 67.0266 51.9927C66.9151 52.2652 66.8036 52.5264 66.6809 52.7876C66.5582 53.0488 66.4244 53.2986 66.3018 53.5485C66.0787 54.0368 66.5248 53.2532 66.2014 53.7415C64.6762 56.1299 62.7016 58.187 60.3916 59.7942C58.1534 61.3185 55.6279 62.3511 52.976 62.8263C50.0157 63.338 46.9761 63.0704 44.146 62.0487C41.316 61.0271 38.7895 59.2855 36.8066 56.9893C36.907 57.1029 35.9034 58.2157 36.026 58.3634C37.9687 60.6049 40.431 62.3162 43.1887 63.3416C45.9465 64.367 48.9123 64.6739 51.8163 64.2344C54.6884 63.761 57.4239 62.6524 59.8302 60.9867C62.2364 59.3211 64.2551 57.1387 65.7442 54.5932C67.2735 52.1448 68.4033 49.4604 69.0896 46.6441C69.4201 45.1523 69.6032 43.6306 69.636 42.1017C69.636 40.6027 69.4018 39.1037 68.0302 38.3088C65.3539 36.7416 62.4546 38.9674 60.9714 41.1251C59.4082 43.2791 58.3618 45.7759 57.916 48.4156C57.4942 52.0978 57.9494 55.8293 59.243 59.2946C60.5364 63.0491 62.1018 66.7006 63.9265 70.219C63.9265 70.1622 64.2834 69.6057 64.3168 69.5376C64.3503 69.4695 64.7517 68.9357 64.7071 68.8449" fill="white"/>
</svg>
