<svg width="60" height="74" viewBox="0 0 60 74" fill="none" xmlns="http://www.w3.org/2000/svg">
<path d="M30 0C13.4315 0 0 13.4315 0 30V31.1651C0 41.0854 9.0345 51.85 12.2357 55.3425C15.4369 58.835 30 73.1068 30 73.1068C30 73.1068 42.233 61.7476 47.7643 55.3425C53.2956 48.9374 60 41.0854 60 31.1651V30C60 13.4315 46.5685 0 30 0Z" fill="#D0A966"/>
<path d="M29.6784 40.6928C27.7686 35.4008 26.3136 29.7052 26.8462 24.0029C27.0599 21.6343 27.6524 19.3171 28.6001 17.1431C28.73 16.8586 28.86 16.5808 28.9964 16.3029C29.0678 16.1706 29.1393 16.0383 29.2042 15.906C29.2692 15.7737 29.2042 15.8597 29.2042 15.906L29.3991 15.5951C29.7269 15.0687 30.0825 14.5608 30.4644 14.0736C31.1765 13.1655 31.9872 12.3422 32.8809 11.6194C33.8374 10.8042 34.9406 10.1864 36.1289 9.80029C37.1682 9.496 38.4804 9.3703 39.3768 10.1178C40.2732 10.8653 40.3382 12.3339 40.0654 13.4254C39.9961 13.6964 39.9071 13.9617 39.799 14.2192C39.7341 14.3846 39.6366 14.5367 39.5782 14.7021C39.5197 14.8675 39.6691 14.5235 39.6886 14.5169C39.7081 14.5103 39.5067 14.7881 39.4613 14.8608C39.1028 15.3686 38.7076 15.8485 38.279 16.2963C36.4928 18.1513 34.4133 19.6875 32.1274 20.8409C29.6395 22.1044 26.9307 22.7791 24.2869 23.5266C21.7698 24.1895 19.3386 25.1532 17.0439 26.3976C14.8676 27.617 12.8583 29.1227 11.0677 30.876C10.613 31.3192 10.1713 31.7757 9.76853 32.252C9.57365 32.4769 9.51519 32.8341 9.32031 33.0524C12.9896 29.0148 17.6837 26.089 22.8837 24.5983C25.7095 23.7714 28.6066 23.1363 31.2764 21.8464C33.7431 20.664 35.9808 19.0395 37.8828 17.0504C38.6881 16.1741 39.3762 15.1932 39.929 14.1332C40.5412 13.1066 40.7845 11.8955 40.6175 10.7066C40.4977 10.1028 40.1594 9.5669 39.6696 9.20538C39.1798 8.84387 38.5744 8.68312 37.9737 8.75509C36.6693 8.85003 35.4156 9.30765 34.349 10.0781C32.3539 11.4393 30.6935 13.2501 29.4966 15.3702C28.2516 17.4482 27.3456 19.718 26.8137 22.0912C25.5665 27.8661 26.6903 33.8462 28.4897 39.3632C28.7235 40.0843 28.9704 40.7921 29.2237 41.4999C29.2862 41.3587 29.3647 41.2256 29.4576 41.103C29.4576 41.0435 29.7044 40.7656 29.6784 40.6995" fill="white"/>
<path d="M45.7101 30.3723C45.7125 31.9613 45.4736 33.5411 45.0021 35.0558C44.7603 35.834 44.4561 36.5907 44.0926 37.3181C44.0602 37.3843 43.8198 37.8407 43.9822 37.5629C43.8718 37.7547 43.7484 37.94 43.6314 38.1186C43.4106 38.4559 43.1832 38.7801 42.9429 39.091C40.8117 41.8693 37.811 43.8212 34.4395 44.6222C31.0681 45.4232 27.529 45.0251 24.4106 43.494C21.2921 41.963 18.7821 39.3912 17.2977 36.2062C15.8134 33.0212 15.4441 29.4148 16.2512 25.9865C16.4274 25.2135 16.6664 24.4567 16.9658 23.7241C17.1 23.3801 17.2495 23.0427 17.414 22.712C17.453 22.626 17.4985 22.5334 17.5504 22.4408C17.6024 22.3481 17.7388 22.0902 17.5504 22.3746C17.6609 22.1828 17.7843 21.9975 17.9012 21.8189C19.6983 19.0474 22.3258 16.9406 25.393 15.8116C28.4601 14.6826 31.8031 14.5919 34.925 15.5527C38.0469 16.5136 40.7809 18.4749 42.7205 21.1449C44.6601 23.8149 45.7018 27.0511 45.6906 30.3723C45.6906 30.2731 45.879 30.0547 45.9245 29.9688C45.97 29.8828 46.1454 29.6843 46.1454 29.5652C46.1463 26.2997 45.1305 23.118 43.244 20.4774C41.3575 17.8368 38.6974 15.8733 35.6461 14.8692C32.5948 13.865 29.3095 13.8719 26.2623 14.8889C23.2151 15.9059 20.563 17.8805 18.6872 20.529C16.8382 23.0522 15.7097 26.0465 15.4263 29.1816C15.1812 32.435 15.9542 35.684 17.6344 38.4624C19.3147 41.2409 21.8158 43.4061 24.779 44.6476C27.7423 45.889 31.0156 46.1429 34.1293 45.3729C37.243 44.6028 40.0373 42.8483 42.1114 40.3611C44.1076 37.984 45.4362 35.1019 45.957 32.0194C46.085 31.2079 46.148 30.3872 46.1454 29.5652C46.1454 29.6645 45.9635 29.8828 45.918 29.9688C45.8725 30.0547 45.6971 30.2532 45.6906 30.3723" fill="white"/>
<path d="M37.694 40.0776C36.8379 38.4005 36.0703 36.6781 35.3944 34.9178C34.6825 33.1979 34.244 31.3735 34.0952 29.5132C34.0495 28.7189 34.0953 27.9219 34.2317 27.1384C34.4064 26.34 34.661 25.562 34.9917 24.8165C35.0891 24.5585 34.7059 25.2531 34.9397 24.9158L35.1346 24.6379C35.251 24.474 35.3768 24.3172 35.5114 24.1682C35.7766 23.8654 36.0752 23.5946 36.4013 23.3612C36.7054 23.1314 37.0524 22.9671 37.4209 22.8784C37.7895 22.7897 38.1719 22.7784 38.5449 22.8452C38.8835 22.9081 39.1985 23.0649 39.4552 23.2983C39.7119 23.5317 39.9004 23.8328 40 24.1682C40.1689 25.0129 40.1689 25.8836 40 26.7283C39.8977 27.5294 39.726 28.3197 39.4868 29.0899C39.36 29.4965 39.2125 29.8961 39.0451 30.2872C38.9801 30.446 38.9152 30.5981 38.8437 30.7503C38.7723 30.9024 38.6943 31.048 38.6229 31.1935C38.493 31.4779 38.7528 31.0215 38.5644 31.306C37.6759 32.6973 36.5257 33.8956 35.1801 34.8318C33.8763 35.7197 32.4051 36.3213 30.8603 36.598C29.1359 36.8961 27.3652 36.7402 25.7166 36.1451C24.0681 35.55 22.5963 34.5354 21.4413 33.1979C21.4997 33.264 20.9151 33.9123 20.9865 33.9983C22.1182 35.3041 23.5525 36.3009 25.159 36.8983C26.7655 37.4956 28.4931 37.6743 30.1847 37.4183C31.8578 37.1425 33.4513 36.4968 34.853 35.5265C36.2547 34.5562 37.4307 33.2849 38.2981 31.8021C39.189 30.3758 39.8471 28.8121 40.2469 27.1715C40.4394 26.3025 40.546 25.4161 40.5652 24.5255C40.5652 23.6523 40.4287 22.7791 39.6298 22.316C38.0707 21.4031 36.3818 22.6997 35.5178 23.9566C34.6072 25.2113 33.9976 26.6658 33.738 28.2035C33.4923 30.3485 33.7574 32.5221 34.511 34.5407C35.2644 36.7279 36.1763 38.8549 37.2393 40.9045C37.2393 40.8714 37.4471 40.5472 37.4666 40.5076C37.4861 40.4679 37.72 40.157 37.694 40.104" fill="white"/>
</svg>
