<?xml version="1.0" encoding="utf-8"?>
<!-- Generator: Adobe Illustrator 26.3.1, SVG Export Plug-In . SVG Version: 6.00 Build 0)  -->
<svg version="1.1" id="Слой_1" xmlns="http://www.w3.org/2000/svg" xmlns:xlink="http://www.w3.org/1999/xlink" x="0px" y="0px"
	 viewBox="0 0 11 11" style="enable-background:new 0 0 11 11;" xml:space="preserve">
<path d="M2.2,4.8c0.9,1.7,2.3,3.1,4,4l1.3-1.3C7.8,7.3,8,7.2,8.2,7.3c0.7,0.2,1.4,0.3,2.2,0.3c0.2,0,0.3,0.1,0.4,0.2
	C10.9,7.9,11,8.1,11,8.2v2.1c0,0.2-0.1,0.3-0.2,0.4S10.6,11,10.4,11C7.6,11,5,9.9,3,8C1.1,6,0,3.4,0,0.6c0-0.2,0.1-0.3,0.2-0.4
	C0.3,0.1,0.4,0,0.6,0h2.1c0.2,0,0.3,0.1,0.4,0.2c0.1,0.1,0.2,0.3,0.2,0.4c0,0.8,0.1,1.5,0.3,2.2c0.1,0.2,0,0.5-0.2,0.6L2.2,4.8z"/>
</svg>
