<?xml version="1.0" encoding="utf-8"?>
<!-- Generator: Adobe Illustrator 26.3.1, SVG Export Plug-In . SVG Version: 6.00 Build 0)  -->
<svg version="1.1" id="Слой_1" xmlns="http://www.w3.org/2000/svg" xmlns:xlink="http://www.w3.org/1999/xlink" x="0px" y="0px"
	 viewBox="0 0 25 23" style="enable-background:new 0 0 25 23;" xml:space="preserve">
<path d="M1,22c-0.1,0-0.2,0-0.3-0.1c-0.2-0.1-0.2-0.3-0.2-0.4V4.7c0-0.2,0.1-0.3,0.3-0.4l7.4-4.2C8.3,0,8.5,0,8.6,0.1l8.2,4.1
	L24,0.1c0.2-0.1,0.3-0.1,0.5,0c0.2,0.1,0.2,0.3,0.2,0.4v16.8c0,0.2-0.1,0.3-0.3,0.4l-7.4,4.2c-0.1,0.1-0.3,0.1-0.5,0l-8.2-4.1
	l-7.2,4.1C1.2,22,1.1,22,1,22z M8.4,16.8c0.1,0,0.2,0,0.2,0.1l8.2,4.1l6.9-3.9V1.4l-6.7,3.8c-0.1,0.1-0.3,0.1-0.5,0L8.4,1.1L1.5,5
	v15.7l6.7-3.8C8.2,16.8,8.3,16.8,8.4,16.8z"/>
<path d="M8.7,17.5c-0.3,0-0.5-0.2-0.5-0.5V0.5C8.2,0.2,8.5,0,8.7,0s0.5,0.2,0.5,0.5V17C9.2,17.3,9,17.5,8.7,17.5z"/>
<path d="M16.9,21.9c-0.3,0-0.5-0.2-0.5-0.5V4.9c0-0.3,0.2-0.5,0.5-0.5s0.5,0.2,0.5,0.5v16.5C17.4,21.7,17.2,21.9,16.9,21.9z"/>
</svg>
