<?xml version="1.0" encoding="utf-8"?>
<!-- Generator: Adobe Illustrator 26.3.1, SVG Export Plug-In . SVG Version: 6.00 Build 0)  -->
<svg version="1.1" id="Слой_1" xmlns="http://www.w3.org/2000/svg" xmlns:xlink="http://www.w3.org/1999/xlink" x="0px" y="0px"
	 viewBox="0 0 13 13" style="enable-background:new 0 0 13 13;" xml:space="preserve">
<path d="M13,2.3c0,0.2-0.2,0.4-0.4,0.4h-0.1l-1.2-0.2c0.9,1.2,1.4,2.6,1.3,4.1c0,1.5-0.5,2.9-1.4,4c-0.9,1.1-2.2,1.9-3.6,2.3
	c-1.4,0.3-2.9,0.1-4.1-0.5c-1.3-0.6-2.3-1.7-2.9-3C0,8-0.2,6.5,0.2,5c0.3-1.4,1.1-2.7,2.2-3.6C3.5,0.5,4.9,0,6.3,0
	c0.2,0,0.4,0.2,0.4,0.4c0,0.2-0.2,0.4-0.4,0.4c-1.3,0-2.5,0.4-3.5,1.2C1.9,2.9,1.2,4,0.9,5.2C0.7,6.5,0.8,7.8,1.4,9
	c0.5,1.2,1.5,2.1,2.6,2.7c1.1,0.6,2.4,0.7,3.6,0.4c1.2-0.3,2.3-1,3.1-2c0.8-1,1.2-2.3,1.2-3.6c0-1.3-0.4-2.5-1.2-3.5l-0.1,1.6
	c0,0.2-0.2,0.4-0.4,0.4h0h0c-0.1,0-0.2-0.1-0.3-0.1C9.8,4.7,9.8,4.6,9.8,4.5l0.1-2.5v0c0,0,0,0,0,0c0,0,0,0,0,0V1.8c0,0,0,0,0,0
	c0,0,0,0,0,0c0,0,0,0,0-0.1c0,0,0.1-0.1,0.1-0.1c0,0,0,0,0.1,0l0.1,0h0.2l2.3,0.3h0c0.1,0,0.2,0.1,0.3,0.1C13,2.1,13,2.2,13,2.3
	L13,2.3z"/>
</svg>
