<?xml version="1.0" encoding="utf-8"?>
<!-- Generator: Adobe Illustrator 26.3.1, SVG Export Plug-In . SVG Version: 6.00 Build 0)  -->
<svg version="1.1" id="Слой_1" xmlns="http://www.w3.org/2000/svg" xmlns:xlink="http://www.w3.org/1999/xlink" x="0px" y="0px"
	 viewBox="0 0 29 23" style="enable-background:new 0 0 29 23;" xml:space="preserve">
<path d="M1.7,20.3c-0.3,0.2-0.7,0.2-1,0c-0.3-0.3-0.3-0.7,0-0.9C1.8,18.4,2.9,18,4,18c1.3,0,2.5,0.5,3.5,1.2c0,0,0,0,0.1,0.1
	c0.6,0.5,1.1,0.8,1.6,1c0.4,0.2,0.8,0.3,1.2,0.3c1,0,1.8-0.5,2.7-1.1c1.1-0.8,2.3-1.5,4.1-1.5c1.8,0,2.9,0.8,4,1.6
	c0.8,0.6,1.6,1.1,2.5,1.1c0.4,0,0.8-0.1,1.3-0.3c0.5-0.2,1.1-0.6,1.8-1.2c0.3-0.2,0.7-0.2,1,0.1c0.3,0.3,0.2,0.7-0.1,0.9
	c-0.8,0.7-1.5,1.1-2.2,1.4c-0.7,0.3-1.4,0.4-2,0.4c-1.4,0-2.3-0.7-3.3-1.4c-0.9-0.6-1.9-1.3-3.2-1.3c-1.3,0-2.3,0.6-3.3,1.3
	c-1.1,0.7-2.1,1.4-3.5,1.3c-0.6,0-1.2-0.1-1.8-0.4c-0.6-0.3-1.2-0.7-1.9-1.3c-0.8-0.6-1.7-0.9-2.6-0.9C3.3,19.4,2.5,19.6,1.7,20.3
	L1.7,20.3z"/>
<path d="M18.3,1.6c0.1-0.2,0.4-0.2,0.6-0.1C19.1,1.6,19.2,1.8,19,2l-0.6,1c-0.1,0.2-0.4,0.2-0.6,0.1c-0.2-0.1-0.3-0.4-0.1-0.5
	L18.3,1.6z"/>
<path d="M6.9,5.1C7.1,5.2,7.2,5.4,7,5.6C6.9,5.8,6.7,5.9,6.5,5.8l-1-0.5C5.3,5.1,5.2,4.9,5.3,4.7c0.1-0.2,0.4-0.2,0.6-0.1L6.9,5.1z"
	/>
<path d="M23.3,9.1c0.2,0,0.4,0.2,0.4,0.4c0,0.2-0.2,0.4-0.4,0.4l-1.2,0c-0.2,0-0.4-0.2-0.4-0.4s0.2-0.4,0.4-0.4L23.3,9.1z"/>
<path d="M5.5,8.9c0.2,0,0.4,0.2,0.4,0.4c0,0.2-0.2,0.4-0.4,0.4l-1.1,0C4.2,9.7,4,9.5,4,9.3s0.2-0.4,0.4-0.4L5.5,8.9z"/>
<path d="M10.2,2.5c0.1,0.2,0,0.4-0.2,0.5C9.8,3.1,9.5,3,9.4,2.8l-0.6-1C8.7,1.7,8.8,1.4,9,1.3c0.2-0.1,0.5,0,0.6,0.2L10.2,2.5z"/>
<path d="M21.9,4.7c0.2-0.1,0.5,0,0.6,0.2c0.1,0.2,0,0.4-0.2,0.5L21.2,6c-0.2,0.1-0.5,0-0.6-0.2c-0.1-0.2,0-0.4,0.2-0.5L21.9,4.7z"/>
<path d="M13.5,0.6c0-0.2,0.2-0.4,0.4-0.4s0.4,0.2,0.4,0.4l0,1.2c0,0.2-0.2,0.4-0.4,0.4s-0.4-0.2-0.4-0.4L13.5,0.6z"/>
<path d="M9.8,8.1C10.2,7,11,6.2,12,5.8c1-0.4,2.2-0.5,3.3-0.2c1.1,0.4,2,1.1,2.5,2c0.5,0.9,0.6,2,0.2,3.1c-0.4,1-1.2,1.8-2.2,2.3
	c-1,0.4-2.2,0.5-3.3,0.2c-1.1-0.4-2-1.1-2.5-2C9.5,10.2,9.4,9.1,9.8,8.1z M12.6,7c-0.7,0.3-1.2,0.8-1.5,1.5
	c-0.3,0.7-0.2,1.4,0.1,2.1c0.3,0.6,0.9,1.1,1.6,1.4c0.8,0.2,1.5,0.2,2.2-0.1c0.7-0.3,1.2-0.8,1.5-1.5c0.3-0.7,0.2-1.4-0.1-2.1
	c-0.3-0.6-0.9-1.1-1.6-1.4C14.1,6.6,13.3,6.7,12.6,7L12.6,7z"/>
<path d="M1.7,16.9c-0.3,0.3-0.7,0.2-1,0c-0.3-0.3-0.3-0.7,0-0.9c1-0.9,2.2-1.3,3.3-1.3c1.3,0,2.5,0.5,3.5,1.2c0,0,0,0,0.1,0.1
	c0.6,0.5,1.1,0.8,1.6,1c0.4,0.2,0.8,0.3,1.2,0.3c1,0,1.8-0.5,2.7-1.1c1.1-0.8,2.3-1.5,4.1-1.5c1.8,0,2.9,0.8,4,1.6
	c0.8,0.6,1.6,1.1,2.5,1.1c0.4,0,0.8-0.1,1.3-0.3c0.5-0.2,1.1-0.6,1.8-1.2c0.3-0.2,0.7-0.2,1,0.1c0.3,0.3,0.2,0.7-0.1,0.9
	c-0.8,0.7-1.5,1.1-2.2,1.4c-0.7,0.3-1.4,0.4-2,0.4c-1.4,0-2.3-0.7-3.3-1.4c-0.9-0.6-1.9-1.3-3.2-1.3c-1.3,0-2.3,0.6-3.3,1.3
	c-1.1,0.7-2.1,1.4-3.5,1.3c-0.6,0-1.2-0.1-1.8-0.4c-0.6-0.3-1.2-0.7-1.9-1.3C5.8,16.4,4.9,16,4,16C3.3,16,2.5,16.3,1.7,16.9
	L1.7,16.9z"/>
</svg>
