<?xml version="1.0" encoding="utf-8"?>
<!-- Generator: Adobe Illustrator 26.3.1, SVG Export Plug-In . SVG Version: 6.00 Build 0)  -->
<svg version="1.1" id="Слой_1" xmlns="http://www.w3.org/2000/svg" xmlns:xlink="http://www.w3.org/1999/xlink" x="0px" y="0px"
	 viewBox="0 0 106 29" style="enable-background:new 0 0 106 29;" xml:space="preserve">
<path d="M5.8,6.1c0.8,0,1.6,0.1,2.4,0.3c0.7,0.2,1.5,0.5,2.3,0.9v3.1C9.7,9.8,8.9,9.5,8,9.2C7.1,8.9,6.4,8.7,5.7,8.7
	C5.1,8.7,4.6,8.8,4.3,9S3.8,9.6,3.8,9.9c0,0.2,0.1,0.4,0.4,0.7c0.3,0.2,1,0.6,2.2,1.2c1.7,0.8,3,1.6,3.7,2.3
	c0.7,0.7,1.1,1.6,1.1,2.6c0,1.4-0.5,2.5-1.6,3.3c-1,0.8-2.4,1.2-4.2,1.2c-1.1,0-2.1-0.1-3.1-0.4c-1-0.2-1.7-0.5-2.3-0.8v-3.2
	c2.1,1.1,3.7,1.6,5,1.6c0.7,0,1.2-0.1,1.6-0.4c0.4-0.2,0.6-0.5,0.6-0.9c0-0.2-0.1-0.4-0.2-0.6C7,16.4,6.8,16.2,6.4,16
	c-0.3-0.2-1.3-0.7-2.9-1.5c-1.2-0.6-2.1-1.2-2.7-1.8C0.3,12.1,0,11.3,0,10.3C0,9,0.5,8,1.6,7.2C2.7,6.5,4,6.1,5.8,6.1z"/>
<path d="M19.4,6.1c2.1,0,3.8,0.7,5.1,2.1c1.3,1.4,1.9,3.3,1.9,5.7v0.6H16.1c0.2,1.3,0.7,2.3,1.4,3c0.8,0.7,1.9,1.1,3.3,1.1
	c0.9,0,1.8-0.2,2.6-0.5c0.8-0.3,1.7-0.8,2.6-1.5v2.9c-1.7,1.2-3.8,1.8-6.2,1.8c-2.3,0-4.2-0.7-5.6-2.1c-1.4-1.4-2.2-3.3-2.2-5.6
	c0-2.2,0.7-4.1,2-5.5C15.5,6.7,17.3,6.1,19.4,6.1z M22.8,12.2c-0.1-1.1-0.4-1.9-1-2.5c-0.5-0.6-1.3-0.9-2.2-0.9
	c-1,0-1.7,0.3-2.3,0.9c-0.6,0.6-1,1.4-1.1,2.6H22.8z"/>
<path d="M40.5,6.8c-0.3-0.2-0.5-0.3-0.7-0.4c-0.5-0.2-1.1-0.4-1.6-0.4c-0.9,0-1.7,0.3-2.5,1c-0.7,0.6-1.5,1.7-2.2,3.1h0V6.4h-4.1
	v14.9h4.1v-6.8c0-0.8,0.2-1.5,0.6-2.2c0.4-0.8,0.9-1.3,1.5-1.8c0.6-0.4,1.2-0.7,1.9-0.7c0.5,0,1.2,0.2,1.9,0.7L40.5,6.8z"/>
<path d="M65.6,6.1c1.6,0,2.9,0.5,3.9,1.6c1,1,1.5,2.4,1.5,4.1v9.5h-4v-9.1c0-1-0.2-1.7-0.7-2.3c-0.5-0.6-1.1-0.8-1.9-0.8
	c-0.6,0-1.2,0.2-1.7,0.5s-1.1,0.9-1.8,1.8v9.9h-4V6.4h4v2.1c0.7-0.8,1.5-1.5,2.3-1.8C63.8,6.3,64.7,6.1,65.6,6.1z"/>
<path d="M84.8,3h0.3v3.8h7.2v2.8h-7.2v6.6c0,0.6,0.2,1.1,0.6,1.5c0.4,0.4,0.9,0.6,1.6,0.6c0.9,0,1.9-0.3,3.1-0.9v3
	c-1.4,0.6-2.6,0.9-3.8,0.9c-1.6,0-2.9-0.4-3.8-1.3s-1.4-2-1.4-3.5V9.6h-2.2V9L84.8,3z"/>
<path d="M93.6,7.1l3.7,7.6l3.7-7.6h4.4L94.7,28.4h-4.4l4.9-9.7l-6-11.6H93.6z"/>
<path d="M47.8,6.1c2.1,0,3.8,0.7,5.1,2.1c1.3,1.4,1.9,3.3,1.9,5.7v0.6H44.5c0.2,1.3,0.7,2.3,1.4,3c0.8,0.7,1.9,1.1,3.4,1.1
	c0.9,0,1.8-0.2,2.7-0.5c0.8-0.3,1.7-0.8,2.6-1.5v2.9c-1.7,1.2-3.8,1.8-6.2,1.8c-2.3,0-4.2-0.7-5.6-2.1c-1.4-1.4-2.2-3.3-2.2-5.6
	c0-2.2,0.7-4.1,2-5.5C43.9,6.7,45.6,6.1,47.8,6.1z M51.1,12.2c-0.1-1.1-0.4-1.9-1-2.5C49.6,9,48.9,8.7,48,8.7c-1,0-1.7,0.3-2.3,0.9
	c-0.6,0.6-1,1.4-1.1,2.6H51.1z"/>
<path d="M75,0c0.6,0,1,0.2,1.4,0.7C76.8,1.1,77,1.6,77,2.2c0,0.6-0.2,1.1-0.6,1.5c-0.4,0.4-0.9,0.7-1.4,0.7c-0.5,0-1-0.2-1.4-0.7
	S73,2.7,73,2.2c0-0.6,0.2-1.1,0.6-1.5C74,0.2,74.5,0,75,0z M76.8,21.3h-3.6V6.7h3.6V21.3z"/>
</svg>
