<svg width="406" height="321" viewBox="0 0 406 321" fill="none" xmlns="http://www.w3.org/2000/svg" class="animate-in-screen">
	<mask id="mask0_666_15885" style="mask-type:alpha" maskUnits="userSpaceOnUse" x="0" y="0" width="406" height="321">
		<rect fill-rule="evenodd" clip-rule="evenodd" width="406" height="321" fill="#E5B96D"/>
	</mask>
	<g mask="url(#mask0_666_15885)">
		<path d="M8.65 133.91C17.41 132.963 26.41 128.18 35.65 119.56C45.6077 110.135 54.3063 99.4635 61.53 87.81C69.2626 75.8409 75.8262 63.1558 81.13 49.93C86.2367 37.15 88.7933 26.53 88.8 18.07C88.8 11.1967 86.9367 6.67 83.21 4.49L81 4.38C75.3133 4.38 68.78 6.71333 61.4 11.38C48.1333 19.8467 37.12 32.88 28.36 50.48C23.3933 61.1467 19.1967 73.92 15.77 88.8C12.3423 103.651 9.96305 118.725 8.65 133.91ZM20.26 199.49C16.26 199.49 12.4633 197.41 8.87 193.25C2.95667 185.443 0 171.537 0 151.53C0.146098 133.102 2.08862 114.731 5.8 96.68C9.74 77.04 14.8067 60.48 21 47C26.7667 35 33.6667 25.11 41.7 17.33C49.7333 9.55 57.55 4.35667 65.15 1.75C68.1267 0.637535 71.2726 0.0455646 74.45 0C81.39 0 86.3167 3.24667 89.23 9.74C90.6308 13.4471 91.3096 17.3879 91.23 21.35C91.23 30.99 88.6 42.34 83.34 55.4C77.9032 68.8014 71.0332 81.5756 62.85 93.5C55.2969 104.959 46.277 115.381 36.02 124.5C26.46 132.747 17.2267 137.247 8.32 138C7.88 142.82 7.66 148.803 7.66 155.95C7.66 178.443 10.8733 192.24 17.3 197.34C18.1689 197.488 19.0487 197.561 19.93 197.56C24.0289 197.481 27.9885 196.058 31.2 193.51C35.3294 190.441 39.0289 186.832 42.2 182.78C45.9589 178.078 49.4671 173.181 52.71 168.11C56.15 162.71 59.4833 157.27 62.71 151.79C66.1433 145.95 69.4267 140.587 72.56 135.7C75.2561 131.429 78.3355 127.412 81.76 123.7C84.7 120.567 87.4833 119 90.11 119H90.55C91.0768 118.993 91.5981 119.107 92.0734 119.334C92.5487 119.561 92.965 119.895 93.29 120.31C93.6891 120.713 94.0015 121.193 94.2079 121.721C94.4143 122.249 94.5103 122.813 94.49 123.38C94.49 124.84 93.3233 128.507 90.99 134.38C89.6567 137.52 88.45 140.733 87.37 144.02C86.3973 146.616 85.8437 149.35 85.73 152.12C85.6607 152.832 85.7523 153.55 85.9981 154.222C86.2439 154.893 86.6376 155.501 87.15 156C87.8185 156.489 88.6221 156.758 89.45 156.77C91.35 156.77 93.3967 155.603 95.59 153.27C98.0589 150.585 100.291 147.691 102.26 144.62C104.447 141.193 106.53 137.797 108.51 134.43C110.91 130.35 112.91 127.213 114.51 125.02C114.867 124.552 115.319 124.163 115.836 123.881C116.352 123.598 116.923 123.428 117.51 123.38C117.815 123.37 118.119 123.422 118.402 123.534C118.686 123.646 118.944 123.815 119.16 124.03C119.393 124.214 119.582 124.448 119.714 124.714C119.845 124.981 119.916 125.273 119.92 125.57L119.81 126.11C118.503 130.891 117.83 135.823 117.81 140.78C117.81 149.18 120.33 153.38 125.37 153.38L127.23 153.16C132.343 151.92 137.123 148.707 141.57 143.52C145.552 138.993 149.141 134.135 152.3 129C152.506 128.696 152.783 128.446 153.107 128.272C153.431 128.098 153.792 128.004 154.16 128C154.504 128.013 154.842 128.088 155.16 128.22C155.452 128.438 155.693 128.718 155.866 129.039C156.039 129.361 156.139 129.716 156.16 130.08C156.152 130.468 156.042 130.848 155.84 131.18C152.498 136.456 148.443 141.244 143.79 145.41C139.302 149.67 133.902 152.851 128 154.71C126.226 155.252 124.385 155.548 122.53 155.59C118.73 155.59 115.847 154.31 113.88 151.75C111.913 149.19 110.913 145.797 110.88 141.57L110.99 139.49C109.232 142.041 107.333 144.492 105.3 146.83C102.894 149.743 100.178 152.385 97.2 154.71C94.2 157.05 91.29 158.21 88.44 158.21C87.6986 158.207 86.9614 158.099 86.25 157.89C82.9567 156.79 81.3133 153.79 81.32 148.89C81.32 141.883 83.7667 133.343 88.66 123.27C89.2928 122.119 89.8055 120.906 90.19 119.65C88.19 120.823 85.5633 123.707 82.31 128.3C79.0567 132.893 75.39 138.477 71.31 145.05C67.59 150.97 63.61 157.103 59.37 163.45C55.13 169.797 50.7967 175.673 46.37 181.08C42.4653 186.014 37.9834 190.463 33.02 194.33C28.6733 197.777 24.42 199.497 20.26 199.49ZM140.7 175.4L139.27 175.08C138.951 175.069 138.645 174.953 138.4 174.75H138.29V174.64H138.18V174.53H138.07L137.96 174.2H137.85V174.09H137.74V173.76L137.52 173.65V172.45H137.74V172.12H137.85L137.96 171.79L151.75 152.08C150.776 148.289 150.262 144.394 150.22 140.48V138.83C150.2 134.211 150.568 129.598 151.32 125.04C151.679 121.897 152.415 118.808 153.51 115.84C153.849 115.313 154.32 114.885 154.876 114.597C155.432 114.309 156.054 114.172 156.68 114.2C158.032 114.21 159.356 114.586 160.51 115.29C161.75 115.95 162.37 116.75 162.37 117.7L162.16 118.47C160.931 121.544 160.013 124.733 159.42 127.99C158.51 132.722 157.999 137.522 157.89 142.34V143L158.98 141.25C163.36 134.897 167.193 129.277 170.48 124.39C173.767 119.503 175.767 116.437 176.48 115.19C176.628 114.883 176.862 114.626 177.153 114.448C177.443 114.271 177.779 114.181 178.12 114.19C178.51 114.197 178.891 114.311 179.22 114.52H179.33C179.815 114.833 180.223 115.251 180.526 115.742C180.829 116.234 181.018 116.786 181.08 117.36V117.69C181.08 117.77 180.2 118.97 178.45 121.31L172.54 129.52C170.127 132.853 167.9 135.917 165.86 138.71C163.82 141.503 162.65 143.147 162.35 143.64L158.19 149.64C158.463 152.392 159.016 155.11 159.84 157.75C160.64 159.937 161.733 161.177 163.12 161.47L164.12 161.58C166.673 161.58 169.593 160.267 172.88 157.64C176.284 154.822 179.467 151.746 182.4 148.44C185.467 145.007 188.06 141.977 190.18 139.35C191.34 137.963 192.287 136.87 193.02 136.07C194.664 134.003 196.499 132.094 198.5 130.37C198.653 130.203 198.838 130.069 199.044 129.976C199.251 129.883 199.474 129.833 199.7 129.83C200.011 129.839 200.316 129.912 200.598 130.042C200.88 130.173 201.132 130.359 201.34 130.59C201.68 130.947 201.876 131.417 201.89 131.91C201.887 132.234 201.806 132.553 201.652 132.839C201.499 133.124 201.279 133.368 201.01 133.55C199.224 135.158 197.579 136.914 196.09 138.8C195.8 139.17 195.39 139.64 194.88 140.23C192.993 142.49 190.257 145.49 186.67 149.23C183.132 152.98 179.248 156.389 175.07 159.41C170.9 162.47 166.93 164.01 163.13 164.01C161.183 164.017 159.278 163.442 157.66 162.36C155.713 160.94 154.197 159.009 153.28 156.78C151.82 158.967 150.613 160.683 149.66 161.93C148.551 163.375 147.564 164.911 146.71 166.52C145.511 168.744 144.556 171.091 143.86 173.52C143.518 174.303 142.893 174.928 142.11 175.27C141.644 175.35 141.173 175.393 140.7 175.4ZM279.64 159.4C278.812 159.388 278.008 159.119 277.34 158.63C276.173 157.83 275.59 156.37 275.59 154.25C275.67 151.416 276.004 148.594 276.59 145.82C277.323 142.32 278.127 138.707 279 134.98C279.873 131.253 280.677 127.677 281.41 124.25C281.992 121.587 282.327 118.875 282.41 116.15C282.537 115.067 282.263 113.975 281.64 113.08C280.027 113.3 278.203 114.687 276.17 117.24C274.137 119.793 271.91 122.933 269.49 126.66C265.84 132.346 261.832 137.794 257.49 142.97C253.471 148.048 248.25 152.045 242.3 154.6C239.892 155.548 237.337 156.066 234.75 156.13C233.105 156.198 231.466 155.899 229.952 155.255C228.437 154.612 227.083 153.64 225.99 152.41C223.87 149.93 222.81 146.427 222.81 141.9L222.92 140.04C221.162 142.588 219.262 145.035 217.23 147.37C214.824 150.286 212.108 152.932 209.13 155.26C206.21 157.593 203.363 158.76 200.59 158.76C199.848 158.758 199.11 158.647 198.4 158.43C195.04 157.26 193.4 154.24 193.4 149.34C193.4 142.847 195.48 135.11 199.64 126.13C199.92 125.669 200.328 125.299 200.814 125.066C201.301 124.833 201.845 124.748 202.38 124.82C203.229 124.813 204.063 125.042 204.79 125.48C205.116 125.611 205.395 125.838 205.589 126.131C205.784 126.424 205.885 126.769 205.88 127.12C205.874 127.465 205.799 127.805 205.66 128.12C205.153 129.22 204.243 131.373 202.93 134.58C201.617 137.787 200.36 141.26 199.16 145C198.134 147.962 197.544 151.058 197.41 154.19C197.41 156.67 198.29 157.92 200.04 157.92C202.04 157.92 204.38 156.49 207.16 153.65C210.177 150.499 212.958 147.13 215.48 143.57C218.253 139.63 220.623 135.943 222.59 132.51C224.077 130.181 225.362 127.729 226.43 125.18C226.634 124.777 226.948 124.439 227.335 124.206C227.723 123.972 228.168 123.852 228.62 123.86C229.4 123.854 230.163 124.084 230.81 124.52C231.123 124.669 231.391 124.9 231.583 125.189C231.775 125.478 231.884 125.813 231.9 126.16L231.79 126.6C230.549 131.132 229.924 135.811 229.93 140.51C229.93 149.343 232.597 153.757 237.93 153.75C243.99 153.17 249.467 150.033 254.36 144.34C258.544 139.415 262.348 134.18 265.74 128.68C268.081 124.752 270.68 120.984 273.52 117.4C276.073 114.26 278.627 112.693 281.18 112.7L282.39 112.59C286.623 112.59 288.74 115.327 288.74 120.8C288.63 125.189 287.893 129.54 286.55 133.72C285.09 138.54 283.63 142.957 282.17 146.97C281.068 149.753 280.153 152.606 279.43 155.51L282.28 150.51C285.493 144.737 288.887 138.97 292.46 133.21C295.926 127.683 299.882 122.479 304.28 117.66C304.654 117.219 305.111 116.856 305.626 116.594C306.141 116.331 306.703 116.173 307.28 116.13C308.807 116.13 310.597 117.443 312.65 120.07L313.85 121.49C314.805 122.957 315.868 124.351 317.03 125.66C317.527 126.22 318.132 126.674 318.809 126.994C319.487 127.313 320.222 127.492 320.97 127.52C322.111 127.443 323.191 126.977 324.03 126.2C324.371 125.918 324.798 125.763 325.24 125.76C325.536 125.767 325.827 125.84 326.092 125.973C326.356 126.106 326.588 126.296 326.77 126.53C326.962 126.695 327.12 126.897 327.233 127.123C327.347 127.35 327.414 127.597 327.43 127.85C327.411 128.171 327.323 128.484 327.171 128.767C327.019 129.05 326.807 129.297 326.55 129.49C325.164 130.725 323.403 131.457 321.55 131.57C319.864 131.535 318.241 130.917 316.96 129.82C314.157 127.308 311.791 124.348 309.96 121.06C308.43 118.58 307.4 117.33 306.89 117.33C303.524 121.448 300.514 125.844 297.89 130.47C294.897 135.657 292.05 140.877 289.35 146.13C287.31 150.07 285.413 153.61 283.66 156.75C283.211 157.61 282.576 158.358 281.8 158.94C281.144 159.311 280.392 159.478 279.64 159.42V159.4ZM282.38 281.04C281.88 283.897 281.623 286.79 281.61 289.69C281.61 297.79 283.507 304.543 287.3 309.95C289.004 312.532 291.266 314.699 293.919 316.29C296.573 317.88 299.55 318.854 302.63 319.14C304.38 319.29 306.1 319.36 307.78 319.36C318.14 319.36 327.19 316.77 334.93 311.59C342.91 306.225 349.604 299.159 354.53 290.9C360.132 281.729 364.503 271.861 367.53 261.55C370.934 250.546 373.353 239.262 374.76 227.83C376.26 216.615 377.029 205.315 377.06 194C377.173 182.148 376.219 170.311 374.21 158.63C343.403 185.803 320.857 209.593 306.57 230C292.283 250.407 284.22 267.427 282.38 281.06V281.04ZM372.27 120.86C375.19 130.487 377.633 139.72 379.6 148.56C386.76 142.56 394.317 136.463 402.27 130.27C402.423 130.103 402.608 129.969 402.814 129.876C403.021 129.783 403.244 129.733 403.47 129.73C403.778 129.739 404.079 129.823 404.347 129.975C404.616 130.126 404.843 130.341 405.01 130.6C405.176 130.755 405.31 130.942 405.403 131.15C405.495 131.358 405.546 131.582 405.55 131.81C405.539 132.116 405.454 132.415 405.303 132.682C405.151 132.948 404.938 133.174 404.68 133.34C396.14 140.133 388.11 146.74 380.59 153.16C383.07 166.073 384.242 179.202 384.09 192.35C384.059 203.997 383.254 215.63 381.68 227.17C380.211 238.934 377.722 250.548 374.24 261.88C371.07 272.478 366.504 282.607 360.66 292C355.517 300.491 348.565 307.743 340.3 313.24C332.34 318.573 323.007 321.24 312.3 321.24C308.999 321.23 305.704 320.976 302.44 320.48C295.473 319.622 289.066 316.229 284.44 310.95C279.84 305.77 277.54 298.617 277.54 289.49C277.551 286.474 277.805 283.465 278.3 280.49C280.2 266.41 288.56 248.743 303.38 227.49C318.2 206.237 341.533 181.71 373.38 153.91C372.94 151.65 372.467 149.133 371.96 146.36C370.28 136.653 368.28 127.42 365.96 118.66C365.81 119.02 365.56 119.66 365.19 120.41C364.31 122.597 362.923 125.7 361.03 129.72C359.137 133.74 357.007 137.833 354.64 142C352.454 145.858 349.895 149.492 347 152.85C344.287 155.843 341.62 157.34 339 157.34C338.285 157.326 337.579 157.176 336.92 156.9C334.813 155.947 333.353 153.947 332.54 150.9C332.16 149.173 331.979 147.408 332 145.64C332.085 141.613 332.636 137.61 333.64 133.71C334.853 128.499 336.526 123.405 338.64 118.49C339.1 117.577 339.88 116.866 340.83 116.49C341.779 115.998 342.831 115.734 343.9 115.72C344.668 115.689 345.428 115.88 346.09 116.27C346.383 116.45 346.622 116.706 346.782 117.011C346.942 117.315 347.017 117.657 347 118C346.977 118.561 346.866 119.114 346.67 119.64C346.16 120.74 345.13 123.29 343.6 127.31C342.07 131.33 340.68 135.74 339.22 140.56C337.993 144.35 337.293 148.29 337.14 152.27C337.14 154.39 337.69 155.74 338.78 156.27C338.915 156.343 339.066 156.381 339.22 156.38C340.753 156.38 342.87 154.227 345.57 149.92C348.27 145.613 351.153 140.723 354.22 135.25C356.48 131.25 358.597 127.583 360.57 124.25C362.015 121.759 363.743 119.444 365.72 117.35C366.332 116.737 367.154 116.38 368.02 116.35C369.76 116.45 371.177 117.96 372.27 120.88V120.86Z" fill="#E6B96D"/>
	</g>
</svg>