<?xml version="1.0" encoding="utf-8"?>
<!-- Generator: Adobe Illustrator 26.3.1, SVG Export Plug-In . SVG Version: 6.00 Build 0)  -->
<svg version="1.1" id="Слой_1" xmlns="http://www.w3.org/2000/svg" xmlns:xlink="http://www.w3.org/1999/xlink" x="0px" y="0px"
	 viewBox="0 0 18 20" style="enable-background:new 0 0 18 20;" xml:space="preserve">
<path d="M9,0.7C4.4,0.7,0.7,4.4,0.7,9c0,2.7,1.3,5,3.2,6.6v3.2v0.5L4.4,19l3.1-1.8c0.5,0.1,1,0.1,1.5,0.1c4.6,0,8.3-3.7,8.3-8.3
	S13.6,0.7,9,0.7z M9,16.7c-0.5,0-1,0-1.5-0.1l-0.1,0l-0.2,0l-2.8,1.6v-2.8v-0.2l-0.1-0.1c-1.8-1.3-3-3.5-3-6.1
	c0-4.3,3.4-7.7,7.7-7.7s7.7,3.4,7.7,7.7S13.3,16.7,9,16.7z"/>
<path d="M12.6,11c-0.2-0.1-1.2-0.6-1.3-0.6c-0.2-0.1-0.3-0.1-0.4,0.1c-0.1,0.2-0.5,0.6-0.6,0.7c-0.1,0.1-0.2,0.1-0.4,0.1
	c-0.2-0.1-0.8-0.3-1.6-0.9c-0.6-0.5-1-1.1-1.1-1.3C7,8.9,7.1,8.8,7.2,8.7s0.2-0.2,0.3-0.3c0.1-0.1,0.1-0.2,0.2-0.3
	c0.1-0.1,0-0.2,0-0.3c0-0.1-0.4-1-0.6-1.4C6.9,6,6.7,6.1,6.6,6C6.5,6,6.3,6,6.2,6C6.1,6,5.9,6,5.7,6.2C5.5,6.5,5,6.9,5,7.8
	s0.7,1.8,0.8,1.9c0.1,0.1,1.4,2,3.4,2.8c0.5,0.2,0.8,0.3,1.1,0.4c0.5,0.1,0.9,0.1,1.2,0.1c0.4-0.1,1.2-0.4,1.3-0.9
	c0.2-0.4,0.2-0.8,0.1-0.9C12.9,11.2,12.8,11.1,12.6,11z"/>
</svg>
