<?xml version="1.0" encoding="utf-8"?>
<!-- Generator: Adobe Illustrator 26.3.1, SVG Export Plug-In . SVG Version: 6.00 Build 0)  -->
<svg version="1.1" id="Слой_1" xmlns="http://www.w3.org/2000/svg" xmlns:xlink="http://www.w3.org/1999/xlink" x="0px" y="0px"
	 viewBox="0 0 20 14" style="enable-background:new 0 0 20 14;" xml:space="preserve">
<path d="M8,10l5.2-3L8,4V10z M19.6,2.2c0.1,0.5,0.2,1.1,0.3,1.9c0.1,0.8,0.1,1.5,0.1,2.1L20,7c0,2.2-0.2,3.8-0.4,4.8
	c-0.2,0.9-0.8,1.5-1.7,1.7c-0.5,0.1-1.3,0.2-2.6,0.3c-1.3,0.1-2.5,0.1-3.6,0.1L10,14c-4.2,0-6.8-0.2-7.8-0.4
	c-0.9-0.2-1.5-0.8-1.7-1.7c-0.1-0.5-0.2-1.1-0.3-1.9C0.1,9.1,0.1,8.4,0.1,7.8L0,7c0-2.2,0.2-3.8,0.4-4.8c0.2-0.9,0.8-1.5,1.7-1.7
	c0.5-0.1,1.3-0.2,2.7-0.3c1.3-0.1,2.5-0.1,3.6-0.1L10,0c4.2,0,6.8,0.2,7.8,0.4C18.7,0.7,19.3,1.3,19.6,2.2z"/>
</svg>
