<?xml version="1.0" encoding="utf-8"?>
<!-- Generator: Adobe Illustrator 26.3.1, SVG Export Plug-In . SVG Version: 6.00 Build 0)  -->
<svg version="1.1" id="Слой_1" xmlns="http://www.w3.org/2000/svg" xmlns:xlink="http://www.w3.org/1999/xlink" x="0px" y="0px"
	 viewBox="0 0 20 20" style="enable-background:new 0 0 20 20;" xml:space="preserve">
<path d="M4.6,0C2.9,0,1.5,1.4,1.5,3.1V11h1V3.1C2.6,1.9,3.5,1,4.6,1c1,0,1.8,0.6,2,1.5h1C7.4,1.1,6.1,0,4.6,0z M7.2,3.1
	C6,3.1,5.1,4,5.1,5.1h4.1C9.2,4,8.3,3.1,7.2,3.1z M5.6,6.2c-0.3,0-0.5,0.2-0.5,0.5v0.5c0,0.3,0.2,0.5,0.5,0.5c0.3,0,0.5-0.2,0.5-0.5
	V6.7C6.2,6.4,5.9,6.2,5.6,6.2z M8.7,6.2c-0.3,0-0.5,0.2-0.5,0.5v0.5c0,0.3,0.2,0.5,0.5,0.5c0.3,0,0.5-0.2,0.5-0.5V6.7
	C9.2,6.4,9,6.2,8.7,6.2z M7.2,7.9c-0.3,0-0.5,0.2-0.5,0.5V9c0,0.3,0.2,0.5,0.5,0.5c0.3,0,0.5-0.2,0.5-0.5V8.5
	C7.7,8.2,7.5,7.9,7.2,7.9z M0,11.5c0,3.6,2.9,6.4,6.4,6.4h6.7c3.6,0,6.4-2.9,6.4-6.4H0z M5.2,18.5C5.4,19.3,6.1,20,6.9,20h5.6
	c0.8,0,1.5-0.7,1.7-1.5H5.2z"/>
</svg>
