<?xml version="1.0" encoding="utf-8"?>
<!-- Generator: Adobe Illustrator 26.3.1, SVG Export Plug-In . SVG Version: 6.00 Build 0)  -->
<svg version="1.1" id="Слой_1" xmlns="http://www.w3.org/2000/svg" xmlns:xlink="http://www.w3.org/1999/xlink" x="0px" y="0px"
	 viewBox="0 0 30 12" style="enable-background:new 0 0 30 12;" xml:space="preserve">
<path d="M5,5.2C4.4,5.2,3.9,5.6,3.9,6v0.1h8.8V6c0-0.4-0.5-0.8-1.1-0.8H5z"/>
<path d="M18.5,5.2c-0.6,0-1.1,0.3-1.1,0.8v0.1h8.8V6c0-0.4-0.5-0.8-1.1-0.8H18.5z"/>
<path d="M5,4.8h6.6c0.7,0,1.3,0.4,1.5,0.9h4c0.1-0.5,0.7-0.9,1.5-0.9h6.6c0.7,0,1.3,0.4,1.5,0.9h2.1V2.2h-1.7V0L3,0v2.3H1.3v3.5h2.3
	C3.6,5.2,4.3,4.8,5,4.8L5,4.8z"/>
<path d="M1.8,10.6c0,0.3,0.2,0.5,0.4,0.5c0.2,0,0.4-0.2,0.4-0.5v-0.1H1.8L1.8,10.6z"/>
<path d="M0,6.5h30v3.8H0V6.5z"/>
<path d="M27.3,10.6c0,0.3,0.2,0.5,0.4,0.5c0.2,0,0.4-0.2,0.4-0.5v-0.1h-0.8L27.3,10.6z"/>
</svg>
