<?xml version="1.0" encoding="utf-8"?>
<!-- Generator: Adobe Illustrator 26.3.1, SVG Export Plug-In . SVG Version: 6.00 Build 0)  -->
<svg version="1.1" id="Слой_1" xmlns="http://www.w3.org/2000/svg" xmlns:xlink="http://www.w3.org/1999/xlink" x="0px" y="0px"
	 viewBox="0 0 23 24" style="enable-background:new 0 0 23 24;" xml:space="preserve">
<path d="M22.5,6.1c0-0.1,0-0.1-0.1-0.2c0-0.1-0.1-0.1-0.2-0.2C22,5.4,21.7,5.2,21.4,5l-8.3-4.6c-0.9-0.5-2-0.5-2.9,0L1.9,5
	C1.6,5.2,1.3,5.4,1.1,5.8C1,5.8,0.9,5.9,0.9,5.9c0,0.1-0.1,0.1-0.1,0.2C0.6,6.5,0.5,6.9,0.5,7.4v9.2c0,0.5,0.1,1,0.4,1.4
	c0.3,0.4,0.6,0.8,1.1,1l8.3,4.6c0.3,0.2,0.7,0.3,1.1,0.3c0.1,0.1,0.2,0.1,0.3,0.1c0.1,0,0.3-0.1,0.3-0.1c0.4,0,0.7-0.1,1.1-0.3
	l8.3-4.6c0.4-0.2,0.8-0.6,1-1c0.3-0.4,0.4-0.9,0.4-1.4v0V7.4C22.8,6.9,22.7,6.5,22.5,6.1z M10.7,1.2C11,1.1,11.3,1,11.7,1
	s0.7,0.1,0.9,0.2l8.3,4.6C21,5.9,21.1,6,21.2,6.1l-9.5,5.3L2.1,6.1C2.2,6,2.3,5.9,2.4,5.8L10.7,1.2z M2.4,18.1
	c-0.3-0.2-0.5-0.4-0.7-0.7c-0.2-0.3-0.2-0.6-0.2-0.9V7.4c0-0.2,0-0.3,0.1-0.5l9.6,5.4v10.6c-0.2,0-0.3-0.1-0.4-0.2L2.4,18.1z
	 M21.8,16.5c0,0.3-0.1,0.6-0.2,0.9c-0.2,0.3-0.4,0.5-0.7,0.7l-8.3,4.6c-0.1,0.1-0.3,0.1-0.4,0.2V12.3l9.6-5.4c0,0.2,0.1,0.3,0.1,0.5
	V16.5z"/>
</svg>
