<?xml version="1.0" encoding="utf-8"?>
<!-- Generator: Adobe Illustrator 26.3.1, SVG Export Plug-In . SVG Version: 6.00 Build 0)  -->
<svg version="1.1" id="Слой_1" xmlns="http://www.w3.org/2000/svg" xmlns:xlink="http://www.w3.org/1999/xlink" x="0px" y="0px"
	 viewBox="0 0 23 21" style="enable-background:new 0 0 23 21;" xml:space="preserve">
<path d="M11.5,0c-0.1,0-0.2,0.1-0.3,0.2l-11,10.6c-0.2,0.2-0.3,0.6-0.1,0.8c0.2,0.2,0.6,0.2,0.8,0L11.5,1.3l10.6,10.2
	c0.2,0.2,0.6,0.2,0.7,0c0.2-0.2,0.2-0.6,0-0.8L11.9,0.2C11.8,0,11.6,0,11.5,0z M11.5,1.7l-9.8,9.4h0.9v7.6c0,1.1,1.1,2.2,2.1,2.3
	h4.6c0-2,0-4.3,0-6.3h4.3c0,2,0,4.3,0,6.3h4.5c1.1,0,2.1-1.1,2.1-2.3v-7.6h0.9L11.5,1.7z"/>
</svg>
