<?xml version="1.0" encoding="utf-8"?>
<!-- Generator: Adobe Illustrator 26.3.1, SVG Export Plug-In . SVG Version: 6.00 Build 0)  -->
<svg version="1.1" id="Слой_1" xmlns="http://www.w3.org/2000/svg" xmlns:xlink="http://www.w3.org/1999/xlink" x="0px" y="0px"
	 viewBox="0 0 18 18" style="enable-background:new 0 0 18 18;" xml:space="preserve">
<path d="M9,6C7.3,6,6,7.3,6,9c0,1.7,1.3,3,3,3c1.7,0,3-1.3,3-3C12,7.3,10.7,6,9,6z M18,9c0-1.2,0-2.5-0.1-3.7
	c-0.1-1.4-0.4-2.7-1.5-3.8c-1.1-1.1-2.3-1.4-3.8-1.5C11.5,0,10.2,0,9,0C7.8,0,6.5,0,5.3,0.1C3.8,0.1,2.6,0.5,1.5,1.5
	C0.5,2.6,0.1,3.8,0.1,5.3C0,6.5,0,7.8,0,9c0,1.2,0,2.5,0.1,3.7c0.1,1.4,0.4,2.7,1.5,3.8c1.1,1.1,2.3,1.4,3.8,1.5C6.5,18,7.8,18,9,18
	c1.2,0,2.5,0,3.7-0.1c1.4-0.1,2.7-0.4,3.8-1.5c1.1-1.1,1.4-2.3,1.5-3.8C18,11.5,18,10.2,18,9z M9,13.6c-2.6,0-4.6-2.1-4.6-4.6
	c0-2.6,2.1-4.6,4.6-4.6c2.6,0,4.6,2.1,4.6,4.6C13.6,11.6,11.6,13.6,9,13.6z M13.8,5.3c-0.6,0-1.1-0.5-1.1-1.1c0-0.6,0.5-1.1,1.1-1.1
	c0.6,0,1.1,0.5,1.1,1.1c0,0.1,0,0.3-0.1,0.4c-0.1,0.1-0.1,0.2-0.2,0.4c-0.1,0.1-0.2,0.2-0.4,0.2C14.1,5.2,13.9,5.3,13.8,5.3z"/>
</svg>
