<?xml version="1.0" encoding="utf-8"?>
<!-- Generator: Adobe Illustrator 26.3.1, SVG Export Plug-In . SVG Version: 6.00 Build 0)  -->
<svg version="1.1" id="Слой_1" xmlns="http://www.w3.org/2000/svg" xmlns:xlink="http://www.w3.org/1999/xlink" x="0px" y="0px"
	 viewBox="0 0 18 16" style="enable-background:new 0 0 18 16;" xml:space="preserve">
<path d="M2.1,7.8C1.7,7.4,1.4,6.9,1.2,6.4C1,5.8,0.9,5.3,1,4.7s0.2-1.1,0.5-1.6c0.3-0.5,0.6-0.9,1.1-1.3C3,1.4,3.5,1.2,4.1,1
	c0.6-0.1,1.1-0.1,1.7,0c0.6,0.1,1.1,0.3,1.6,0.7c0.3,0.2,0.6,0.5,0.8,0.8C8.4,2.8,8.7,3,9,3s0.6-0.2,0.8-0.4
	c0.2-0.3,0.5-0.6,0.8-0.8c0.5-0.3,1-0.6,1.6-0.7c0.6-0.1,1.1-0.1,1.7,0c0.6,0.1,1.1,0.4,1.5,0.7c0.5,0.3,0.8,0.8,1.1,1.3
	C16.8,3.6,17,4.1,17,4.7c0,0.6,0,1.1-0.2,1.7c-0.2,0.5-0.5,1-0.9,1.4l-6.5,6.5c-0.2,0.2-0.5,0.2-0.7,0L2.1,7.8L2.1,7.8z M16.5,8.5
	C17,8,17.4,7.4,17.7,6.8s0.4-1.3,0.3-2c0-0.7-0.2-1.4-0.5-2c-0.3-0.6-0.7-1.2-1.2-1.6c-0.5-0.4-1.1-0.8-1.8-1C13.8,0,13.1,0,12.4,0
	c-0.7,0.1-1.3,0.3-1.9,0.6C9.9,1,9.4,1.5,9,2C8.6,1.5,8.1,1,7.5,0.7S6.2,0.1,5.6,0C4.9,0,4.2,0,3.5,0.2c-0.7,0.2-1.3,0.5-1.8,1
	c-0.5,0.4-0.9,1-1.2,1.6S0,4.1,0,4.8c0,0.7,0.1,1.4,0.3,2C0.6,7.4,1,8,1.5,8.5l6.8,6.8c0.4,0.4,1,0.4,1.4,0L16.5,8.5L16.5,8.5z"/>
</svg>
