<?xml version="1.0" encoding="utf-8"?>
<!-- Generator: Adobe Illustrator 26.3.1, SVG Export Plug-In . SVG Version: 6.00 Build 0)  -->
<svg version="1.1" id="Слой_1" xmlns="http://www.w3.org/2000/svg" xmlns:xlink="http://www.w3.org/1999/xlink" x="0px" y="0px"
	 viewBox="0 0 64 64" style="enable-background:new 0 0 64 64;" xml:space="preserve">
<path d="M34.9,54.9c-3.3-9.1-5.8-18.9-4.9-28.7c0.4-4.1,1.4-8,3-11.8c0.2-0.5,0.4-1,0.7-1.4c0.1-0.2,0.2-0.5,0.4-0.7
	c0.1-0.2,0-0.1,0,0l0.3-0.5c0.6-0.9,1.2-1.8,1.8-2.6c1.2-1.6,2.6-3,4.1-4.2C42.1,3.5,44,2.5,46,1.8c1.8-0.5,4-0.7,5.6,0.5
	c1.5,1.3,1.7,3.8,1.2,5.7c-0.1,0.5-0.3,0.9-0.5,1.4c-0.1,0.3-0.3,0.5-0.4,0.8c-0.1,0.3,0.2-0.3,0.2-0.3c0,0-0.3,0.5-0.4,0.6
	c-0.6,0.9-1.3,1.7-2,2.5c-3.1,3.2-6.6,5.8-10.6,7.8c-4.3,2.2-8.9,3.3-13.5,4.6c-4.3,1.1-8.5,2.8-12.4,4.9C9.5,32.4,6.1,35,3,38
	c-0.8,0.8-1.5,1.5-2.2,2.4c-0.3,0.4-0.4,1-0.8,1.4c6.3-6.9,14.4-12,23.3-14.5c4.9-1.4,9.8-2.5,14.4-4.7c4.2-2,8.1-4.8,11.3-8.2
	c1.4-1.5,2.6-3.2,3.5-5c1.1-1.8,1.5-3.8,1.2-5.9c-0.2-1-0.8-2-1.6-2.6c-0.8-0.6-1.9-0.9-2.9-0.8C46.9,0.2,44.8,1,43,2.3
	c-3.4,2.3-6.3,5.4-8.3,9.1c-2.1,3.6-3.7,7.5-4.6,11.5c-2.1,9.9-0.2,20.2,2.9,29.7c0.4,1.2,0.8,2.5,1.3,3.7c0.1-0.2,0.2-0.5,0.4-0.7
	C34.6,55.5,35,55,34.9,54.9"/>
<path d="M62.5,37.1c0,2.7-0.4,5.4-1.2,8c-0.4,1.3-0.9,2.6-1.6,3.9c-0.1,0.1-0.5,0.9-0.2,0.4c-0.2,0.3-0.4,0.6-0.6,1
	c-0.4,0.6-0.8,1.1-1.2,1.7c-3.7,4.8-8.8,8.1-14.6,9.5c-5.8,1.4-11.9,0.7-17.2-1.9c-5.4-2.6-9.7-7-12.2-12.5
	c-2.5-5.5-3.2-11.7-1.8-17.5c0.3-1.3,0.7-2.6,1.2-3.9c0.2-0.6,0.5-1.2,0.8-1.7c0.1-0.1,0.1-0.3,0.2-0.5s0.3-0.6,0-0.1
	c0.2-0.3,0.4-0.6,0.6-1c3.1-4.8,7.6-8.4,12.9-10.3c5.3-1.9,11-2.1,16.4-0.4c5.4,1.6,10.1,5,13.4,9.6C60.7,25.9,62.5,31.4,62.5,37.1
	c0-0.2,0.3-0.5,0.4-0.7c0.1-0.1,0.4-0.5,0.4-0.7c0-5.6-1.7-11.1-5-15.6c-3.2-4.5-7.8-7.9-13-9.6c-5.2-1.7-10.9-1.7-16.1,0
	c-5.2,1.7-9.8,5.1-13,9.7c-3.2,4.3-5.1,9.5-5.6,14.9c-0.4,5.6,0.9,11.2,3.8,15.9s7.2,8.5,12.3,10.6c5.1,2.1,10.7,2.6,16.1,1.2
	c5.3-1.3,10.1-4.3,13.7-8.6c3.4-4.1,5.7-9,6.6-14.3c0.2-1.4,0.3-2.8,0.3-4.2c0,0.2-0.3,0.5-0.4,0.7C62.7,36.6,62.4,36.9,62.5,37.1"
	/>
<path d="M48.7,53.8c-1.5-2.9-2.8-5.8-3.9-8.9c-1.2-3-2-6.1-2.2-9.3c-0.1-1.4,0-2.7,0.2-4.1c0.3-1.4,0.7-2.7,1.3-4
	c0.2-0.4-0.5,0.7-0.1,0.2l0.3-0.5c0.2-0.3,0.4-0.6,0.6-0.8c0.5-0.5,1-1,1.5-1.4c0.5-0.4,1.1-0.7,1.8-0.8c0.6-0.2,1.3-0.2,1.9-0.1
	c0.6,0.1,1.1,0.4,1.6,0.8c0.4,0.4,0.8,0.9,0.9,1.5c0.3,1.5,0.3,2.9,0,4.4c-0.2,1.4-0.5,2.7-0.9,4.1c-0.2,0.7-0.5,1.4-0.8,2.1
	c-0.1,0.3-0.2,0.5-0.3,0.8s-0.3,0.5-0.4,0.8c-0.2,0.5,0.2-0.3-0.1,0.2c-1.5,2.4-3.5,4.4-5.8,6.1c-2.2,1.5-4.8,2.6-7.4,3
	c-3,0.5-6,0.2-8.8-0.8c-2.8-1-5.4-2.8-7.3-5.1c0.1,0.1-0.9,1.2-0.8,1.4c1.9,2.2,4.4,4,7.2,5c2.8,1,5.7,1.3,8.6,0.9
	c2.9-0.5,5.6-1.6,8-3.2c2.4-1.7,4.4-3.8,5.9-6.4c1.5-2.4,2.7-5.1,3.3-7.9c0.3-1.5,0.5-3,0.5-4.5c0-1.5-0.2-3-1.6-3.8
	c-2.7-1.6-5.6,0.7-7.1,2.8c-1.6,2.2-2.6,4.7-3.1,7.3c-0.4,3.7,0,7.4,1.3,10.9c1.3,3.8,2.9,7.4,4.7,10.9c0-0.1,0.4-0.6,0.4-0.7
	C48.4,54.5,48.8,53.9,48.7,53.8"/>
</svg>
