<?xml version="1.0" encoding="utf-8"?>
<!-- Generator: Adobe Illustrator 26.3.1, SVG Export Plug-In . SVG Version: 6.00 Build 0)  -->
<svg version="1.1" id="Слой_1" xmlns="http://www.w3.org/2000/svg" xmlns:xlink="http://www.w3.org/1999/xlink" x="0px" y="0px"
	 viewBox="0 0 304 64" style="enable-background:new 0 0 304 64;" xml:space="preserve">
<path d="M89,33.7v7.6c1.3,0.9,2.9,1.4,4.5,1.4c4,0,5.3-3.4,5.3-9.4c0-4.7-0.7-8.6-4.3-8.6C91.4,24.7,89.2,28,89,33.7z M90.4,53.1
	c0.6,0,0.9-0.1,1.2-0.1c0,0,0.1,0,0.1,0c0,0,0.1,0,0.1,0.1c0,0,0.1,0.1,0.1,0.1c0,0,0,0.1,0,0.1c0,0.1,0,0.1,0,0.1
	c0,0,0,0.1-0.1,0.1c0,0-0.1,0.1-0.1,0.1c0,0-0.1,0-0.1,0c-0.3,0-0.7-0.1-1.2-0.1c-0.9,0-1.9-0.1-2.9-0.1c-1,0-2,0.1-2.9,0.1
	c-0.5,0-0.9,0.1-1.2,0.1c-0.1,0-0.1,0-0.2,0c-0.1,0-0.1,0-0.1-0.1c0,0-0.1-0.1-0.1-0.1c0-0.1,0-0.1,0-0.2c0-0.1,0-0.1,0-0.1
	c0,0,0-0.1,0.1-0.1c0,0,0.1-0.1,0.1-0.1c0,0,0.1,0,0.1,0c0.3,0,0.6,0.1,1.2,0.1c1.1,0,1.4-0.3,1.4-1.2V27.1c0-1.1-0.3-1.4-1.5-1.4
	c-0.4,0-0.8,0-1,0S83,25.6,83,25.4s0.2-0.4,0.4-0.4s0.7,0,1,0c1.2,0,2.5-0.3,3.6-0.8c0.4-0.3,0.5-0.4,0.7-0.4c0.2,0,0.2,0.1,0.2,0.5
	v4.6c1.1-3.7,3.1-5.1,6.1-5.1c4.3,0,6.8,3.1,6.8,9.5c0,7-2.7,10.2-8,10.2c-1.7,0-3.4-0.4-5-1.2v9.6C88.9,52.7,89.2,53,90.4,53.1"/>
<path d="M108.5,33.7v0.7h3.6c3.9,0,5.5-1.6,5.5-4.8c0-3.2-1.4-4.9-4-4.9C110.4,24.5,108.5,27.4,108.5,33.7L108.5,33.7z M120.5,29.6
	c0,3.7-2.8,5.5-8.3,5.5h-3.7c0.3,5.7,2.4,7.4,5.8,7.4c1.6,0,3.2-0.3,4.7-0.9c0.4-0.2,0.8-0.4,1.1-0.7c0.3-0.1,0.5-0.1,0.6,0
	c0.1,0.1,0.1,0.4-0.2,0.7c-0.4,0.2-0.4,0.2-1.2,0.6c-1.7,0.8-3.5,1.3-5.3,1.2c-5.9,0-8.6-3.8-8.6-9.6c0-5.8,2.8-9.9,8.3-9.9
	C117.8,23.7,120.4,25.8,120.5,29.6"/>
<path d="M132,25.7c-1.5,1.2-2.4,3.7-2.4,8.4v7.1c0,0.9,0.3,1.2,1.4,1.2c0.5,0,0.9-0.1,1.1-0.1c0.3,0,0.4,0.1,0.4,0.4
	c0,0.2-0.2,0.4-0.4,0.4c-0.2,0-0.6-0.1-1.1-0.1c-1,0-1.9-0.1-2.9-0.1c-1,0-1.9,0.1-2.9,0.1c-0.5,0-0.9,0.1-1.2,0.1
	c-0.1,0-0.2,0-0.3-0.1c-0.1-0.1-0.1-0.2-0.1-0.3c0-0.1,0-0.2,0.1-0.3c0.1-0.1,0.2-0.1,0.3-0.1c0.3,0,0.6,0.1,1.2,0.1
	c1.1,0,1.4-0.3,1.4-1.2v-14c0-1.1-0.3-1.4-1.5-1.4h-1c-0.2,0-0.5-0.1-0.5-0.3c0-0.2,0.3-0.4,0.5-0.4c0.2,0,0.7,0,1,0
	c1.2,0,2.5-0.3,3.6-0.8c0.3-0.3,0.5-0.4,0.7-0.4c0.2,0,0.3,0.1,0.3,0.5v3.9c0.4-1.3,1.2-2.5,2.2-3.3c1.1-0.8,2.4-1.2,3.7-1.2
	c3.3,0,5.7,2,5.7,6.6v9.2c0,1.9,0.6,2.9,1.7,2.9c0.6,0,1.1-0.3,1.5-0.7c0.2-0.2,0.5-0.3,0.6-0.1c0.1,0.2,0,0.5-0.2,0.6
	c-0.8,0.7-1.9,1-2.9,0.9c-2.5,0-3.8-1.4-3.8-4.8v-8.4c0-3.3-1-5.1-3.5-5.1C133.7,24.8,132.8,25.1,132,25.7"/>
<path d="M148.9,24.8c1.2,0,2.3-3.4,2.3-5.5c0-0.4,0.1-0.6,0.4-0.6c0.2,0,0.4,0.2,0.4,0.6v5.5h4.7c0.4,0,0.5,0.1,0.5,0.5
	s-0.1,0.4-0.5,0.4h-4.7v12.2c0,3.3,0.8,4.5,2.5,4.5c0.4,0,0.8,0,1.2-0.1c0.4-0.1,0.7-0.3,1-0.6c0.2-0.1,0.4-0.4,0.6-0.6
	c0.3-0.2,0.4-0.3,0.6-0.1c0.1,0.2,0.1,0.4-0.2,0.7c-0.2,0.2-0.4,0.4-0.6,0.5c-0.9,0.7-2,1.1-3.1,1c-2.9,0-4.9-1.4-4.9-5.5v-12h-2.3
	c-0.4,0-0.5-0.1-0.5-0.4c0-0.3,0.1-0.5,0.5-0.5H148.9z"/>
<path d="M173.2,29.6c0-3.1-1-4.8-3.5-4.8c-0.9,0-1.9,0.3-2.6,0.9c-1.4,1.1-2.4,3.5-2.5,7.7v7.7c0,0.9,0.3,1.2,1.4,1.2
	c0.5,0,0.9-0.1,1.2-0.1c0,0,0.1,0,0.1,0c0,0,0.1,0,0.1,0.1c0,0,0.1,0.1,0.1,0.1c0,0,0,0.1,0,0.1c0,0.1,0,0.1,0,0.1
	c0,0,0,0.1-0.1,0.1c0,0-0.1,0.1-0.1,0.1c0,0-0.1,0-0.1,0c-0.2,0-0.7-0.1-1.2-0.1c-0.9,0-1.9-0.1-2.9-0.1c-1,0-2,0.1-2.9,0.1
	c-0.5,0-0.9,0.1-1.2,0.1c-0.1,0-0.2,0-0.3-0.1c-0.1-0.1-0.1-0.2-0.1-0.3c0-0.1,0-0.2,0.1-0.3c0.1-0.1,0.2-0.1,0.3-0.1
	c0.3,0,0.6,0.1,1.2,0.1c1.1,0,1.4-0.3,1.4-1.2V19c0-1.1-0.3-1.5-1.6-1.5c-0.3,0-0.7,0.1-1,0.1c-0.3,0-0.4-0.1-0.4-0.4
	c0-0.3,0.2-0.4,0.5-0.4c0.2,0,0.7,0,1,0c1.2,0,2.5-0.3,3.6-0.8c0.3-0.3,0.5-0.4,0.7-0.4c0.2,0,0.3,0.1,0.3,0.4v12.2
	c0.4-1.3,1.1-2.5,2.2-3.3c1.1-0.8,2.4-1.3,3.8-1.2c3.3,0,5.7,1.9,5.7,6.2v9.5c0,1.9,0.6,2.9,1.7,2.9c0.3,0,0.6-0.1,0.8-0.2
	c0.3-0.1,0.5-0.3,0.7-0.5c0.2-0.2,0.5-0.3,0.7-0.1c0.2,0.2,0,0.5-0.3,0.6c-0.8,0.7-1.9,1-2.9,0.9c-2.5,0-3.7-1.4-3.7-4.8V29.6z"/>
<path d="M185.3,33.6c0,5.5,1.5,9.1,5.3,9.1s5.3-3.6,5.3-9.1c0-5.5-1.5-9.1-5.3-9.1S185.3,28.1,185.3,33.6z M190.6,23.8
	c6.1,0,8.5,4.4,8.5,9.8c0,5.4-2.4,9.8-8.5,9.8s-8.5-4.4-8.5-9.8C182.1,28.1,184.5,23.8,190.6,23.8z"/>
<path d="M213.7,41.3c1.5-1.2,2.4-3.7,2.4-8.4v-5.8c0-1.1-0.3-1.4-1.5-1.4c-0.4,0-0.8,0-1,0c-0.3,0-0.4-0.1-0.4-0.3
	c0-0.2,0.2-0.4,0.5-0.4c0.3,0,0.6,0,1,0c1.2,0,2.4-0.3,3.5-0.8c0.2-0.2,0.5-0.4,0.7-0.4c0.2,0,0.2,0.1,0.2,0.5v15.2
	c0,1.9,0.5,2.9,1.7,2.9c0.6,0,1.1-0.3,1.5-0.7c0.3-0.2,0.5-0.3,0.6-0.1c0.1,0.2,0,0.5-0.2,0.6c-0.8,0.7-1.9,1-2.9,0.9
	c-2.4,0-3.7-1.3-3.8-4.4c-0.4,1.3-1.1,2.5-2.2,3.3c-1.1,0.8-2.4,1.2-3.7,1.2c-3.3,0-5.7-1.9-5.7-6.2V27c0-1.1-0.3-1.4-1.5-1.4h-1
	c-0.2,0-0.4-0.1-0.4-0.3c0-0.2,0.2-0.4,0.5-0.4c0.3,0,0.6,0,1,0c1.2,0,2.4-0.3,3.5-0.8c0.3-0.3,0.5-0.4,0.7-0.4
	c0.2,0,0.2,0.1,0.2,0.5v13.3c0,3,1,4.8,3.6,4.8C212,42.2,213,41.9,213.7,41.3"/>
<path d="M236.9,38.8c0-5.8-11.2-2.3-11.2-9.5c0-3.5,2.2-5.5,6.2-5.5c1.4-0.1,2.7,0.3,3.9,1c0.7,0.4,0.8,0.5,1,0.5
	c0.2,0,0.2-0.4,0.2-1.1c0-0.4,0.1-0.5,0.4-0.5c0.3,0,0.4,0.2,0.4,0.6c0,0.7,0,1.4,0,2.1l0.1,1.2c0.1,1.1,0.2,1.8,0.2,2.1
	c0,0.3-0.1,0.6-0.4,0.6c-0.2,0-0.4-0.1-0.4-0.6c0-0.1,0-0.5,0-1c-0.2-2.5-2.2-4.2-5.4-4.2c-3,0-4.3,1.4-4.3,3.3
	c0,5.1,11.2,1.6,11.2,9.7c0,3.8-2.3,5.7-6.6,5.7c-1.6,0-3.3-0.5-4.6-1.4c-0.4-0.3-0.6-0.4-0.8-0.4s-0.3,0.5-0.3,1
	c0,0.5-0.1,0.6-0.4,0.6c-0.3,0-0.3-0.1-0.3-0.6c0-0.1,0-0.5,0-1.1c0-0.6,0-0.9-0.1-1.4v-0.8c-0.1-1.5-0.3-2.4-0.3-2.7
	s0.1-0.6,0.4-0.6c0.3,0,0.4,0.2,0.4,0.6c0,0.4,0,0.9,0.1,1.3c0.4,3.1,2.9,4.8,5.9,4.8C235.2,42.4,236.9,41,236.9,38.8"/>
<path d="M245.4,33.7v0.7h3.7c3.9,0,5.6-1.6,5.6-4.8c0-3.2-1.4-4.9-4-4.9C247.3,24.5,245.4,27.4,245.4,33.7L245.4,33.7z M257.4,29.6
	c0,3.7-2.8,5.5-8.3,5.5h-3.6c0.3,5.7,2.4,7.4,5.8,7.4c1.6,0,3.2-0.3,4.7-0.9c0.4-0.2,0.8-0.4,1.1-0.7c0.3-0.1,0.5-0.1,0.6,0
	c0.1,0.1,0.1,0.4-0.3,0.7s-0.4,0.2-1.2,0.6c-1.7,0.8-3.5,1.3-5.3,1.2c-5.9,0-8.6-3.8-8.6-9.6c0-5.8,2.8-9.9,8.3-9.9
	C254.8,23.7,257.4,25.8,257.4,29.6"/>
<path d="M263.1,39.3c0.2,0,0.5,0,0.7,0.1c0.2,0.1,0.4,0.2,0.6,0.4c0.2,0.2,0.3,0.4,0.4,0.6c0.1,0.2,0.1,0.5,0.1,0.7
	c0,0.3,0,0.5-0.1,0.8c-0.1,0.3-0.2,0.5-0.4,0.7c-0.2,0.2-0.4,0.3-0.7,0.4c-0.2,0.1-0.5,0.1-0.8,0.1c-0.2,0-0.5,0-0.7-0.1
	c-0.2-0.1-0.4-0.2-0.6-0.4c-0.2-0.2-0.3-0.4-0.4-0.6c-0.1-0.2-0.1-0.5-0.1-0.7c0-0.3,0-0.5,0.1-0.8c0.1-0.3,0.2-0.5,0.4-0.7
	c0.2-0.2,0.4-0.4,0.6-0.5C262.6,39.3,262.8,39.3,263.1,39.3z"/>
<path d="M275,42.4c1.1,0,2.2-0.4,3-1.1c0.7-0.7,1.3-1.5,1.7-2.5c0.4-0.9,0.6-2,0.5-3v-2.5h-2.7c-4.2,0-5.9,1.4-5.9,4.8
	C271.6,41.1,273,42.4,275,42.4L275,42.4z M285,42.4c0.3,0,0.6-0.1,0.8-0.2c0.3-0.1,0.5-0.3,0.7-0.5c0.3-0.2,0.5-0.3,0.6-0.1
	c0.1,0.2,0,0.5-0.2,0.7c-0.8,0.7-1.8,1-2.9,1c-2.2,0-3.5-1.1-3.7-3.7c-0.5,1.2-1.4,2.2-2.4,2.9c-1.1,0.7-2.3,1-3.6,0.9
	c-3.2,0-5.7-1.6-5.7-5.2c0-4.2,3.4-5.5,9-5.5h2.7v-1c0-5.1-1.7-7-4.7-7c-2.6,0-4.3,1-4.9,2.4c0.3-0.2,0.6-0.3,0.9-0.3
	c0.2,0,0.5,0,0.7,0.1c0.2,0.1,0.4,0.2,0.6,0.4c0.2,0.2,0.3,0.4,0.4,0.6c0.1,0.2,0.1,0.5,0.1,0.7c0,0.3,0,0.5-0.1,0.8
	c-0.1,0.2-0.2,0.5-0.4,0.6c-0.2,0.2-0.4,0.3-0.6,0.4c-0.2,0.1-0.5,0.1-0.7,0.1c-0.2,0-0.5,0-0.7-0.1c-0.2-0.1-0.4-0.2-0.6-0.4
	c-0.2-0.2-0.3-0.4-0.4-0.6c-0.1-0.2-0.1-0.5-0.1-0.7c0-3,2.2-4.8,6.6-4.8s7.1,2.4,7.1,8.2v7.5C283.3,41.5,283.9,42.4,285,42.4z"/>
<path d="M291.7,33.7v0.7h3.7c3.9,0,5.5-1.6,5.5-4.8c0-3.2-1.4-4.9-4-4.9C293.6,24.5,291.7,27.4,291.7,33.7L291.7,33.7z M303.7,29.6
	c0,3.7-2.8,5.5-8.3,5.5h-3.7c0.3,5.7,2.4,7.4,5.8,7.4c1.6,0,3.2-0.3,4.7-0.9c0.4-0.2,0.8-0.4,1.1-0.7c0.3-0.1,0.5-0.1,0.6,0
	c0.1,0.1,0.1,0.4-0.2,0.7s-0.4,0.2-1.2,0.6c-1.7,0.8-3.5,1.3-5.3,1.2c-5.9,0-8.6-3.8-8.6-9.6c0-5.8,2.8-9.9,8.3-9.9
	C301,23.7,303.7,25.8,303.7,29.6"/>
<path d="M99,51.1c0-0.6-0.4-1-1.2-1h-1.1v2h1.1C98.6,52.1,99,51.7,99,51.1z M99.4,51.1c0,0.9-0.6,1.4-1.6,1.4h-1.1v1.3h-0.4v-4.1
	h1.5C98.8,49.7,99.4,50.2,99.4,51.1"/>
<path d="M109.2,51.7c0-0.3-0.1-0.7-0.2-1c-0.2-0.3-0.4-0.5-0.7-0.7c-0.3-0.1-0.6-0.2-1-0.1c-0.3,0.1-0.6,0.2-0.9,0.4
	c-0.2,0.2-0.4,0.5-0.5,0.9c-0.1,0.3,0,0.7,0.1,1c0.1,0.3,0.3,0.6,0.6,0.8c0.3,0.2,0.6,0.3,0.9,0.3c0.2,0,0.4,0,0.6-0.1
	c0.2-0.1,0.4-0.2,0.5-0.4c0.2-0.2,0.3-0.3,0.4-0.6S109.2,51.9,109.2,51.7L109.2,51.7z M105.4,51.7c0-0.4,0.1-0.9,0.3-1.2
	c0.2-0.4,0.5-0.7,0.9-0.8c0.4-0.2,0.8-0.2,1.2-0.2c0.4,0.1,0.8,0.3,1.1,0.6c0.3,0.3,0.5,0.7,0.6,1.1c0.1,0.4,0.1,0.9-0.1,1.3
	c-0.2,0.4-0.4,0.7-0.8,1s-0.8,0.4-1.2,0.4c-0.3,0-0.5,0-0.8-0.1c-0.3-0.1-0.5-0.3-0.7-0.4c-0.2-0.2-0.4-0.4-0.5-0.7
	C105.4,52.2,105.4,51.9,105.4,51.7z"/>
<path d="M121.4,49.6l-1.4,4.1h-0.4l-1.2-3.5l-1.2,3.5h-0.4l-1.3-4.1h0.4l1.2,3.5l1.2-3.5h0.4l1.2,3.5l1.2-3.5H121.4z"/>
<path d="M130.4,53.4v0.4h-2.8v-4.1h2.8V50H128v1.5h2.1v0.4H128v1.5H130.4z"/>
<path d="M139.5,51.1c0-0.6-0.4-1-1.2-1h-1.1v2h1.1C139,52.1,139.5,51.7,139.5,51.1z M139.5,53.8l-0.9-1.3h-0.3h-1.1v1.3h-0.4v-4.1
	h1.5c1,0,1.6,0.5,1.6,1.4c0,0.3-0.1,0.6-0.2,0.8s-0.4,0.4-0.7,0.5l1,1.4L139.5,53.8z"/>
<path d="M149.1,53.4v0.4h-2.8v-4.1h2.8V50h-2.3v1.5h2.1v0.4h-2.1v1.5H149.1z"/>
<path d="M157.1,53.3c0.4,0,0.9-0.2,1.2-0.5c0.3-0.3,0.5-0.7,0.5-1.2c0-0.4-0.2-0.9-0.5-1.2c-0.3-0.3-0.7-0.5-1.2-0.5h-1.2v3.3H157.1
	z M155.4,49.7h1.6c0.5,0,1,0.2,1.4,0.6c0.4,0.4,0.6,0.9,0.6,1.4c0,0.5-0.2,1.1-0.6,1.4c-0.4,0.4-0.9,0.6-1.4,0.6h-1.6V49.7z"/>
<path d="M175.4,52.6c0-0.5-0.4-0.8-1.1-0.8h-1.4v1.5h1.5C175.1,53.3,175.5,53.1,175.4,52.6L175.4,52.6z M173,50v1.5h1.3
	c0.6,0,1-0.2,1-0.7s-0.4-0.7-1-0.7H173z M175.9,52.6c0,0.7-0.5,1.1-1.5,1.1h-1.9v-4.1h1.7c0.9,0,1.4,0.4,1.4,1.1
	c0,0.2-0.1,0.4-0.2,0.6c-0.1,0.2-0.3,0.3-0.5,0.4c0.2,0,0.5,0.2,0.6,0.3C175.8,52.2,175.9,52.4,175.9,52.6"/>
<path d="M183.5,52.3v1.4h-0.4v-1.4l-1.6-2.7h0.5l1.4,2.3l1.4-2.3h0.4L183.5,52.3z"/>
<path d="M202.2,49.6v4.1h-0.4v-3.3l-1.6,2.8H200l-1.6-2.7v3.3H198v-4.1h0.4l1.7,3l1.7-3H202.2z"/>
<path d="M211.8,53.4v0.4h-2.8v-4.1h2.8V50h-2.3v1.5h2.1v0.4h-2.1v1.5H211.8z"/>
<path d="M218.9,50h-1.4v-0.4h3.2V50h-1.4v3.7h-0.4V50z"/>
<path d="M229.5,51.1c0-0.6-0.4-1-1.2-1h-1.1v2h1.1C229.1,52.1,229.5,51.7,229.5,51.1z M229.5,53.8l-0.9-1.3h-0.3h-1.1v1.3h-0.3v-4.1
	h1.5c1,0,1.6,0.5,1.6,1.4c0,0.3-0.1,0.6-0.2,0.8s-0.4,0.4-0.7,0.5l1,1.4L229.5,53.8z"/>
<path d="M239.8,51.7c0-0.3-0.1-0.7-0.3-1c-0.2-0.3-0.4-0.5-0.8-0.6c-0.3-0.1-0.6-0.2-1-0.1c-0.3,0.1-0.6,0.2-0.9,0.5
	c-0.2,0.2-0.4,0.5-0.5,0.9c-0.1,0.3,0,0.7,0.1,1c0.1,0.3,0.3,0.6,0.6,0.8c0.3,0.2,0.6,0.3,0.9,0.3c0.2,0,0.4,0,0.6-0.1
	s0.4-0.2,0.5-0.4c0.2-0.2,0.3-0.3,0.4-0.6C239.7,52.1,239.8,51.9,239.8,51.7z M236,51.7c0-0.4,0.1-0.8,0.3-1.2
	c0.2-0.4,0.5-0.6,0.9-0.8c0.4-0.2,0.8-0.2,1.2-0.2c0.4,0.1,0.8,0.3,1.1,0.6s0.5,0.7,0.6,1.1c0.1,0.4,0.1,0.9-0.1,1.2
	c-0.2,0.4-0.4,0.7-0.8,1c-0.3,0.2-0.8,0.4-1.2,0.4c-0.3,0-0.6,0-0.8-0.1c-0.3-0.1-0.5-0.2-0.7-0.4c-0.2-0.2-0.4-0.4-0.5-0.7
	C236,52.3,236,52,236,51.7z"/>
<path d="M249.2,51.1c0-0.6-0.4-1-1.2-1h-1.1v2h1.1C248.8,52.1,249.2,51.7,249.2,51.1z M249.7,51.1c0,0.9-0.6,1.4-1.6,1.4h-1.1v1.3
	h-0.4v-4.1h1.5C249,49.7,249.6,50.2,249.7,51.1"/>
<path d="M259.5,51.7c0-0.3-0.1-0.7-0.3-1c-0.2-0.3-0.4-0.5-0.8-0.7c-0.3-0.1-0.7-0.2-1-0.1c-0.3,0.1-0.6,0.2-0.9,0.5
	c-0.2,0.2-0.4,0.5-0.5,0.9c-0.1,0.3,0,0.7,0.1,1c0.1,0.3,0.3,0.6,0.6,0.8c0.3,0.2,0.6,0.3,0.9,0.3c0.2,0,0.4,0,0.6-0.1
	c0.2-0.1,0.4-0.2,0.6-0.4c0.2-0.2,0.3-0.3,0.4-0.6C259.4,52.1,259.5,51.9,259.5,51.7z M255.7,51.7c0-0.4,0.1-0.8,0.3-1.2
	s0.5-0.6,0.9-0.8c0.4-0.2,0.8-0.2,1.2-0.2c0.4,0.1,0.8,0.3,1.1,0.6c0.3,0.3,0.5,0.7,0.6,1.1c0.1,0.4,0,0.9-0.1,1.2
	c-0.2,0.4-0.4,0.7-0.8,1c-0.3,0.2-0.8,0.4-1.2,0.4c-0.3,0-0.5,0-0.8-0.1c-0.3-0.1-0.5-0.3-0.7-0.4c-0.2-0.2-0.4-0.4-0.5-0.7
	C255.7,52.3,255.7,52,255.7,51.7z"/>
<path d="M266.2,49.6h0.4v3.7h2.3v0.4h-2.7V49.6z"/>
<path d="M275.4,49.7H275v4.1h0.4V49.7z"/>
<path d="M282.9,50h-1.4v-0.4h3.2V50h-1.4v3.7h-0.4V50z"/>
<path d="M292.9,52.3l-1-2.2l-1,2.2H292.9z M293.1,52.7h-2.2l-0.5,1.1h-0.4l1.8-4.1h0.4l1.8,4.1h-0.4L293.1,52.7z"/>
<path d="M303.4,49.6v4.1h-0.4l-2.6-3.3v3.3h-0.4v-4.1h0.3L303,53v-3.3H303.4z"/>
<path d="M48.7,53.8c-1.5-2.9-2.8-5.8-3.9-8.9c-1.2-3-2-6.1-2.2-9.3c-0.1-1.4,0-2.7,0.2-4.1c0.3-1.4,0.7-2.7,1.3-4
	c0.2-0.4-0.5,0.7-0.1,0.2l0.3-0.5c0.2-0.3,0.4-0.6,0.6-0.8c0.5-0.5,1-1,1.5-1.4c0.5-0.4,1.1-0.7,1.8-0.8c0.6-0.2,1.3-0.2,1.9-0.1
	c0.6,0.1,1.1,0.4,1.6,0.8c0.4,0.4,0.8,0.9,0.9,1.5c0.3,1.5,0.3,2.9,0,4.4c-0.2,1.4-0.5,2.7-0.9,4.1c-0.2,0.7-0.5,1.4-0.8,2.1
	c-0.1,0.3-0.2,0.5-0.3,0.8s-0.3,0.5-0.4,0.8c-0.2,0.5,0.2-0.3-0.1,0.2c-1.5,2.4-3.5,4.4-5.8,6.1c-2.2,1.5-4.8,2.6-7.4,3
	c-3,0.5-6,0.2-8.8-0.8c-2.8-1-5.4-2.8-7.3-5.1c0.1,0.1-0.9,1.2-0.8,1.4c1.9,2.2,4.4,4,7.2,5c2.8,1,5.7,1.3,8.6,0.9
	c2.9-0.5,5.6-1.6,8-3.2c2.4-1.7,4.4-3.8,5.9-6.4c1.5-2.4,2.7-5.1,3.3-7.9c0.3-1.5,0.5-3,0.5-4.5c0-1.5-0.2-3-1.6-3.8
	c-2.7-1.6-5.6,0.7-7.1,2.8c-1.6,2.2-2.6,4.7-3.1,7.3c-0.4,3.7,0,7.4,1.3,10.9c1.3,3.8,2.9,7.4,4.7,10.9c0-0.1,0.4-0.6,0.4-0.7
	C48.4,54.5,48.8,53.9,48.7,53.8"/>
<path d="M62.5,37.1c0,2.7-0.4,5.4-1.2,8c-0.4,1.3-0.9,2.6-1.6,3.9c-0.1,0.1-0.5,0.9-0.2,0.4c-0.2,0.3-0.4,0.6-0.6,1
	c-0.4,0.6-0.8,1.1-1.2,1.7c-3.7,4.8-8.8,8.1-14.6,9.5c-5.8,1.4-11.9,0.7-17.2-1.9c-5.4-2.6-9.7-7-12.2-12.5
	c-2.5-5.5-3.2-11.7-1.8-17.5c0.3-1.3,0.7-2.6,1.2-3.9c0.2-0.6,0.5-1.2,0.8-1.7c0.1-0.1,0.1-0.3,0.2-0.5s0.3-0.6,0-0.1
	c0.2-0.3,0.4-0.6,0.6-1c3.1-4.8,7.6-8.4,12.9-10.3c5.3-1.9,11-2.1,16.4-0.4c5.4,1.6,10.1,5,13.4,9.6C60.7,25.9,62.5,31.4,62.5,37.1
	c0-0.2,0.3-0.5,0.4-0.7c0.1-0.1,0.4-0.5,0.4-0.7c0-5.6-1.7-11.1-5-15.6c-3.2-4.5-7.8-7.9-13-9.6c-5.2-1.7-10.9-1.7-16.1,0
	c-5.2,1.7-9.8,5.1-13,9.7c-3.2,4.3-5.1,9.5-5.6,14.9c-0.4,5.6,0.9,11.2,3.8,15.9s7.2,8.5,12.3,10.6c5.1,2.1,10.7,2.6,16.1,1.2
	c5.3-1.3,10.1-4.3,13.7-8.6c3.4-4.1,5.7-9,6.6-14.3c0.2-1.4,0.3-2.8,0.3-4.2c0,0.2-0.3,0.5-0.4,0.7C62.7,36.6,62.4,36.9,62.5,37.1"
	/>
<path d="M34.9,54.9c-3.3-9.1-5.8-18.9-4.9-28.7c0.4-4.1,1.4-8,3-11.8c0.2-0.5,0.4-1,0.7-1.4c0.1-0.2,0.2-0.5,0.4-0.7
	c0.1-0.2,0-0.1,0,0l0.3-0.5c0.6-0.9,1.2-1.8,1.8-2.6c1.2-1.6,2.6-3,4.1-4.2C42.1,3.5,44,2.5,46,1.8c1.8-0.5,4-0.7,5.6,0.5
	c1.5,1.3,1.7,3.8,1.2,5.7c-0.1,0.5-0.3,0.9-0.5,1.4c-0.1,0.3-0.3,0.5-0.4,0.8c-0.1,0.3,0.2-0.3,0.2-0.3c0,0-0.3,0.5-0.4,0.6
	c-0.6,0.9-1.3,1.7-2,2.5c-3.1,3.2-6.6,5.8-10.6,7.8c-4.3,2.2-8.9,3.3-13.5,4.6c-4.3,1.1-8.5,2.8-12.4,4.9C9.5,32.4,6.1,35,3,38
	c-0.8,0.8-1.5,1.5-2.2,2.4c-0.3,0.4-0.4,1-0.8,1.4c6.3-6.9,14.4-12,23.3-14.5c4.9-1.4,9.8-2.5,14.4-4.7c4.2-2,8.1-4.8,11.3-8.2
	c1.4-1.5,2.6-3.2,3.5-5c1.1-1.8,1.5-3.8,1.2-5.9c-0.2-1-0.8-2-1.6-2.6c-0.8-0.6-1.9-0.9-2.9-0.8C46.9,0.2,44.8,1,43,2.3
	c-3.4,2.3-6.3,5.4-8.3,9.1c-2.1,3.6-3.7,7.5-4.6,11.5c-2.1,9.9-0.2,20.2,2.9,29.7c0.4,1.2,0.8,2.5,1.3,3.7c0.1-0.2,0.2-0.5,0.4-0.7
	C34.6,55.5,35,55,34.9,54.9"/>
</svg>
