<svg width="60" height="74" viewBox="0 0 60 74" fill="none" xmlns="http://www.w3.org/2000/svg">
<path d="M30 0C13.4315 0 0 13.4315 0 30V31.1651C0 41.0854 9.0345 51.85 12.2357 55.3425C15.4369 58.835 30 73.1068 30 73.1068C30 73.1068 42.233 61.7476 47.7643 55.3425C53.2956 48.9374 60 41.0854 60 31.1651V30C60 13.4315 46.5685 0 30 0Z" fill="#8F8175"/>
<path d="M29.6784 40.6928C27.7686 35.4008 26.3136 29.7052 26.8462 24.0029C27.0599 21.6343 27.6524 19.3171 28.6001 17.1431C28.73 16.8586 28.86 16.5808 28.9964 16.3029C29.0678 16.1706 29.1393 16.0383 29.2042 15.906C29.2692 15.7737 29.2042 15.8597 29.2042 15.906L29.3991 15.5951C29.7269 15.0687 30.0825 14.5608 30.4644 14.0736C31.1765 13.1655 31.9872 12.3422 32.8809 11.6194C33.8374 10.8042 34.9406 10.1864 36.1289 9.80029C37.1682 9.496 38.4804 9.3703 39.3768 10.1178C40.2732 10.8653 40.3382 12.3339 40.0654 13.4254C39.9961 13.6964 39.9071 13.9617 39.799 14.2192C39.7341 14.3846 39.6366 14.5367 39.5782 14.7021C39.5197 14.8675 39.6691 14.5235 39.6886 14.5169C39.7081 14.5103 39.5067 14.7881 39.4613 14.8608C39.1028 15.3686 38.7076 15.8485 38.279 16.2963C36.4928 18.1513 34.4133 19.6875 32.1274 20.8409C29.6395 22.1044 26.9307 22.7791 24.2869 23.5266C21.7698 24.1895 19.3386 25.1532 17.0439 26.3976C14.8676 27.617 12.8583 29.1227 11.0677 30.876C10.613 31.3192 10.1713 31.7757 9.76853 32.252C9.57365 32.4769 9.51519 32.8341 9.32031 33.0524C12.9896 29.0148 17.6837 26.089 22.8837 24.5983C25.7095 23.7714 28.6066 23.1363 31.2764 21.8464C33.7431 20.664 35.9808 19.0395 37.8828 17.0504C38.6881 16.1741 39.3762 15.1932 39.929 14.1332C40.5412 13.1066 40.7845 11.8955 40.6175 10.7066C40.4977 10.1028 40.1594 9.5669 39.6696 9.20538C39.1798 8.84387 38.5744 8.68312 37.9737 8.75509C36.6693 8.85003 35.4156 9.30766 34.349 10.0781C32.3539 11.4393 30.6935 13.2501 29.4966 15.3702C28.2516 17.4482 27.3456 19.718 26.8137 22.0912C25.5665 27.8661 26.6903 33.8462 28.4897 39.3632C28.7235 40.0843 28.9704 40.7921 29.2237 41.4999C29.2862 41.3588 29.3647 41.2256 29.4576 41.103C29.4576 41.0435 29.7044 40.7656 29.6784 40.6995" fill="white"/>
<path d="M45.7111 30.3733C45.7135 31.9623 45.4746 33.5421 45.003 35.0567C44.7613 35.835 44.4571 36.5916 44.0936 37.3191C44.0611 37.3853 43.8208 37.8417 43.9832 37.5639C43.8728 37.7557 43.7493 37.9409 43.6324 38.1195C43.4116 38.4569 43.1842 38.7811 42.9438 39.092C40.8126 41.8703 37.812 43.8221 34.4405 44.6232C31.0691 45.4242 27.53 45.0261 24.4115 43.495C21.2931 41.964 18.783 39.3922 17.2987 36.2072C15.8143 33.0222 15.445 29.4158 16.2522 25.9874C16.4284 25.2144 16.6674 24.4577 16.9668 23.7251C17.101 23.3811 17.2504 23.0437 17.415 22.713C17.454 22.627 17.4994 22.5343 17.5514 22.4417C17.6034 22.3491 17.7398 22.0911 17.5514 22.3756C17.6618 22.1838 17.7853 21.9985 17.9022 21.8199C19.6993 19.0484 22.3268 16.9416 25.3939 15.8126C28.4611 14.6836 31.8041 14.5928 34.926 15.5537C38.0479 16.5146 40.7819 18.4759 42.7215 21.1459C44.6611 23.8159 45.7028 27.0521 45.6916 30.3733C45.6916 30.274 45.88 30.0557 45.9255 29.9697C45.9709 29.8837 46.1463 29.6853 46.1463 29.5662C46.1473 26.3007 45.1315 23.119 43.2449 20.4784C41.3584 17.8378 38.6984 15.8743 35.6471 14.8702C32.5958 13.866 29.3105 13.8729 26.2633 14.8899C23.2161 15.9068 20.564 17.8815 18.6882 20.53C16.8392 23.0532 15.7107 26.0475 15.4272 29.1825C15.1822 32.436 15.9552 35.685 17.6354 38.4634C19.3156 41.2419 21.8167 43.4071 24.78 44.6486C27.7433 45.89 31.0165 46.1439 34.1303 45.3738C37.244 44.6038 40.0383 42.8493 42.1124 40.3621C44.1086 37.9849 45.4372 35.1029 45.9579 32.0204C46.086 31.2089 46.149 30.3881 46.1463 29.5662C46.1463 29.6654 45.9644 29.8837 45.919 29.9697C45.8735 30.0557 45.6981 30.2542 45.6916 30.3733" fill="white"/>
<path d="M37.694 40.0781C36.8379 38.401 36.0703 36.6786 35.3944 34.9183C34.6825 33.1984 34.244 31.374 34.0952 29.5137C34.0495 28.7194 34.0953 27.9224 34.2317 27.1389C34.4064 26.3405 34.661 25.5625 34.9917 24.817C35.0891 24.559 34.7059 25.2536 34.9397 24.9162L35.1346 24.6384C35.251 24.4745 35.3769 24.3176 35.5114 24.1687C35.7766 23.8659 36.0752 23.5951 36.4013 23.3617C36.7054 23.1319 37.0524 22.9676 37.4209 22.8789C37.7895 22.7901 38.1719 22.7789 38.5449 22.8457C38.8835 22.9086 39.1985 23.0654 39.4552 23.2988C39.7119 23.5322 39.9004 23.8332 40 24.1687C40.1689 25.0134 40.1689 25.8841 40 26.7288C39.8977 27.5299 39.726 28.3201 39.4868 29.0904C39.36 29.497 39.2125 29.8966 39.0451 30.2877C38.9802 30.4465 38.9152 30.5986 38.8437 30.7508C38.7723 30.9029 38.6943 31.0484 38.6229 31.194C38.493 31.4784 38.7528 31.022 38.5644 31.3064C37.676 32.6977 36.5257 33.8961 35.1801 34.8323C33.8763 35.7202 32.4051 36.3218 30.8603 36.5985C29.1359 36.8966 27.3652 36.7407 25.7166 36.1456C24.0681 35.5505 22.5963 34.5359 21.4413 33.1984C21.4997 33.2645 20.9151 33.9128 20.9865 33.9988C22.1182 35.3045 23.5525 36.3014 25.159 36.8987C26.7655 37.496 28.4931 37.6748 30.1847 37.4188C31.8578 37.143 33.4513 36.4973 34.853 35.527C36.2547 34.5567 37.4307 33.2854 38.2981 31.8026C39.189 30.3763 39.8471 28.8126 40.2469 27.172C40.4394 26.303 40.546 25.4166 40.5652 24.526C40.5652 23.6528 40.4287 22.7795 39.6298 22.3165C38.0707 21.4036 36.3818 22.7002 35.5178 23.957C34.6072 25.2118 33.9976 26.6663 33.738 28.204C33.4923 30.3489 33.7574 32.5226 34.511 34.5412C35.2644 36.7283 36.1763 38.8554 37.2393 40.905C37.2393 40.8719 37.4471 40.5477 37.4666 40.508C37.4861 40.4683 37.72 40.1574 37.694 40.1045" fill="white"/>
</svg>
