<?xml version="1.0" encoding="utf-8"?>
<!-- Generator: Adobe Illustrator 26.3.1, SVG Export Plug-In . SVG Version: 6.00 Build 0)  -->
<svg version="1.1" id="Слой_1" xmlns="http://www.w3.org/2000/svg" xmlns:xlink="http://www.w3.org/1999/xlink" x="0px" y="0px"
	 viewBox="0 0 19 17" style="enable-background:new 0 0 19 17;" xml:space="preserve">
<g>
	<path d="M4.5,0.6C4.3,0.5,4,0.5,3.8,0.6L0.7,3.7c-0.2,0.2-0.2,0.5,0,0.7C0.8,4.5,1,4.6,1.1,4.6s0.3,0,0.4-0.1L3.8,2v13.5
		c0,0.3,0.2,0.5,0.5,0.5s0.5-0.2,0.5-0.5V2.4l2.1,2.1C7,4.5,7.1,4.6,7.3,4.6s0.3,0,0.4-0.1c0.2-0.2,0.2-0.5,0-0.7L4.5,0.6z"/>
	<path d="M18.3,12.6c-0.2-0.2-0.5-0.2-0.7,0L15.2,15V1.5c0-0.3-0.2-0.5-0.5-0.5s-0.5,0.2-0.5,0.5v13.2L12,12.6
		c-0.2-0.2-0.5-0.2-0.7,0s-0.2,0.5,0,0.7l3.1,3.1c0.1,0.1,0.2,0.1,0.4,0.1c0,0,0,0,0,0c0,0,0,0,0,0c0.1,0,0.3,0,0.4-0.1l3.1-3.1
		C18.5,13.1,18.5,12.8,18.3,12.6z"/>
</g>
</svg>
