<?xml version="1.0" encoding="utf-8"?>
<!-- Generator: Adobe Illustrator 26.3.1, SVG Export Plug-In . SVG Version: 6.00 Build 0)  -->
<svg version="1.1" id="Слой_1" xmlns="http://www.w3.org/2000/svg" xmlns:xlink="http://www.w3.org/1999/xlink" x="0px" y="0px"
	 viewBox="0 0 46 67" style="enable-background:new 0 0 46 67;" xml:space="preserve">
<path d="M30.3,51.3c0,1.7-1.4,3.1-3.1,3.1h-3.1v-6.2h3.1C29,48.2,30.3,49.6,30.3,51.3z M15.7,42.7c0,1.7,1.4,3.1,3.1,3.1h3.1v-6.2
	h-3.1C17,39.6,15.7,41,15.7,42.7z M42.9,47c0,11-8.9,20-19.9,20S3.1,58,3.1,47c0-10.6,8.3-19.3,18.7-20v-8.9
	c-2.5,1.3-8.4,3.4-15.1-1.1c-8.1-5.4-6.6-15-6.6-15s8.1-5.1,16.3,0.3c4.4,3,6.1,6.7,6.6,9.7c0.5-3,2.2-6.8,6.6-9.7
	c8.1-5.4,16.3-0.3,16.3-0.3s1.5,9.5-6.6,15c-6.7,4.5-12.6,2.3-15.1,1.1V27C34.6,27.7,42.9,36.4,42.9,47L42.9,47z M24.2,17.9
	c2.1-2.8,4.7-5.2,7.7-6.9c2.2-1.3,4.7-2.3,7.2-2.9l-0.5-2.4c-2.8,0.6-5.4,1.7-7.9,3.2c-2.4,1.4-4.5,3.2-6.4,5.2V17.9z M21.8,17.9
	v-3.8c-1.9-2-4-3.8-6.4-5.2c-2.5-1.4-5.1-2.5-7.9-3.2L6.9,8.1c2.6,0.6,5,1.6,7.2,2.9C17.1,12.7,19.7,15,21.8,17.9L21.8,17.9z
	 M32.8,51.3c0-3-2.5-5.5-5.5-5.5h-3.1v-6.2h7.3v-2.4h-7.3v-3.9h-2.4v3.9h-3.1c-3,0-5.5,2.5-5.5,5.5c0,3,2.5,5.5,5.5,5.5h3.1v6.2
	h-7.3v2.4l7.3,0v3.9h2.4l0-3.9h3.1C30.3,56.8,32.8,54.3,32.8,51.3L32.8,51.3z"/>
</svg>
