<?xml version="1.0" encoding="utf-8"?>
<!-- Generator: Adobe Illustrator 26.3.1, SVG Export Plug-In . SVG Version: 6.00 Build 0)  -->
<svg version="1.1" id="Слой_1" xmlns="http://www.w3.org/2000/svg" xmlns:xlink="http://www.w3.org/1999/xlink" x="0px" y="0px"
	 viewBox="0 0 45 67" style="enable-background:new 0 0 45 67;" xml:space="preserve">
<path d="M18.4,55.8v7.1c0,2.2,1.8,4,3.9,4.2h0.2c2.3,0,4.2-1.9,4.2-4.2v-7.1H45V40.5h-4.2c-3.9,0-7.1-3.2-7.1-7.1v-0.3v-0.3
	c0.2-1.6,0.8-3.1,2.1-4.2c1.1-1.1,2.6-1.9,4.2-2.1h0.3h0.3h4.2V11.2h-18V4.2c0-1.1-0.5-2.1-1.3-2.9C24.7,0.5,23.7,0,22.6,0
	c-2.3,0-4.2,1.9-4.2,4.2v7.1H0v15.3h4.2c1.9,0,3.7,0.8,5,2.1c1.3,1.3,2.1,3.1,2.1,5c0,1.9-0.8,3.7-2.1,5c-1.3,1.3-3.1,2.1-5,2.1H0
	v15.3h18.4L18.4,55.8z"/>
</svg>
