<?xml version="1.0" encoding="utf-8"?>
<!-- Generator: Adobe Illustrator 26.3.1, SVG Export Plug-In . SVG Version: 6.00 Build 0)  -->
<svg version="1.1" id="Слой_1" xmlns="http://www.w3.org/2000/svg" xmlns:xlink="http://www.w3.org/1999/xlink" x="0px" y="0px"
	 viewBox="0 0 24 22" style="enable-background:new 0 0 24 22;" xml:space="preserve">
<path d="M23.4,16c-0.5,0-1,0.2-1.4,0.6c-0.2,0.2-0.5,0.4-0.9,0.4c-0.3,0-0.6-0.1-0.9-0.4c-0.3-0.3-0.7-0.5-1.1-0.5
	c-0.1,0-0.2,0-0.3,0h-0.1c-0.1,0-0.2,0-0.2,0V4.1h4.8c0.3,0,0.5-0.2,0.5-0.4c0-0.3-0.3-0.4-0.5-0.4h-4.8V2.6c0-0.9-0.5-1.8-1.3-2.3
	c-0.8-0.5-1.8-0.5-2.6,0c-0.8,0.5-1.3,1.3-1.3,2.3v0.7l-2.5,0V2.6c0-0.9-0.5-1.8-1.3-2.3c-0.8-0.5-1.8-0.5-2.6,0
	C6.1,0.8,5.6,1.7,5.6,2.6v0.7l-5.1,0C0.3,3.3,0.1,3.5,0,3.7c0,0.2,0.2,0.4,0.5,0.4h9.1V16c-0.1,0-0.2,0-0.4,0
	c-0.1,0-0.2,0.1-0.3,0.1c-0.3,0.1-0.5,0.3-0.7,0.4C8,16.8,7.7,17,7.4,17s-0.6-0.1-0.9-0.4C6.1,16.2,5.6,16,5.1,16
	c-0.5,0-1,0.2-1.4,0.6C3.4,16.8,3.1,17,2.8,17c-0.3,0-0.6-0.1-0.9-0.4C1.5,16.2,1,16,0.5,16c-0.2,0-0.4,0.2-0.4,0.4
	c0,0.2,0.2,0.4,0.4,0.4c0.3,0,0.6,0.1,0.9,0.4c0.4,0.4,0.9,0.6,1.4,0.6c0.5,0,1-0.2,1.4-0.6c0.2-0.2,0.5-0.4,0.9-0.4
	c0.3,0,0.6,0.1,0.9,0.4c0.4,0.4,0.9,0.6,1.4,0.6c0.5,0,1-0.2,1.4-0.6C9,17.1,9.2,17,9.4,16.9c0.4-0.1,0.8,0.1,1.1,0.4
	c0.1,0.1,0.2,0.2,0.4,0.3c0,0,0,0,0.1,0c0.3,0.2,0.6,0.3,1,0.3c0.5,0,1-0.2,1.4-0.6c0.2-0.2,0.5-0.4,0.9-0.4c0.3,0,0.6,0.1,0.9,0.4
	c0.4,0.4,0.9,0.6,1.4,0.6c0.2,0,0.3,0,0.5-0.1h0.1c0.3-0.1,0.6-0.3,0.8-0.5c0.2-0.2,0.5-0.4,0.8-0.4h0c0.3,0,0.6,0.1,0.9,0.4
	c0.4,0.4,0.9,0.6,1.4,0.6c0.5,0,1-0.2,1.4-0.6c0.2-0.2,0.5-0.4,0.9-0.4c0.2,0,0.4-0.2,0.4-0.4C23.9,16.2,23.7,16,23.4,16L23.4,16z
	 M16.6,17L16.6,17c-0.4,0-0.7-0.1-0.9-0.4c-0.4-0.4-0.9-0.6-1.4-0.6c-0.5,0-1,0.2-1.4,0.6c-0.2,0.2-0.5,0.4-0.9,0.4
	c-0.1,0-0.3,0-0.4-0.1c-0.1,0-0.1,0-0.2-0.1c-0.1-0.1-0.2-0.1-0.3-0.2l0,0c-0.1-0.1-0.1-0.1-0.2-0.2v-3.6h6.4v3.9
	c-0.1,0.1-0.3,0.2-0.4,0.2C16.8,17,16.7,17,16.6,17L16.6,17z M15.9,1.2c0.4,0,0.7,0.1,1,0.4c0.3,0.3,0.4,0.6,0.4,1v0.7l-2.7,0V2.6
	c0-0.4,0.1-0.7,0.4-1C15.2,1.4,15.5,1.2,15.9,1.2L15.9,1.2z M17.3,11.6h-6.4V8.5h6.4V11.6z M17.3,4.2v3.1h-6.4V4.1L17.3,4.2z
	 M8.2,1.2c0.4,0,0.7,0.1,1,0.4c0.3,0.3,0.4,0.6,0.4,1v0.7l-2.7,0V2.6c0-0.4,0.1-0.7,0.4-1C7.5,1.4,7.9,1.3,8.2,1.2L8.2,1.2z"/>
<path d="M23.4,18.1c-0.5,0-1,0.2-1.4,0.6c-0.2,0.2-0.5,0.4-0.9,0.4c-0.3,0-0.6-0.1-0.9-0.4c-0.4-0.4-0.9-0.6-1.4-0.6
	c-0.5,0-1,0.2-1.4,0.6c-0.2,0.2-0.5,0.4-0.9,0.4c-0.3,0-0.6-0.1-0.9-0.4c-0.4-0.4-0.9-0.6-1.4-0.6c-0.5,0-1,0.2-1.4,0.6
	c-0.2,0.2-0.5,0.4-0.9,0.4c-0.3,0-0.6-0.1-0.9-0.4c-0.4-0.4-0.9-0.6-1.4-0.6c-0.5,0-1,0.2-1.4,0.6c-0.2,0.2-0.5,0.4-0.9,0.4
	c-0.3,0-0.6-0.1-0.9-0.4c-0.4-0.4-0.9-0.6-1.4-0.6c-0.5,0-1,0.2-1.4,0.6c-0.2,0.2-0.5,0.4-0.9,0.4c-0.3,0-0.6-0.1-0.9-0.4
	c-0.4-0.4-0.9-0.6-1.4-0.6c-0.1,0-0.2,0-0.3,0.1C0.1,18.3,0,18.4,0,18.5c0,0.1,0.1,0.2,0.1,0.3C0.2,18.9,0.4,19,0.5,19
	c0.3,0,0.6,0.1,0.9,0.4c0.4,0.4,0.9,0.6,1.4,0.6c0.5,0,1-0.2,1.4-0.6C4.4,19.1,4.7,19,5.1,19c0.3,0,0.6,0.1,0.9,0.4
	c0.4,0.4,0.9,0.6,1.4,0.6s1-0.2,1.4-0.6C9,19.1,9.3,19,9.6,19c0.3,0,0.6,0.1,0.9,0.4c0.4,0.4,0.9,0.6,1.4,0.6c0.5,0,1-0.2,1.4-0.6
	c0.2-0.2,0.5-0.4,0.9-0.4s0.6,0.1,0.9,0.4c0.4,0.4,0.9,0.6,1.4,0.6c0.5,0,1-0.2,1.4-0.6c0.2-0.2,0.5-0.4,0.9-0.4
	c0.3,0,0.6,0.1,0.9,0.4c0.4,0.4,0.9,0.6,1.4,0.6c0.5,0,1-0.2,1.4-0.6c0.2-0.2,0.5-0.4,0.9-0.4c0.1,0,0.2,0,0.3-0.1
	c0.1-0.1,0.1-0.2,0.1-0.3c0-0.1-0.1-0.2-0.1-0.3C23.7,18.1,23.5,18.1,23.4,18.1L23.4,18.1z"/>
<path d="M23.4,20.2c-0.5,0-1,0.2-1.4,0.6c-0.2,0.2-0.5,0.4-0.9,0.4c-0.3,0-0.6-0.1-0.9-0.4c-0.4-0.4-0.9-0.6-1.4-0.6
	c-0.5,0-1,0.2-1.4,0.6c-0.2,0.2-0.5,0.4-0.9,0.4c-0.3,0-0.6-0.1-0.9-0.4c-0.4-0.4-0.9-0.6-1.4-0.6c-0.5,0-1,0.2-1.4,0.6
	c-0.2,0.2-0.5,0.4-0.9,0.4s-0.6-0.1-0.9-0.4c-0.4-0.4-0.9-0.6-1.4-0.6c-0.5,0-1,0.2-1.4,0.6C8,21,7.7,21.2,7.3,21.2
	c-0.3,0-0.6-0.1-0.9-0.4c-0.4-0.4-0.9-0.6-1.4-0.6c-0.5,0-1,0.2-1.4,0.6c-0.2,0.2-0.5,0.4-0.9,0.4S2.1,21,1.9,20.8
	c-0.4-0.4-0.9-0.6-1.4-0.6c-0.2,0-0.4,0.2-0.4,0.4s0.2,0.4,0.4,0.4c0.3,0,0.6,0.1,0.9,0.4C1.7,21.8,2.2,22,2.8,22
	c0.5,0,1-0.2,1.4-0.6c0.2-0.2,0.5-0.4,0.9-0.4c0.3,0,0.6,0.1,0.9,0.4C6.3,21.8,6.8,22,7.4,22c0.5,0,1-0.2,1.4-0.6
	c0.2-0.2,0.5-0.4,0.9-0.4c0.3,0,0.6,0.1,0.9,0.4c0.4,0.4,0.9,0.6,1.4,0.6c0.5,0,1-0.2,1.4-0.6c0.2-0.2,0.5-0.4,0.9-0.4
	c0.3,0,0.6,0.1,0.9,0.4c0.4,0.4,0.9,0.6,1.4,0.6c0.5,0,1-0.2,1.4-0.6c0.2-0.2,0.5-0.4,0.9-0.4c0.3,0,0.6,0.1,0.9,0.4
	c0.4,0.4,0.9,0.6,1.4,0.6c0.5,0,1-0.2,1.4-0.6c0.2-0.2,0.5-0.4,0.9-0.4c0.2,0,0.4-0.2,0.4-0.4C23.9,20.4,23.7,20.2,23.4,20.2
	L23.4,20.2z"/>
</svg>
