<svg width="23" height="22" viewBox="0 0 23 22" fill="none" xmlns="http://www.w3.org/2000/svg">
<path d="M22.0526 20.0937C20.3895 17.225 17.6712 15.1197 14.4776 14.2271C15.9846 13.4617 17.1899 12.2109 17.899 10.6766C18.6081 9.14233 18.7797 7.41391 18.3861 5.77012C17.9926 4.12633 17.0569 2.66301 15.7298 1.61617C14.4028 0.569331 12.7618 0 11.0716 0C9.38133 0 7.74036 0.569331 6.41332 1.61617C5.08628 2.66301 4.15053 4.12633 3.757 5.77012C3.36346 7.41391 3.53509 9.14233 4.24418 10.6766C4.95328 12.2109 6.15852 13.4617 7.66551 14.2271C4.47195 15.1197 1.75363 17.225 0.0905131 20.0937C0.0466727 20.1667 0.0179815 20.2477 0.00615082 20.3321C-0.00567987 20.4164 -0.000407576 20.5022 0.0216534 20.5844C0.0437143 20.6666 0.0821119 20.7436 0.134555 20.8107C0.186998 20.8777 0.252413 20.9335 0.326896 20.9748C0.400256 21.0171 0.481251 21.0446 0.565247 21.0557C0.649244 21.0668 0.734595 21.0611 0.816422 21.0392C0.89825 21.0172 0.974947 20.9794 1.04213 20.9278C1.10931 20.8761 1.16566 20.8118 1.20796 20.7384C2.20757 19.0069 3.64534 17.5691 5.37677 16.5694C7.1082 15.5697 9.07227 15.0435 11.0716 15.0435C13.0709 15.0435 15.0349 15.5697 16.7664 16.5694C18.4978 17.5691 19.9356 19.0069 20.9352 20.7384C20.9918 20.8364 21.0732 20.9179 21.1713 20.9745C21.2694 21.031 21.3807 21.0608 21.4939 21.0607C21.6068 21.059 21.7175 21.0294 21.8162 20.9748C21.8907 20.9335 21.9561 20.8777 22.0086 20.8107C22.061 20.7436 22.0994 20.6666 22.1215 20.5844C22.1435 20.5022 22.1488 20.4164 22.137 20.3321C22.1252 20.2477 22.0965 20.1667 22.0526 20.0937ZM4.83966 7.52243C4.83966 6.28988 5.20515 5.085 5.88993 4.06017C6.5747 3.03534 7.54799 2.23658 8.68672 1.7649C9.82545 1.29322 11.0785 1.16981 12.2874 1.41027C13.4962 1.65073 14.6066 2.24426 15.4782 3.11581C16.3497 3.98736 16.9433 5.09778 17.1837 6.30665C17.4242 7.51552 17.3008 8.76855 16.8291 9.90728C16.3574 11.046 15.5587 12.0193 14.5338 12.7041C13.509 13.3889 12.3041 13.7543 11.0716 13.7543C9.41877 13.7543 7.83365 13.0978 6.66494 11.9291C5.49623 10.7604 4.83966 9.17524 4.83966 7.52243Z" fill="white"/>
</svg>
