<?xml version="1.0" encoding="utf-8"?>
<!-- Generator: Adobe Illustrator 26.3.1, SVG Export Plug-In . SVG Version: 6.00 Build 0)  -->
<svg version="1.1" id="Слой_1" xmlns="http://www.w3.org/2000/svg" xmlns:xlink="http://www.w3.org/1999/xlink" x="0px" y="0px"
	 viewBox="0 0 194 158" style="enable-background:new 0 0 194 158;" xml:space="preserve">
<path d="M52.7,157.9c-5.1,0-10.6-0.8-16.6-2.5C16.8,149.9,3.7,134.3,1,113.6c-2.2-17.2,2.9-36,14.8-54.4
	C29.6,37.8,51.6,18.1,81.2,0.6l0.4-0.3l3.7,6.4L84.9,7c-19.6,11.5-54.3,42.2-45,76.4c9.3,34.2,35.9,41.2,48.7,40.1l0.6-0.1l-0.1,0.6
	c-1,9-5.7,21-16.1,28C67.3,156,60.4,157.9,52.7,157.9z M81.3,1.7C26.7,34-2.9,75.8,2,113.4c2.6,20.3,15.5,35.7,34.4,41
	c14.7,4.2,26.8,3.1,36.1-3.2c9.9-6.7,14.5-18.1,15.6-26.7c-13.3,0.9-39.8-6.6-49.1-40.9C29.5,49.1,64,18.2,84,6.4L81.3,1.7z"/>
<path d="M157.1,157.9c-5.1,0-10.6-0.8-16.6-2.5c-19.3-5.5-32.4-21.1-35.1-41.8c-2.2-17.2,2.9-36,14.8-54.4
	C134,37.8,156,18.1,185.6,0.6l0.4-0.3l3.7,6.4L189.3,7c-19.6,11.5-54.3,42.2-45,76.4c9.3,34.2,35.9,41.2,48.7,40.1l0.6-0.1l-0.1,0.6
	c-1,9-5.7,21-16.1,28C171.7,156,164.8,157.9,157.1,157.9z M185.7,1.7c-54.5,32.3-84.2,74.1-79.3,111.7c2.6,20.3,15.5,35.7,34.4,41
	c14.7,4.2,26.8,3.1,36.1-3.2c9.9-6.7,14.5-18.1,15.6-26.7c-13.3,0.8-39.8-6.6-49.1-40.9c-9.4-34.6,25.1-65.5,45-77.3L185.7,1.7z"/>
</svg>
