<?xml version="1.0" encoding="utf-8"?>
<!-- Generator: Adobe Illustrator 26.3.1, SVG Export Plug-In . SVG Version: 6.00 Build 0)  -->
<svg version="1.1" id="Слой_1" xmlns="http://www.w3.org/2000/svg" xmlns:xlink="http://www.w3.org/1999/xlink" x="0px" y="0px"
	 viewBox="0 0 17 17" style="enable-background:new 0 0 17 17;" xml:space="preserve">
<path d="M16.4,15.6l-3.5-3.5c0,0-0.1,0-0.1-0.1c1.1-1.2,1.7-2.8,1.7-4.6c0-3.9-3.1-7-7-7s-7,3.1-7,7s3.1,7,7,7
	c1.8,0,3.4-0.7,4.6-1.7c0,0,0,0.1,0.1,0.1l3.5,3.5c0.1,0.1,0.2,0.1,0.4,0.1c0.2,0,0.3,0,0.4-0.1s0.1-0.2,0.1-0.4
	S16.5,15.7,16.4,15.6z M7.5,13.5c-3.3,0-6-2.7-6-6s2.7-6,6-6s6,2.7,6,6S10.8,13.5,7.5,13.5z"/>
</svg>
