<?xml version="1.0" encoding="utf-8"?>
<!-- Generator: Adobe Illustrator 26.3.1, SVG Export Plug-In . SVG Version: 6.00 Build 0)  -->
<svg version="1.1" id="Слой_1" xmlns="http://www.w3.org/2000/svg" xmlns:xlink="http://www.w3.org/1999/xlink" x="0px" y="0px"
	 viewBox="0 0 24 24" style="enable-background:new 0 0 24 24;" xml:space="preserve">
<path d="M1.2,0h8.6c0.7,0,1.2,0.6,1.2,1.2v8.6c0,0.7-0.6,1.2-1.2,1.2H1.2C0.6,11.1,0,10.5,0,9.9V1.2C0,0.6,0.6,0,1.2,0z"/>
<path d="M1.2,12.3h8.6c0.7,0,1.2,0.6,1.2,1.2v8.6c0,0.7-0.6,1.2-1.2,1.2H1.2c-0.7,0-1.2-0.6-1.2-1.2v-8.6C0,12.9,0.6,12.3,1.2,12.3z
	"/>
<path d="M13.5,0h8.6c0.7,0,1.2,0.6,1.2,1.2v8.6c0,0.7-0.6,1.2-1.2,1.2h-8.6c-0.7,0-1.2-0.6-1.2-1.2V1.2C12.3,0.6,12.9,0,13.5,0z"/>
<path d="M13.5,12.3h8.6c0.7,0,1.2,0.6,1.2,1.2v8.6c0,0.7-0.6,1.2-1.2,1.2h-8.6c-0.7,0-1.2-0.6-1.2-1.2v-8.6
	C12.3,12.9,12.9,12.3,13.5,12.3z"/>
</svg>
