<?xml version="1.0" encoding="utf-8"?>
<!-- Generator: Adobe Illustrator 26.3.1, SVG Export Plug-In . SVG Version: 6.00 Build 0)  -->
<svg version="1.1" id="Слой_1" xmlns="http://www.w3.org/2000/svg" xmlns:xlink="http://www.w3.org/1999/xlink" x="0px" y="0px"
	 viewBox="0 0 29 29" style="enable-background:new 0 0 29 29;" xml:space="preserve">
<path d="M12.7,13.7H1c-0.6,0-1-0.4-1-1V1c0-0.6,0.4-1,1-1h11.7c0.6,0,1,0.4,1,1v11.7C13.7,13.3,13.3,13.7,12.7,13.7z M1,1v11.7h11.7
	V1L1,1z M1,0.5L1,1c0,0,0,0,0,0V0.5z"/>
<path d="M12.7,29H1c-0.6,0-1-0.4-1-1V16.3c0-0.6,0.4-1,1-1h11.7c0.6,0,1,0.4,1,1V28C13.7,28.6,13.3,29,12.7,29z M1,16.3V28h11.7
	V16.3H1z M1,15.8l0,0.5c0,0,0,0,0,0V15.8z"/>
<path d="M28,13.7H16.3c-0.6,0-1-0.4-1-1V1c0-0.6,0.4-1,1-1H28c0.6,0,1,0.4,1,1v11.7C29,13.3,28.5,13.7,28,13.7z M16.3,1v11.7H28V1
	L16.3,1z M16.3,0.5l0,0.5h0V0.5z"/>
<path d="M28,29H16.3c-0.6,0-1-0.4-1-1V16.3c0-0.6,0.4-1,1-1H28c0.6,0,1,0.4,1,1V28C29,28.6,28.5,29,28,29z M16.3,16.3V28H28V16.3
	H16.3z M16.3,15.8l0,0.5h0V15.8z"/>
</svg>
