<?xml version="1.0" encoding="utf-8"?>
<!-- Generator: Adobe Illustrator 26.3.1, SVG Export Plug-In . SVG Version: 6.00 Build 0)  -->
<svg version="1.1" id="Слой_1" xmlns="http://www.w3.org/2000/svg" xmlns:xlink="http://www.w3.org/1999/xlink" x="0px" y="0px"
	 viewBox="0 0 19 14" style="enable-background:new 0 0 19 14;" xml:space="preserve">
<path d="M19,1.6c-0.7,0.3-1.5,0.5-2.2,0.6c0.8-0.4,1.4-1.1,1.7-2C17.7,0.7,16.9,1,16,1.1C15.3,0.4,14.3,0,13.1,0
	C11,0,9.3,1.6,9.3,3.5c0,0.3,0,0.6,0.1,0.8c-3.2-0.1-6.1-1.6-8-3.7C1,1.2,0.8,1.8,0.8,2.4c0,1.2,0.7,2.3,1.7,2.9
	c-0.6,0-1.2-0.2-1.8-0.4c0,0,0,0,0,0c0,1.7,1.3,3.1,3.1,3.5c-0.3,0.1-0.7,0.1-1,0.1c-0.2,0-0.5,0-0.7-0.1c0.5,1.4,1.9,2.4,3.6,2.5
	c-1.3,1-3,1.5-4.8,1.5c-0.3,0-0.6,0-0.9,0c1.7,1,3.8,1.6,6,1.6c7.2,0,11.1-5.4,11.1-10.1c0-0.2,0-0.3,0-0.5C17.8,3,18.5,2.4,19,1.6z
	"/>
</svg>
