<?xml version="1.0" encoding="utf-8"?>
<!-- Generator: Adobe Illustrator 26.3.1, SVG Export Plug-In . SVG Version: 6.00 Build 0)  -->
<svg version="1.1" id="Слой_1" xmlns="http://www.w3.org/2000/svg" xmlns:xlink="http://www.w3.org/1999/xlink" x="0px" y="0px"
	 viewBox="0 0 17 17" style="enable-background:new 0 0 17 17;" xml:space="preserve">
<path d="M8.5,0.3C4.1,0.3,0.5,4,0.5,8.4c0,1.4,0.4,2.8,1.1,4.1l-1.1,4.2l4.3-1.1c1.2,0.6,2.5,1,3.9,1c4.4,0,8.1-3.6,8.1-8.1
	c0-2.2-0.8-4.2-2.4-5.7C12.7,1.2,10.7,0.3,8.5,0.3z M8.5,1.7c1.8,0,3.5,0.7,4.7,2c1.3,1.3,2,3,2,4.8c0,3.7-3,6.7-6.7,6.7
	c-1.2,0-2.4-0.3-3.4-0.9l-0.2-0.1l-2.5,0.7L3,12.3L2.9,12c-0.7-1.1-1-2.3-1-3.6C1.8,4.7,4.8,1.7,8.5,1.7z M5.7,4.7
	c-0.1,0-0.4,0-0.5,0.3C5,5.1,4.4,5.6,4.4,6.6c0,1,0.7,2,0.8,2.1c0.1,0.1,1.4,2.2,3.5,3.1c0.5,0.2,0.9,0.3,1.1,0.4
	c0.5,0.2,0.9,0.1,1.3,0.1c0.4-0.1,1.2-0.5,1.4-1c0.2-0.5,0.2-0.9,0.1-1c-0.1-0.1-0.2-0.1-0.4-0.2C12,10,11,9.5,10.8,9.5
	c-0.2-0.1-0.3-0.1-0.5,0.1c-0.1,0.2-0.5,0.7-0.6,0.8c-0.1,0.1-0.2,0.2-0.4,0.1c-0.2-0.1-0.9-0.3-1.6-1C7.1,8.9,6.7,8.2,6.6,8
	c-0.1-0.2,0-0.3,0.1-0.4C6.7,7.5,6.9,7.4,7,7.2C7.1,7.1,7.1,7,7.2,6.9c0.1-0.1,0-0.3,0-0.4c0-0.1-0.5-1.1-0.6-1.5
	C6.4,4.6,6.2,4.7,6.1,4.7C5.9,4.7,5.8,4.7,5.7,4.7z"/>
</svg>
