<?xml version="1.0" encoding="utf-8"?>
<!-- Generator: Adobe Illustrator 26.3.1, SVG Export Plug-In . SVG Version: 6.00 Build 0)  -->
<svg version="1.1" id="Слой_1" xmlns="http://www.w3.org/2000/svg" xmlns:xlink="http://www.w3.org/1999/xlink" x="0px" y="0px"
	 viewBox="0 0 56 67" style="enable-background:new 0 0 56 67;" xml:space="preserve">
<path d="M32,50l-7.5,5.1L23,61l10-6.9L32,50z"/>
<path d="M32.8,56L24,62.7l4.5,4.2c0.1,0.1,0.1,0.1,0.2,0.1c0.1,0,0.2,0,0.2-0.1l5.1-5.5c0.1-0.1,0.1-0.2,0.1-0.4L32.8,56z"/>
<path d="M27.5,44.2L25.7,52l5.6-4.3l-0.8-3.5l2.3-2.9C33,41.2,33,41,33,41l-1.5-3.8c-0.1-0.1-0.2-0.2-0.3-0.2h-4.5
	c-0.1,0-0.2,0.1-0.3,0.2L25,41c-0.1,0.1,0,0.3,0.1,0.3L27.5,44.2z"/>
<path d="M28.5,0C19.4,0,12,7.6,12,17c0,9.4,7.4,17,16.5,17C37.6,34,45,26.4,45,17C45,7.6,37.6,0,28.5,0z M40.9,17
	c0,7.1-5.6,12.8-12.4,12.8S16.1,24.1,16.1,17c0-1,0.2-2.1,0.4-3.1c1.4,0.7,4.1,1.8,7.1,1.8c2.2,0,4.5-0.5,6.8-2.2
	c0.3-0.2,5.8-4.2,10.1-0.2C40.8,14.5,40.9,15.7,40.9,17L40.9,17z"/>
<path d="M55.8,54.8l0.2-4.4C56,43,49.8,37,42.2,37h-0.4L35,66C43.2,64.5,50.3,60.4,55.8,54.8L55.8,54.8z M50,50.2h-6.4v-2H50V50.2z"
	/>
<path d="M21,66l-7.1-29h-0.6C6,37,0,43,0,50.3l0.2,4.9C5.7,60.8,12.9,64.7,21,66L21,66z"/>
</svg>
